<svg width="16" height="16" viewBox="0 0 16 16" fill="none" xmlns="http://www.w3.org/2000/svg">
<g clip-path="url(#clip0_22826_9893)">
<path d="M11.35 8.33744C11.35 7.63844 10.93 7.19944 10.349 7.19944C9.76499 7.19944 9.39499 7.64344 9.39499 8.43844V8.89144C9.39499 9.69144 9.76898 10.1394 10.367 10.1394C10.955 10.1394 11.351 9.69944 11.351 8.93944V8.33744H11.35ZM5.93699 8.57444L5.20299 6.14844H5.14999L4.41599 8.57444H5.93599H5.93699Z" fill="#929AA7"/>
<path d="M2 2C1.46957 2 0.960859 2.21071 0.585786 2.58579C0.210714 2.96086 0 3.46957 0 4L0 12C0 12.5304 0.210714 13.0391 0.585786 13.4142C0.960859 13.7893 1.46957 14 2 14H14C14.5304 14 15.0391 13.7893 15.4142 13.4142C15.7893 13.0391 16 12.5304 16 12V4C16 3.46957 15.7893 2.96086 15.4142 2.58579C15.0391 2.21071 14.5304 2 14 2H2ZM8.209 8.32C8.209 7.04 8.903 6.276 9.962 6.276C10.617 6.276 11.118 6.57 11.298 7.045H11.351V4.685H12.511V11H11.373V10.253H11.316C11.171 10.727 10.626 11.057 9.949 11.057C8.894 11.057 8.209 10.293 8.209 9.014V8.319V8.32ZM4.169 9.458L3.7 11H2.5L4.513 5.001H5.9L7.905 11H6.644L6.174 9.458H4.17H4.169Z" fill="#929AA7"/>
</g>
<defs>
<clipPath id="clip0_22826_9893">
<rect width="16" height="16" fill="white"/>
</clipPath>
</defs>
</svg>
