<svg width="21" height="21" viewBox="0 0 21 21" fill="none" xmlns="http://www.w3.org/2000/svg">
<g clip-path="url(#clip0_4713_53657)">
<path d="M2.36642 4.18394L5.03474 1.51562L5.68442 2.16531L3.01611 4.83363L2.36642 4.18394Z" fill="#ACB8BF"/>
<path d="M7.02878 4.85516L9.69742 2.1875L10.3471 2.83719L7.67847 5.50484L7.02878 4.85516Z" fill="#ACB8BF"/>
<path d="M16.1798 17.9997L18.8488 15.332L19.4985 15.982L16.8295 18.6497L16.1798 17.9997Z" fill="#ACB8BF"/>
<path d="M15.5134 13.3083L18.1824 10.6406L18.8321 11.2906L16.1628 13.9583L15.5134 13.3083Z" fill="#ACB8BF"/>
<path d="M18.5062 19.9175L16.9641 6.10348L14.8969 4.03629L1.08281 2.4941C0.426564 2.42848 0.557814 4.0691 1.3125 4.43004L11.7141 9.28629L16.5703 19.6879C16.9312 20.4425 18.5719 20.5738 18.5062 19.9175Z" fill="#42ADE2"/>
<path d="M20.1141 2.65824C20.8359 1.24731 19.7531 0.164495 18.3422 0.88637C16.5375 1.80512 13.8797 3.87231 11.1891 6.53012C6.98906 10.7301 4.29843 14.8973 5.18437 15.8161C6.07031 16.702 10.2703 14.0114 14.4703 9.81137C17.1281 7.15356 19.1953 4.46293 20.1141 2.65824Z" fill="#DAE3EA"/>
<path d="M7.34999 19.7529L6.82499 14.8966L6.10311 14.1748L1.24686 13.6498C1.01717 13.6169 1.04999 14.2076 1.31249 14.3388L4.95467 16.0451L6.66092 19.6873C6.79217 19.9498 7.3828 19.9826 7.34999 19.7529Z" fill="#42ADE2"/>
<path d="M6.62815 15.1582C5.15159 16.6347 3.80628 17.6519 3.6094 17.4222C3.41253 17.2253 4.42972 15.8472 5.87347 14.3707C7.35003 12.8941 8.69534 11.8769 8.92503 12.1066C9.08909 12.3035 8.0719 13.6816 6.62815 15.1582Z" fill="#ACB8BF"/>
<path d="M19.6219 3.18172C19.7859 2.59109 19.7203 2.03328 19.3594 1.63953C18.9984 1.27859 18.4078 1.18016 17.85 1.37703L16.7344 2.06609C17.2922 1.86922 18.1125 2.16453 18.4734 2.52547C18.8672 2.91922 19.1297 3.70672 18.9328 4.26453L19.6219 3.18172Z" fill="#3E4347"/>
<path d="M17.6085 3.18108L19.4637 1.32422L19.6727 1.53291L17.8172 3.39009L17.6085 3.18108Z" fill="#DAE3EA"/>
</g>
<defs>
<clipPath id="clip0_4713_53657">
<rect width="21" height="21" fill="white"/>
</clipPath>
</defs>
</svg>
