<svg width="21" height="16" viewBox="0 0 21 16" fill="none" xmlns="http://www.w3.org/2000/svg">
<path d="M2.33333 0C1.71449 0 1.121 0.245833 0.683417 0.683417C0.245833 1.121 0 1.71449 0 2.33333L0 12.8333C0 13.4522 0.245833 14.0457 0.683417 14.4832C1.121 14.9208 1.71449 15.1667 2.33333 15.1667H18.6667C19.2855 15.1667 19.879 14.9208 20.3166 14.4832C20.7542 14.0457 21 13.4522 21 12.8333V2.33333C21 2.33333 21 0 18.6667 0H2.33333Z" fill="#FFAC33"/>
<path d="M0 2.91699H21V5.83366H0V2.91699Z" fill="#292F33"/>
<path d="M2.33325 8.16699H18.6666V11.667H2.33325V8.16699Z" fill="#F4F7F9"/>
<path d="M11.0833 11.0833C10.0898 11.0833 9.71767 10.3775 9.643 10.0327C9.32392 10.0567 9.013 10.2095 8.59008 10.4784C8.14383 10.7619 7.63808 11.0833 6.99992 11.0833C6.30167 11.0833 5.87758 10.6896 5.83325 9.91667C5.8315 9.884 5.85542 9.807 5.8455 9.807C4.76167 9.807 3.97767 10.8342 3.97008 10.8447C3.92493 10.9066 3.868 10.959 3.80254 10.9988C3.73709 11.0387 3.66442 11.0652 3.58869 11.0768C3.51297 11.0885 3.43569 11.0851 3.36129 11.0667C3.28689 11.0484 3.21684 11.0156 3.15517 10.9702C3.09338 10.9249 3.04112 10.8678 3.00137 10.8023C2.96162 10.7368 2.93517 10.6641 2.92353 10.5884C2.91188 10.5127 2.91527 10.4354 2.93349 10.361C2.95172 10.2865 2.98443 10.2164 3.02975 10.1547C3.07467 10.0934 4.14742 8.75 5.83325 8.75C6.96317 8.75 7.02792 9.55208 7.04542 9.85133L7.0495 9.91492C7.333 9.89508 7.62758 9.70842 7.96533 9.49317C8.52592 9.13733 9.22125 8.69342 10.1528 8.932C10.6609 9.06208 10.7403 9.53342 10.7706 9.71133C10.7782 9.75567 10.7893 9.82217 10.7992 9.84317C10.8033 9.84317 10.8843 9.89625 11.1358 9.919C11.6141 9.96275 12.1397 9.75625 12.6962 9.53808C13.2725 9.31175 13.8687 9.07842 14.5109 9.07842C16.4878 9.07842 17.2917 10.0322 17.3768 10.1407C17.4258 10.2008 17.4623 10.2701 17.4842 10.3445C17.5061 10.419 17.5129 10.497 17.5042 10.5741C17.4956 10.6512 17.4716 10.7258 17.4338 10.7935C17.396 10.8612 17.345 10.9207 17.2839 10.9685C17.2228 11.0163 17.1528 11.0514 17.078 11.0718C17.0031 11.0922 16.925 11.0975 16.8481 11.0873C16.7712 11.0772 16.6971 11.0518 16.6301 11.0126C16.5631 10.9735 16.5047 10.9214 16.4581 10.8593C16.4441 10.8436 15.9156 10.2445 14.5115 10.2445C14.0898 10.2445 13.6202 10.4282 13.1226 10.6231C12.534 10.8541 11.7028 11.0833 11.0833 11.0833Z" fill="#8899A6"/>
</svg>
