<svg width="21" height="21" viewBox="0 0 21 21" fill="none" xmlns="http://www.w3.org/2000/svg">
<g clip-path="url(#clip0_15820_146773)">
<path d="M1.22588 5.41048L10.3533 0.858319C10.3956 0.837198 10.4423 0.826193 10.4896 0.826172C10.5369 0.826151 10.5836 0.837113 10.6259 0.858196L19.7716 5.41036C20.0606 5.55424 19.9582 5.9897 19.6354 5.9897H1.36229C1.03954 5.9897 0.937043 5.55453 1.22588 5.41048ZM19.8023 6.32747H1.19766C1.11933 6.32747 1.04422 6.35858 0.988839 6.41396C0.933457 6.46934 0.902344 6.54446 0.902344 6.62278V9.029C0.902344 9.10732 0.933457 9.18244 0.988839 9.23782C1.04422 9.2932 1.11933 9.32431 1.19766 9.32431H1.8252V18.3239C1.8252 18.6501 2.08962 18.9145 2.41582 18.9145H18.5842C18.9104 18.9145 19.1748 18.6501 19.1748 18.3239V9.32431H19.8023C19.8807 9.32431 19.9558 9.2932 20.0112 9.23782C20.0665 9.18244 20.0977 9.10732 20.0977 9.029V6.62278C20.0977 6.54446 20.0665 6.46934 20.0112 6.41396C19.9558 6.35858 19.8807 6.32747 19.8023 6.32747Z" fill="#DADBDC"/>
<path d="M5.70085 18.3239H3.8396V8.4082H5.70085V18.3239ZM17.1417 8.4082H15.2805V18.3239H17.1417V8.4082Z" fill="#767777"/>
<path d="M20.0825 5.56281L10.6498 0.867792C10.5999 0.842967 10.5449 0.830057 10.4892 0.830078C10.4335 0.8301 10.3786 0.843052 10.3287 0.867915L0.914912 5.56293C0.574851 5.73253 0.69556 6.24494 1.07557 6.24494H1.16703C1.22262 6.24494 1.27746 6.23206 1.32724 6.20733L10.3408 1.72736C10.3903 1.70272 10.4449 1.68984 10.5003 1.68974C10.5556 1.68963 10.6102 1.70229 10.6599 1.72674L19.7631 6.20795C19.8126 6.2323 19.867 6.24495 19.9221 6.24494C20.3022 6.24498 20.4228 5.7322 20.0825 5.56281Z" fill="#767777"/>
<path d="M20.3561 5.62402H0.643945C0.565624 5.62402 0.49051 5.65514 0.435128 5.71052C0.379746 5.7659 0.348633 5.84101 0.348633 5.91934V6.73592C0.348633 6.81424 0.379746 6.88935 0.435128 6.94473C0.49051 7.00011 0.565624 7.03123 0.643945 7.03123H20.3561C20.4344 7.03123 20.5095 7.00011 20.5649 6.94473C20.6203 6.88935 20.6514 6.81424 20.6514 6.73592V5.91934C20.6514 5.84101 20.6203 5.7659 20.5649 5.71052C20.5095 5.65514 20.4344 5.62402 20.3561 5.62402Z" fill="#999999"/>
<path d="M20.3561 8.37793H0.643945C0.565624 8.37793 0.49051 8.40904 0.435128 8.46443C0.379746 8.51981 0.348633 8.59492 0.348633 8.67324V9.48982C0.348633 9.56814 0.379746 9.64326 0.435128 9.69864C0.49051 9.75402 0.565624 9.78514 0.643945 9.78514H7.35201V18.3236H1.71659C1.52283 18.3236 1.34334 18.4255 1.24404 18.5919L0.496535 19.8448C0.277676 20.2116 0.541981 20.677 0.969076 20.677H20.0309C20.458 20.677 20.7223 20.2116 20.5035 19.8448L19.756 18.5919C19.7071 18.5101 19.6379 18.4424 19.5551 18.3954C19.4723 18.3483 19.3787 18.3236 19.2834 18.3236H13.6294V9.78514H20.3561C20.4344 9.78514 20.5095 9.75402 20.5649 9.69864C20.6203 9.64326 20.6514 9.56814 20.6514 9.48982V8.67324C20.6514 8.59492 20.6203 8.51981 20.5649 8.46443C20.5095 8.40904 20.4344 8.37793 20.3561 8.37793Z" fill="#999999"/>
<path d="M7.35132 18.3285L13.6267 18.3203L13.6287 19.8527L7.35333 19.8608L7.35132 18.3285Z" fill="#C8CACB"/>
<path d="M14.5513 20.6772H6.43018V19.8295C6.43018 19.7512 6.46129 19.6761 6.51667 19.6207C6.57205 19.5653 6.64717 19.5342 6.72549 19.5342H14.256C14.3343 19.5342 14.4094 19.5653 14.4648 19.6207C14.5202 19.6761 14.5513 19.7512 14.5513 19.8295V20.6772Z" fill="#EBECED"/>
<path d="M12.697 18.3234H8.28442V14.291C8.28442 12.9362 9.2722 11.8379 10.4907 11.8379C11.7092 11.8379 12.6971 12.9362 12.6971 14.291V18.3234H12.697Z" fill="#2B3B47"/>
</g>
<defs>
<clipPath id="clip0_15820_146773">
<rect width="21" height="21" fill="white"/>
</clipPath>
</defs>
</svg>
