<svg width="17" height="17" viewBox="0 0 17 17" fill="none" xmlns="http://www.w3.org/2000/svg">
<path fill-rule="evenodd" clip-rule="evenodd" d="M3.33105 15.2734C3.19845 15.2734 3.07127 15.2208 2.9775 15.127C2.88373 15.0332 2.83105 14.906 2.83105 14.7734C2.83105 14.6408 2.88373 14.5137 2.9775 14.4199C3.07127 14.3261 3.19845 14.2734 3.33105 14.2734H4.33105V13.2734C4.33085 12.4244 4.57084 11.5926 5.0233 10.8742C5.47577 10.1558 6.12225 9.58003 6.88805 9.21344C7.17805 9.07444 7.33105 8.83644 7.33105 8.62344V7.92344C7.33105 7.71044 7.17705 7.47244 6.88805 7.33344C6.12225 6.96684 5.47577 6.39108 5.0233 5.67266C4.57084 4.95424 4.33085 4.12247 4.33105 3.27344V2.27344H3.33105C3.19845 2.27344 3.07127 2.22076 2.9775 2.12699C2.88373 2.03322 2.83105 1.90605 2.83105 1.77344C2.83105 1.64083 2.88373 1.51365 2.9775 1.41988C3.07127 1.32612 3.19845 1.27344 3.33105 1.27344H14.3311C14.4637 1.27344 14.5908 1.32612 14.6846 1.41988C14.7784 1.51365 14.8311 1.64083 14.8311 1.77344C14.8311 1.90605 14.7784 2.03322 14.6846 2.12699C14.5908 2.22076 14.4637 2.27344 14.3311 2.27344H13.3311V3.27344C13.3313 4.12247 13.0913 4.95424 12.6388 5.67266C12.1863 6.39108 11.5399 6.96684 10.7741 7.33344C10.4841 7.47244 10.3311 7.71044 10.3311 7.92344V8.62344C10.3311 8.83644 10.4851 9.07444 10.7741 9.21344C11.5399 9.58003 12.1863 10.1558 12.6388 10.8742C13.0913 11.5926 13.3313 12.4244 13.3311 13.2734V14.2734H14.3311C14.4637 14.2734 14.5908 14.3261 14.6846 14.4199C14.7784 14.5137 14.8311 14.6408 14.8311 14.7734C14.8311 14.906 14.7784 15.0332 14.6846 15.127C14.5908 15.2208 14.4637 15.2734 14.3311 15.2734H3.33105ZM5.33105 2.27344V3.27344C5.33105 3.81044 5.45105 4.31844 5.66805 4.77344H11.9941C12.2101 4.31844 12.3311 3.81044 12.3311 3.27344V2.27344H5.33105ZM8.33105 8.62344C8.33105 9.32444 7.85305 9.85944 7.32005 10.1154C6.72435 10.4005 6.22147 10.8484 5.86951 11.4072C5.51755 11.966 5.33087 12.613 5.33105 13.2734C5.33105 13.2734 6.19705 11.9744 8.33105 11.7934V8.62344ZM9.33105 8.62344C9.33105 9.32444 9.80905 9.85944 10.3421 10.1154C10.9378 10.4005 11.4406 10.8484 11.7926 11.4072C12.1446 11.966 12.3312 12.613 12.3311 13.2734C12.3311 13.2734 11.4651 11.9744 9.33105 11.7934V8.62344Z" fill="#FFB211"/>
</svg>
