<svg width="26" height="26" viewBox="0 0 26 26" fill="none" xmlns="http://www.w3.org/2000/svg">
<path d="M25.6111 16.1438C23.8742 23.1118 16.8145 27.3475 9.85643 25.6105C2.88822 23.8736 -1.34755 16.8142 0.389479 9.85623C2.1264 2.88822 9.17586 -1.34755 16.1441 0.389479C23.1021 2.11625 27.3481 9.17566 25.6111 16.1438Z" fill="url(#paint0_linear_15820_147030)"/>
<path d="M19.1898 11.3793C19.4437 9.65274 18.1335 8.71836 16.3257 8.09883L16.9148 5.75273L15.4929 5.39727L14.9241 7.68242C14.5483 7.59102 14.1624 7.49961 13.7765 7.41836L14.3452 5.12305L12.9233 4.76758L12.3444 7.10352C12.0296 7.03242 11.7249 6.96133 11.4304 6.89024V6.88008L9.46006 6.39258L9.08428 7.91602C9.08428 7.91602 10.1405 8.15977 10.1202 8.16992C10.6991 8.31211 10.8007 8.69805 10.7804 9.00274L10.1101 11.6738C10.1507 11.684 10.2015 11.6941 10.2624 11.7246C10.2116 11.7145 10.1608 11.7043 10.1101 11.684L9.17568 15.4215C9.10459 15.5941 8.92178 15.8582 8.52568 15.7566C8.53584 15.777 7.48975 15.5027 7.48975 15.5027L6.77881 17.1379L8.6374 17.6051C8.98272 17.6965 9.31787 17.7777 9.65303 17.8691L9.06397 20.2356L10.4858 20.591L11.0749 18.2449C11.4608 18.3465 11.8468 18.4481 12.2124 18.5395L11.6335 20.8754L13.0554 21.2309L13.6444 18.8645C16.0819 19.3215 17.9101 19.1387 18.6718 16.9348C19.2913 15.1676 18.6413 14.1418 17.3616 13.4715C18.3062 13.2582 19.0069 12.6387 19.1898 11.3793ZM15.9296 15.9496C15.4929 17.7168 12.5069 16.7621 11.5421 16.5184L12.3241 13.3801C13.289 13.6238 16.3968 14.1012 15.9296 15.9496ZM16.3765 11.3488C15.9702 12.9637 13.4921 12.141 12.6897 11.9379L13.4007 9.09414C14.203 9.29727 16.7929 9.67305 16.3765 11.3488Z" fill="white"/>
<defs>
<linearGradient id="paint0_linear_15820_147030" x1="12.993" y1="-0.00624" x2="12.993" y2="25.9974" gradientUnits="userSpaceOnUse">
<stop stop-color="#F9AA4B"/>
<stop offset="1" stop-color="#F7931A"/>
</linearGradient>
</defs>
</svg>
