<svg width="20" height="20" viewBox="0 0 20 20" fill="none" xmlns="http://www.w3.org/2000/svg">
<g clip-path="url(#clip0_4713_53727)">
<path d="M17.1875 10.9688L19.5313 13.2813L9.12502 18.25C9.12502 18.25 7.75002 18.875 7.09377 17.875C4.53127 13.875 17.1875 10.9688 17.1875 10.9688Z" fill="#256382"/>
<path d="M8.87499 15.3438C8.87499 15.3438 6.87499 16.0312 7.24999 17.375C7.62499 18.75 9.21874 17.9062 9.21874 17.9062L19.0937 13.3125C19.0937 13.3125 18.5312 11.8438 19.5312 10.875L8.87499 15.3438Z" fill="#D9E3E8"/>
<path d="M10.5313 1.5625L20 10.7812L8.81253 15.1562L1.62503 3.96875L10.5313 1.5625Z" fill="#42ADE2"/>
<path d="M10.8125 3.65625L12.625 5.59375L5.84375 8.03125L4.25 5.5625L10.8125 3.65625Z" fill="white"/>
<path d="M19.0626 11.875L12.4688 14.5625L18.9688 11.5938L19.0626 11.875Z" fill="#94989B"/>
<path d="M18.9688 12.6875L11.9375 15.5938L18.8438 12.375L18.9688 12.6875Z" fill="#94989B"/>
<path d="M19.0313 13.125L10.0625 17.0312L18.9063 12.8438L19.0313 13.125Z" fill="#94989B"/>
<path d="M7.09375 17.875C6 15.5938 8.8125 15.1875 8.8125 15.1875L1.625 3.96879C1.625 3.96879 0 3.93754 0 5.62504C0 6.31254 0.3125 6.84379 0.3125 6.84379L7.09375 17.875Z" fill="#428BC1"/>
</g>
<defs>
<clipPath id="clip0_4713_53727">
<rect width="20" height="20" fill="white"/>
</clipPath>
</defs>
</svg>
