<svg width="30" height="33" viewBox="0 0 30 33" fill="none" xmlns="http://www.w3.org/2000/svg">
<path d="M28.9644 27.5701C29.6035 28.2092 29.923 28.9548 29.923 29.8069C29.923 30.6165 29.6248 31.3195 29.0283 31.916C28.4744 32.4699 27.7927 32.7468 26.9832 32.7468C26.1737 32.7468 25.4281 32.3846 24.7463 31.6603L14.9681 20.6678L5.25385 31.6603C4.57214 32.3846 3.82653 32.7468 3.017 32.7468C2.20748 32.7468 1.50447 32.4486 0.907977 31.8521C0.354091 31.2556 0.0771484 30.5526 0.0771484 29.743C0.0771484 28.9335 0.375394 28.2092 0.971886 27.5701L11.0696 16.4498L1.48317 5.77685C0.844067 5.05254 0.524517 4.32823 0.524517 3.60391C0.524517 2.79439 0.822763 2.11268 1.41926 1.5588C2.01575 0.962308 2.69745 0.664062 3.46437 0.664062C4.27389 0.664062 5.01951 1.02622 5.70122 1.75053L14.9681 12.2317L24.2351 1.75053C24.9168 1.02622 25.6837 0.664062 26.5358 0.664062C27.3027 0.664062 27.9844 0.962308 28.5809 1.5588C29.1774 2.11268 29.4757 2.79439 29.4757 3.60391C29.4757 4.41344 29.1561 5.13775 28.517 5.77685L18.9306 16.4498L28.9644 27.5701Z" fill="#FF4B3E"/>
</svg>
