<svg width="32" height="28" viewBox="0 0 32 28" fill="none" xmlns="http://www.w3.org/2000/svg">
<path d="M23.9999 22.0313V23.7813C23.9999 24.4813 24.55 25.0313 25.2249 25.0313H27.2499V22.0312H23.9999V22.0313ZM4.75 25.0313H6.77503C7.45003 25.0313 7.99999 24.4813 7.99999 23.7814V22.0314H4.75C4.75 22.0314 4.75 25.0313 4.75 25.0313Z" fill="#1E2E37"/>
<path d="M26.2499 22.0313V26.1063C26.2499 27.0312 26.9999 27.7813 27.8999 27.7813H28.8249C29.7499 27.7813 30.4749 27.0313 30.4749 26.1063V21.5312L26.2499 22.0313ZM1.5 26.1063C1.5 27.0312 2.24997 27.7813 3.15001 27.7813H4.07499C4.99996 27.7813 5.72499 27.0313 5.72499 26.1063V22.0313L1.5 21.5312V26.1063Z" fill="#324D5B"/>
<path d="M15.9 0.28125H15.975C24.45 0.28125 26.5 3.90626 26.5 10.7812H5.5C5.5 3.90626 7.57498 0.28125 15.9 0.28125Z" fill="#5E7398"/>
<path d="M15.925 1.53125H16C23.45 1.53125 25.25 4.73122 25.25 10.7812H6.75C6.75 4.73129 8.57501 1.53125 15.925 1.53125Z" fill="#85C6DC"/>
<path d="M16 19.2812C21.1 19.2812 25.25 20.2312 25.25 21.4063C25.25 22.5813 21.1 23.5313 16 23.5313C10.9 23.5313 6.75 22.5813 6.75 21.4063C6.74994 20.2312 10.9 19.2812 16 19.2812Z" fill="#434E63"/>
<path d="M5.60002 11.5313L16.025 10.0312L26.4 11.5313C29.5 11.5313 32 14.0562 32 17.2062V18.4312C32 19.3312 31.6 20.0562 30.4 20.0562H1.59999C0.424975 20.0313 0 19.3062 0 18.4063V17.1813C0 14.0562 2.50002 11.5313 5.60002 11.5313Z" fill="#5E7398"/>
<path d="M1.27498 19.7812H30.6999C31.1249 19.7812 31.4749 20.1062 31.4749 20.5312C31.4749 21.3562 30.7749 22.0312 29.8999 22.0312H2.07498C1.19995 22.0312 0.5 21.3562 0.5 20.5312C0.5 20.1062 0.850009 19.7812 1.27498 19.7812Z" fill="#E4E7E7"/>
<path d="M26.8249 10.7572C26.8249 10.7572 23.9249 11.9072 22.3999 16.9822C22.3999 16.9822 21.5499 19.7822 19.5999 19.7822H12.3999C10.4499 19.7822 9.59992 16.9822 9.59992 16.9822C8.07489 11.9072 5.19992 10.8072 5.19992 10.8072C4.19991 10.4072 5.19992 9.80718 5.19992 9.80718C9.24991 7.50717 15.9999 7.78215 15.9999 7.78215C15.9999 7.78215 22.7249 7.48216 26.8249 9.80718C26.8249 9.80718 27.7499 10.3321 26.8249 10.7572Z" fill="#6E85AE"/>
<path d="M10.7 16.6313C10.825 17.0313 11.475 18.5313 12.3 18.5313H14.5V9.03125C10.6999 9.03125 8.225 9.73127 6.75 10.3813C7.9 11.2563 9.62504 13.0812 10.7 16.6313ZM17.5 9.03125V18.5313H19.475C20.325 18.5313 20.95 17.0313 21.075 16.6313C22.125 13.1313 23.825 11.2813 24.975 10.3813C23.55 9.73127 21.15 9.05626 17.5 9.03125Z" fill="#5E7398"/>
<path d="M15.5 7.78125H16.5V19.7812H15.5V7.78125Z" fill="#6E85AE"/>
<path d="M4.49999 13.7812C3.25001 13.7812 2.25 14.7813 2.25 16.0312C2.25 17.2812 3.25001 18.2812 4.49999 18.2812C5.74996 18.2812 6.74997 17.2812 6.74997 16.0312C6.74997 14.7813 5.75003 13.7812 4.49999 13.7812ZM27.5 13.7812C26.25 13.7812 25.25 14.7813 25.25 16.0312C25.25 17.2812 26.25 18.2812 27.5 18.2812C28.75 18.2812 29.75 17.2812 29.75 16.0312C29.75 14.7813 28.75 13.7812 27.5 13.7812Z" fill="#E0E3E4"/>
<path d="M4.49997 15.2812C4.075 15.2812 3.75 15.6062 3.75 16.0312C3.75 16.4562 4.075 16.7812 4.49997 16.7812C4.92495 16.7812 5.24995 16.4562 5.24995 16.0312C5.24995 15.6062 4.9 15.2812 4.49997 15.2812ZM27.5 15.2812C27.075 15.2812 26.75 15.6062 26.75 16.0312C26.75 16.4562 27.075 16.7812 27.5 16.7812C27.9249 16.7812 28.2499 16.4562 28.2499 16.0312C28.2499 15.6062 27.9249 15.2812 27.5 15.2812Z" fill="#C0C8CB"/>
<path d="M27.0749 10.2812H26.6249C26.1249 10.2812 25.725 10.6563 25.725 11.1563V11.5812C25.725 11.8312 26.225 12.0062 26.8249 12.0062C27.4499 12.0062 27.9249 11.8062 27.9249 11.5812V11.1563C27.9749 10.6812 27.5749 10.2812 27.0749 10.2812ZM5.32495 10.2812H4.87497C4.37496 10.2812 3.975 10.6563 3.975 11.1563V11.5812C3.975 11.8312 4.475 12.0062 5.07498 12.0062C5.67496 12.0062 6.17497 11.8062 6.17497 11.5812V11.1563C6.22498 10.6812 5.82496 10.2812 5.32495 10.2812Z" fill="#F4B459"/>
<path d="M7.45 5.80626C8.69998 5.18127 12.325 3.58128 15.95 3.58128C19.6 3.58128 23.275 5.18127 24.525 5.80626C23.4749 2.98124 21.025 1.53125 16 1.53125H15.9249C10.975 1.53125 8.52503 2.98131 7.45 5.80626Z" fill="#92D2E8"/>
<path d="M27.5 14.2813C28.475 14.2813 29.25 15.0562 29.25 16.0312C29.25 17.0062 28.475 17.7812 27.5 17.7812C26.525 17.7812 25.75 17.0062 25.75 16.0312C25.75 15.0563 26.525 14.2813 27.5 14.2813ZM4.49999 14.2813C5.47498 14.2813 6.24997 15.0562 6.24997 16.0312C6.24997 17.0062 5.47498 17.7812 4.49999 17.7812C3.52499 17.7812 2.75 17.0062 2.75 16.0312C2.75 15.0563 3.52499 14.2813 4.49999 14.2813ZM27.5 13.7812C26.25 13.7812 25.25 14.7813 25.25 16.0312C25.25 17.2812 26.25 18.2812 27.5 18.2812C28.75 18.2812 29.75 17.2812 29.75 16.0312C29.75 14.7813 28.75 13.7812 27.5 13.7812ZM4.49999 13.7812C3.25001 13.7812 2.25 14.7813 2.25 16.0312C2.25 17.2812 3.25001 18.2812 4.49999 18.2812C5.74996 18.2812 6.74997 17.2812 6.74997 16.0312C6.74997 14.7813 5.75003 13.7812 4.49999 13.7812Z" fill="#CCD0D2"/>
</svg>
