<svg width="17" height="17" viewBox="0 0 17 17" fill="none" xmlns="http://www.w3.org/2000/svg">
<path d="M15.3 0H1.7C1.25061 0.002247 0.820385 0.182345 0.50341 0.500914C0.186434 0.819482 0.00849437 1.2506 0.00849999 1.7L0 17L3.4 13.6H15.3C15.7505 13.5987 16.1821 13.4191 16.5006 13.1006C16.8191 12.7821 16.9987 12.3505 17 11.9V1.7C16.9987 1.24955 16.8191 0.817925 16.5006 0.499405C16.1821 0.180884 15.7505 0.00134532 15.3 0ZM3.4 5.95H13.6V7.65H3.4V5.95ZM10.2 10.2H3.4V8.5H10.2V10.2ZM13.6 5.1H3.4V3.4H13.6V5.1Z" fill="#274B89"/>
</svg>
