<svg width="5" height="5" viewBox="0 0 5 5" fill="none" xmlns="http://www.w3.org/2000/svg">
<g clip-path="url(#clip0_24543_4191)">
<path d="M2.5 4.99957C3.804 4.99957 4.86111 3.94246 4.86111 2.63845C4.86111 1.33445 3.804 0.277344 2.5 0.277344C1.19599 0.277344 0.138885 1.33445 0.138885 2.63845C0.138885 3.94246 1.19599 4.99957 2.5 4.99957Z" fill="#F40C0C"/>
<path d="M2.5 4.72222C3.804 4.72222 4.86111 3.66512 4.86111 2.36111C4.86111 1.05711 3.804 0 2.5 0C1.19599 0 0.138885 1.05711 0.138885 2.36111C0.138885 3.66512 1.19599 4.72222 2.5 4.72222Z" fill="#FF6D4D"/>
<path d="M2.50002 4.44358C3.5739 4.44358 4.44446 3.57302 4.44446 2.49913C4.44446 1.42524 3.5739 0.554688 2.50002 0.554688C1.42613 0.554688 0.555573 1.42524 0.555573 2.49913C0.555573 3.57302 1.42613 4.44358 2.50002 4.44358Z" fill="#FFB6B6"/>
<path d="M2.50002 4.3049C3.5739 4.3049 4.44446 3.43435 4.44446 2.36046C4.44446 1.28657 3.5739 0.416016 2.50002 0.416016C1.42613 0.416016 0.555573 1.28657 0.555573 2.36046C0.555573 3.43435 1.42613 4.3049 2.50002 4.3049Z" fill="#FF3333"/>
<path d="M2.38094 3.0513C2.90692 3.0513 3.33332 2.74119 3.33332 2.35866C3.33332 1.97612 2.90692 1.66602 2.38094 1.66602C1.85495 1.66602 1.42856 1.97612 1.42856 2.35866C1.42856 2.74119 1.85495 3.0513 2.38094 3.0513Z" fill="#FF725F"/>
</g>
<defs>
<clipPath id="clip0_24543_4191">
<rect width="5" height="5" fill="white"/>
</clipPath>
</defs>
</svg>
