<svg width="22" height="22" viewBox="0 0 22 22" fill="none" xmlns="http://www.w3.org/2000/svg">
<g clip-path="url(#clip0_4713_53645)">
<path d="M16.2659 15.2808L1.93861 21.5149C1.00468 21.8866 0.0765555 20.9665 0.440114 20.0294L6.70105 5.47656" fill="#FFB636"/>
<path d="M0.440165 20.0293L0.937743 18.8727C0.980411 18.8077 1.02295 18.7425 1.06566 18.6775C3.54053 14.9073 6.05167 11.1601 8.64857 7.47266L11.5603 10.4573C9.36336 11.9656 2.22968 19.3376 0.735447 21.293C0.410173 20.9938 0.252091 20.5141 0.440165 20.0293Z" fill="#FFD469"/>
<path d="M13.0789 8.78556C15.7367 11.4434 17.1904 14.2988 16.3258 15.1634C15.4612 16.028 12.6058 14.5743 9.94796 11.9165C7.29013 9.25873 5.83649 6.40329 6.70107 5.53867C7.56564 4.67405 10.4211 6.12773 13.0789 8.78556Z" fill="#A06C33"/>
<path d="M6.68598 14.0771C6.68598 14.3354 6.47655 14.5448 6.21826 14.5448C5.95998 14.5448 5.75055 14.3354 5.75055 14.0771C5.75055 13.8188 5.95994 13.6094 6.21826 13.6094C6.47659 13.6094 6.68598 13.8188 6.68598 14.0771Z" fill="#F7F9AA"/>
<path d="M21.5697 9.15954C21.5697 9.53027 21.2692 9.8308 20.8985 9.8308C20.5277 9.8308 20.2272 9.53027 20.2272 9.15954C20.2272 8.78881 20.5277 8.48828 20.8985 8.48828C21.2692 8.48828 21.5697 8.78881 21.5697 9.15954ZM17.0871 18.098C16.7164 18.098 16.4158 18.3985 16.4158 18.7692C16.4158 19.14 16.7164 19.4405 17.0871 19.4405C17.4578 19.4405 17.7584 19.14 17.7584 18.7692C17.7584 18.3985 17.4578 18.098 17.0871 18.098Z" fill="#FFB636"/>
<path d="M15.2947 3.41866C15.2371 3.80817 14.9854 4.15222 14.6042 4.3626C14.341 4.50783 14.0314 4.58333 13.7101 4.58333C13.6078 4.58328 13.5056 4.57572 13.4043 4.56072C13.1771 4.52712 12.9497 4.56141 12.7804 4.65478C12.7045 4.69664 12.5742 4.7882 12.553 4.93142C12.5318 5.07463 12.6302 5.20001 12.6906 5.26202C12.822 5.39672 13.0225 5.49323 13.2427 5.52928C13.2488 5.52993 13.2548 5.53014 13.2608 5.53105C14.1898 5.66837 14.8533 6.40417 14.7399 7.17129C14.6823 7.56085 14.4306 7.9049 14.0493 8.11527C13.7861 8.26051 13.4766 8.336 13.1553 8.336C13.053 8.33596 12.9508 8.3284 12.8495 8.3134C12.6223 8.27976 12.3948 8.31405 12.2256 8.40746C12.1497 8.44931 12.0193 8.54088 11.9981 8.68409C11.9642 8.91393 12.2464 9.21738 12.7058 9.28527C12.9558 9.32222 13.1285 9.55481 13.0915 9.8048C13.0579 10.0321 12.8626 10.1955 12.6395 10.1955C12.6172 10.1955 12.5947 10.1938 12.572 10.1905C11.643 10.0532 10.9795 9.31732 11.0929 8.55025C11.1505 8.16069 11.4022 7.81664 11.7835 7.60626C12.1296 7.41531 12.5557 7.34493 12.9834 7.40814C13.2106 7.44169 13.438 7.40745 13.6073 7.31408C13.6831 7.27223 13.8135 7.18066 13.8347 7.03744C13.8681 6.81134 13.5951 6.51447 13.1488 6.44026C13.1415 6.43953 13.1341 6.43893 13.1268 6.43786C12.6992 6.37461 12.3116 6.184 12.0356 5.90105C11.7315 5.58935 11.5901 5.18717 11.6478 4.79757C11.7053 4.40806 11.957 4.06401 12.3383 3.85363C12.6844 3.66268 13.1105 3.5923 13.5381 3.6555C13.7653 3.68902 13.9928 3.65481 14.162 3.56144C14.2379 3.51959 14.3683 3.42803 14.3895 3.28481C14.4106 3.1416 14.3123 3.01621 14.2518 2.95421C14.1168 2.81585 13.9091 2.71719 13.6818 2.68363C13.4318 2.64668 13.2591 2.41409 13.2961 2.1641C13.333 1.91411 13.5657 1.74163 13.8156 1.77837C14.2432 1.84162 14.6308 2.03223 14.9068 2.31518C15.2109 2.62692 15.3523 3.0291 15.2947 3.41866Z" fill="#BEA4FF"/>
<path d="M3.51189 6.86322C3.51189 7.28332 3.17132 7.62389 2.75122 7.62389C2.33111 7.62389 1.99054 7.28332 1.99054 6.86322C1.99054 6.44311 2.33111 6.10254 2.75122 6.10254C3.17132 6.10254 3.51189 6.44307 3.51189 6.86322ZM17.1091 5.98438C16.6238 5.98438 16.2303 6.37784 16.2303 6.86317C16.2303 7.34851 16.6238 7.74197 17.1091 7.74197C17.5945 7.74197 17.9879 7.34851 17.9879 6.86317C17.9879 6.37784 17.5945 5.98438 17.1091 5.98438ZM9.26102 17.0129C8.77565 17.0129 8.38223 17.4063 8.38223 17.8917C8.38223 18.377 8.77569 18.7705 9.26102 18.7705C9.7464 18.7705 10.1398 18.377 10.1398 17.8917C10.1398 17.4063 9.7464 17.0129 9.26102 17.0129ZM20.9186 12.989C21.0515 12.7317 20.9506 12.4153 20.6932 12.2824C20.5906 12.2295 20.4682 12.1592 20.3264 12.0778C19.0806 11.3631 16.4885 9.87601 13.4363 12.3403C13.2109 12.5222 13.1757 12.8525 13.3577 13.0778C13.5395 13.3032 13.8697 13.3384 14.0951 13.1564C16.5888 11.143 18.6018 12.2976 19.8044 12.9876C19.9507 13.0715 20.0888 13.1507 20.2119 13.2143C20.2731 13.2459 20.3399 13.2652 20.4085 13.2709C20.4772 13.2767 20.5463 13.2689 20.6119 13.248C20.6775 13.2271 20.7384 13.1935 20.791 13.149C20.8436 13.1046 20.887 13.0502 20.9186 12.989Z" fill="#FF6E83"/>
<path d="M18.6843 2.69912C18.6843 2.95745 18.4748 3.16684 18.2166 3.16684C17.9582 3.16684 17.7488 2.95745 17.7488 2.69912C17.7488 2.44079 17.9582 2.23141 18.2166 2.23141C18.4749 2.23136 18.6843 2.44079 18.6843 2.69912ZM1.99048 0.512786C1.73215 0.512786 1.52277 0.722172 1.52277 0.9805C1.52277 1.23883 1.73215 1.44822 1.99048 1.44822C2.24881 1.44822 2.45824 1.23883 2.45824 0.9805C2.45824 0.722172 2.24881 0.512786 1.99048 0.512786ZM9.32443 6.6168C9.37733 6.51307 9.44255 6.39495 9.5116 6.26991C9.86197 5.63522 10.3418 4.76605 10.3706 3.7537C10.4053 2.53752 9.77191 1.43331 8.48809 0.47175C8.26521 0.304817 7.9493 0.350235 7.7825 0.573028C7.61561 0.795864 7.66094 1.11177 7.88378 1.27862C8.90428 2.04295 9.38811 2.84315 9.36298 3.72496C9.34106 4.4929 8.94631 5.20807 8.62907 5.78269C8.55598 5.91516 8.48689 6.04024 8.42656 6.15854C8.30001 6.40651 8.39846 6.71008 8.64639 6.83663C8.71717 6.8729 8.79557 6.89182 8.87511 6.89184C8.96808 6.8919 9.05927 6.86624 9.13857 6.8177C9.21786 6.76916 9.28219 6.69963 9.32443 6.6168Z" fill="#59CAFC"/>
</g>
<defs>
<clipPath id="clip0_4713_53645">
<rect width="22" height="22" fill="white"/>
</clipPath>
</defs>
</svg>
