<svg width="16" height="17" viewBox="0 0 16 17" fill="none" xmlns="http://www.w3.org/2000/svg">
<path d="M1.58654 2.86688V11.6875C1.58638 12.5602 1.96926 13.4004 2.65752 14.0374C3.34577 14.6745 4.28786 15.0609 5.29269 15.1181L5.55289 15.125H12.5559C12.3918 15.5271 12.088 15.8752 11.6863 16.1214C11.2845 16.3677 10.8046 16.4999 10.3125 16.5H4.75962C3.49729 16.5 2.28666 16.0654 1.39406 15.2918C0.501459 14.5182 3.27202e-07 13.469 3.27202e-07 12.375V4.8125C-0.000257781 4.3858 0.152193 3.96954 0.436343 3.62108C0.720493 3.27261 1.12235 3.00911 1.58654 2.86688ZM13.4856 0C14.1167 0 14.7221 0.217299 15.1684 0.604092C15.6147 0.990886 15.8654 1.51549 15.8654 2.0625V11.6875C15.8654 12.2345 15.6147 12.7591 15.1684 13.1459C14.7221 13.5327 14.1167 13.75 13.4856 13.75H5.55289C4.92172 13.75 4.31641 13.5327 3.87011 13.1459C3.42381 12.7591 3.17308 12.2345 3.17308 11.6875V2.0625C3.17308 1.51549 3.42381 0.990886 3.87011 0.604092C4.31641 0.217299 4.92172 0 5.55289 0H13.4856ZM13.4856 1.375H5.55289C5.3425 1.375 5.14073 1.44743 4.99196 1.57636C4.84319 1.7053 4.75962 1.88016 4.75962 2.0625V11.6875C4.75962 11.8698 4.84319 12.0447 4.99196 12.1736C5.14073 12.3026 5.3425 12.375 5.55289 12.375H13.4856C13.696 12.375 13.8977 12.3026 14.0465 12.1736C14.1953 12.0447 14.2788 11.8698 14.2788 11.6875V2.0625C14.2788 1.88016 14.1953 1.7053 14.0465 1.57636C13.8977 1.44743 13.696 1.375 13.4856 1.375Z" fill="#274B89"/>
</svg>
