<svg width="21" height="16" viewBox="0 0 21 16" fill="none" xmlns="http://www.w3.org/2000/svg">
<path d="M2.33333 0C1.71449 0 1.121 0.245833 0.683417 0.683417C0.245833 1.121 0 1.71449 0 2.33333L0 12.8333C0 13.4522 0.245833 14.0457 0.683417 14.4832C1.121 14.9208 1.71449 15.1667 2.33333 15.1667H18.6667C19.2855 15.1667 19.879 14.9208 20.3166 14.4832C20.7542 14.0457 21 13.4522 21 12.8333V2.33333C21 2.33333 21 0 18.6667 0H2.33333Z" fill="#E233FF"/>
<path d="M0 2.9165H21V5.83317H0V2.9165Z" fill="#292F33"/>
<path d="M2.33301 8.1665H18.6663V11.6665H2.33301V8.1665Z" fill="#F4F7F9"/>
<path d="M11.0835 11.0833C10.0901 11.0833 9.71791 10.3775 9.64325 10.0327C9.32416 10.0567 9.01325 10.2095 8.59033 10.4784C8.14408 10.7619 7.63833 11.0833 7.00016 11.0833C6.30191 11.0833 5.87783 10.6896 5.8335 9.91667C5.83175 9.884 5.85566 9.807 5.84575 9.807C4.76191 9.807 3.97791 10.8342 3.97033 10.8447C3.92518 10.9066 3.86824 10.959 3.80279 10.9988C3.73734 11.0387 3.66466 11.0652 3.58894 11.0768C3.51321 11.0885 3.43593 11.0851 3.36153 11.0667C3.28713 11.0484 3.21709 11.0156 3.15541 10.9702C3.09362 10.9249 3.04136 10.8678 3.00161 10.8023C2.96187 10.7368 2.93542 10.6641 2.92377 10.5884C2.91212 10.5127 2.91551 10.4354 2.93374 10.361C2.95196 10.2865 2.98467 10.2164 3.03 10.1547C3.07491 10.0934 4.14766 8.75 5.8335 8.75C6.96341 8.75 7.02816 9.55208 7.04566 9.85133L7.04975 9.91492C7.33325 9.89508 7.62783 9.70842 7.96558 9.49317C8.52616 9.13733 9.2215 8.69342 10.1531 8.932C10.6612 9.06208 10.7405 9.53342 10.7708 9.71133C10.7784 9.75567 10.7895 9.82217 10.7994 9.84317C10.8035 9.84317 10.8846 9.89625 11.136 9.919C11.6143 9.96275 12.1399 9.75625 12.6964 9.53808C13.2727 9.31175 13.8689 9.07842 14.5112 9.07842C16.4881 9.07842 17.2919 10.0322 17.3771 10.1407C17.4261 10.2008 17.4626 10.2701 17.4844 10.3445C17.5063 10.419 17.5131 10.497 17.5045 10.5741C17.4958 10.6512 17.4719 10.7258 17.4341 10.7935C17.3962 10.8612 17.3453 10.9207 17.2842 10.9685C17.2231 11.0163 17.1531 11.0514 17.0782 11.0718C17.0034 11.0922 16.9252 11.0975 16.8483 11.0873C16.7714 11.0772 16.6973 11.0518 16.6304 11.0126C16.5634 10.9735 16.5049 10.9214 16.4583 10.8593C16.4443 10.8436 15.9158 10.2445 14.5117 10.2445C14.09 10.2445 13.6204 10.4282 13.1228 10.6231C12.5342 10.8541 11.703 11.0833 11.0835 11.0833Z" fill="#8899A6"/>
</svg>
