<svg width="20" height="20" viewBox="0 0 20 20" fill="none" xmlns="http://www.w3.org/2000/svg">
<path d="M4.36 5.16016L4.9 7.46016L4.36 9.75016L6.37 10.9902L7.6 13.0002L9.9 12.4602L12.2 13.0002L13.43 10.9902L15.44 9.75016L14.9 7.46016L15.44 5.16016L13.44 3.92016L12.2 1.91016L9.9 2.46016L7.61 1.92016L6.36 3.92016L4.36 5.16016ZM9.91 11.5002C8.84913 11.5002 7.83172 11.0787 7.08157 10.3286C6.33143 9.57844 5.91 8.56102 5.91 7.50016C5.91 6.43929 6.33143 5.42187 7.08157 4.67173C7.83172 3.92158 8.84913 3.50016 9.91 3.50016C12.11 3.50016 13.9 5.29016 13.9 7.49016C13.9 9.71016 12.11 11.5002 9.91 11.5002ZM9.89 10.5002C8.23 10.5002 6.9 9.16016 6.9 7.50016C6.9 5.85016 8.23 4.50016 9.89 4.50016C11.55 4.50016 12.9 5.85016 12.9 7.50016C12.9 9.16016 11.55 10.5002 9.89 10.5002ZM13.73 11.6002L12.45 13.8402L10.37 13.3702L12.9 19.2002L14.3 17.0002H16.8L13.73 11.6002ZM6.03 11.6702L7.28 13.9202L9.41 13.4102L6.9 19.2002L5.5 17.0002H3L6.03 11.6702Z" fill="#39B54A"/>
<path d="M6.96364 9C6.87831 9 6.81564 8.98133 6.77564 8.944C6.73831 8.904 6.71964 8.84667 6.71964 8.772C6.71964 8.72667 6.73164 8.68267 6.75564 8.64C6.77964 8.59733 6.81431 8.552 6.85964 8.504L7.66364 7.648C7.78631 7.52 7.87431 7.404 7.92764 7.3C7.98097 7.19333 8.00764 7.08667 8.00764 6.98C8.00764 6.84667 7.96497 6.74533 7.87964 6.676C7.79697 6.60667 7.67564 6.572 7.51564 6.572C7.42497 6.572 7.33431 6.58533 7.24364 6.612C7.15297 6.636 7.06097 6.67867 6.96764 6.74C6.91964 6.772 6.87431 6.78533 6.83164 6.78C6.79164 6.77467 6.75564 6.75733 6.72364 6.728C6.69431 6.69867 6.67431 6.66267 6.66364 6.62C6.65297 6.57733 6.65431 6.53467 6.66764 6.492C6.68364 6.44667 6.71564 6.408 6.76364 6.376C6.87831 6.29867 7.00631 6.24 7.14764 6.2C7.29164 6.16 7.43564 6.14 7.57964 6.14C7.78231 6.14 7.95297 6.17067 8.09164 6.232C8.23031 6.29333 8.33564 6.38267 8.40764 6.5C8.47964 6.61733 8.51564 6.76 8.51564 6.928C8.51564 7.04 8.49697 7.14933 8.45964 7.256C8.42497 7.36267 8.37031 7.47067 8.29564 7.58C8.22364 7.68933 8.12897 7.80533 8.01164 7.928L7.25964 8.712V8.576H8.43564C8.50764 8.576 8.56231 8.59333 8.59964 8.628C8.63697 8.66267 8.65564 8.71467 8.65564 8.784C8.65564 8.85333 8.63697 8.90667 8.59964 8.944C8.56231 8.98133 8.50764 9 8.43564 9H6.96364ZM9.33808 9.032C9.25808 9.032 9.19674 9.01067 9.15408 8.968C9.11141 8.92267 9.09008 8.85867 9.09008 8.776V7.264C9.09008 7.18133 9.11141 7.11867 9.15408 7.076C9.19674 7.03333 9.25674 7.012 9.33408 7.012C9.41141 7.012 9.47141 7.03333 9.51408 7.076C9.55674 7.11867 9.57808 7.18133 9.57808 7.264V7.536L9.53408 7.436C9.59274 7.29467 9.68341 7.188 9.80608 7.116C9.93141 7.04133 10.0727 7.004 10.2301 7.004C10.3874 7.004 10.5167 7.03333 10.6181 7.092C10.7194 7.15067 10.7954 7.24 10.8461 7.36C10.8967 7.47733 10.9221 7.62667 10.9221 7.808V8.776C10.9221 8.85867 10.9007 8.92267 10.8581 8.968C10.8154 9.01067 10.7541 9.032 10.6741 9.032C10.5941 9.032 10.5314 9.01067 10.4861 8.968C10.4434 8.92267 10.4221 8.85867 10.4221 8.776V7.832C10.4221 7.68 10.3927 7.56933 10.3341 7.5C10.2781 7.43067 10.1901 7.396 10.0701 7.396C9.92341 7.396 9.80608 7.44267 9.71808 7.536C9.63274 7.62667 9.59008 7.748 9.59008 7.9V8.776C9.59008 8.94667 9.50608 9.032 9.33808 9.032ZM12.1819 9.04C12.0113 9.04 11.8606 8.99867 11.7299 8.916C11.6019 8.83333 11.5019 8.716 11.4299 8.564C11.3579 8.40933 11.3219 8.228 11.3219 8.02C11.3219 7.80933 11.3579 7.62933 11.4299 7.48C11.5019 7.328 11.6019 7.21067 11.7299 7.128C11.8606 7.04533 12.0113 7.004 12.1819 7.004C12.3446 7.004 12.4859 7.044 12.6059 7.124C12.7286 7.204 12.8113 7.30933 12.8539 7.44H12.8099V6.4C12.8099 6.31733 12.8313 6.25467 12.8739 6.212C12.9166 6.16933 12.9779 6.148 13.0579 6.148C13.1379 6.148 13.1993 6.16933 13.2419 6.212C13.2873 6.25467 13.3099 6.31733 13.3099 6.4V8.776C13.3099 8.85867 13.2886 8.92267 13.2459 8.968C13.2033 9.01067 13.1419 9.032 13.0619 9.032C12.9819 9.032 12.9206 9.01067 12.8779 8.968C12.8353 8.92267 12.8139 8.85867 12.8139 8.776V8.464L12.8579 8.584C12.8179 8.72267 12.7366 8.83333 12.6139 8.916C12.4913 8.99867 12.3473 9.04 12.1819 9.04ZM12.3219 8.66C12.4206 8.66 12.5073 8.636 12.5819 8.588C12.6566 8.54 12.7139 8.46933 12.7539 8.376C12.7966 8.28 12.8179 8.16133 12.8179 8.02C12.8179 7.80667 12.7726 7.648 12.6819 7.544C12.5913 7.43733 12.4713 7.384 12.3219 7.384C12.2233 7.384 12.1366 7.408 12.0619 7.456C11.9873 7.50133 11.9286 7.572 11.8859 7.668C11.8459 7.76133 11.8259 7.87867 11.8259 8.02C11.8259 8.23067 11.8713 8.39067 11.9619 8.5C12.0526 8.60667 12.1726 8.66 12.3219 8.66Z" fill="white"/>
</svg>
