<svg width="20" height="20" viewBox="0 0 20 20" fill="none" xmlns="http://www.w3.org/2000/svg">
<path d="M4.36 5.16016L4.9 7.46016L4.36 9.75016L6.37 10.9902L7.6 13.0002L9.9 12.4602L12.2 13.0002L13.43 10.9902L15.44 9.75016L14.9 7.46016L15.44 5.16016L13.44 3.92016L12.2 1.91016L9.9 2.46016L7.61 1.92016L6.36 3.92016L4.36 5.16016ZM9.91 11.5002C8.84913 11.5002 7.83172 11.0787 7.08157 10.3286C6.33143 9.57844 5.91 8.56102 5.91 7.50016C5.91 6.43929 6.33143 5.42187 7.08157 4.67173C7.83172 3.92158 8.84913 3.50016 9.91 3.50016C12.11 3.50016 13.9 5.29016 13.9 7.49016C13.9 9.71016 12.11 11.5002 9.91 11.5002ZM9.89 10.5002C8.23 10.5002 6.9 9.16016 6.9 7.50016C6.9 5.85016 8.23 4.50016 9.89 4.50016C11.55 4.50016 12.9 5.85016 12.9 7.50016C12.9 9.16016 11.55 10.5002 9.89 10.5002ZM13.73 11.6002L12.45 13.8402L10.37 13.3702L12.9 19.2002L14.3 17.0002H16.8L13.73 11.6002ZM6.03 11.6702L7.28 13.9202L9.41 13.4102L6.9 19.2002L5.5 17.0002H3L6.03 11.6702Z" fill="#FFB211"/>
<path d="M8.47798 9.04C8.33398 9.04 8.18465 9.02133 8.02998 8.984C7.87532 8.94667 7.74065 8.89067 7.62598 8.816C7.57265 8.78133 7.53665 8.74133 7.51798 8.696C7.49932 8.65067 7.49398 8.608 7.50198 8.568C7.51265 8.52533 7.53265 8.48933 7.56198 8.46C7.59398 8.43067 7.63265 8.41333 7.67798 8.408C7.72598 8.40267 7.77798 8.41467 7.83398 8.444C7.94332 8.50267 8.04865 8.54533 8.14998 8.572C8.25132 8.596 8.35532 8.608 8.46198 8.608C8.57932 8.608 8.67798 8.592 8.75798 8.56C8.83798 8.528 8.89798 8.48 8.93798 8.416C8.98065 8.352 9.00198 8.27467 9.00198 8.184C9.00198 8.05067 8.95665 7.952 8.86598 7.888C8.77798 7.82133 8.64865 7.788 8.47798 7.788H8.22198C8.14732 7.788 8.08998 7.76933 8.04998 7.732C8.01265 7.69467 7.99398 7.64267 7.99398 7.576C7.99398 7.50933 8.01265 7.45733 8.04998 7.42C8.08998 7.38267 8.14732 7.364 8.22198 7.364H8.42998C8.53132 7.364 8.61798 7.348 8.68998 7.316C8.76198 7.28133 8.81798 7.23333 8.85798 7.172C8.89798 7.11067 8.91798 7.036 8.91798 6.948C8.91798 6.82533 8.87665 6.732 8.79398 6.668C8.71398 6.604 8.59665 6.572 8.44198 6.572C8.34332 6.572 8.24998 6.584 8.16198 6.608C8.07665 6.62933 7.98198 6.67067 7.87798 6.732C7.82998 6.76133 7.78332 6.77333 7.73798 6.768C7.69532 6.76267 7.65932 6.74533 7.62998 6.716C7.60065 6.68667 7.58065 6.652 7.56998 6.612C7.55932 6.56933 7.56198 6.52667 7.57798 6.484C7.59398 6.43867 7.62732 6.4 7.67798 6.368C7.79265 6.29333 7.91932 6.23733 8.05798 6.2C8.19665 6.16 8.33932 6.14 8.48598 6.14C8.68065 6.14 8.84732 6.17067 8.98598 6.232C9.12465 6.29067 9.22998 6.376 9.30198 6.488C9.37665 6.59733 9.41398 6.73067 9.41398 6.888C9.41398 7 9.39265 7.10267 9.34998 7.196C9.30732 7.28667 9.24732 7.364 9.16998 7.428C9.09265 7.492 8.99932 7.53733 8.88998 7.564V7.516C9.08198 7.548 9.23132 7.628 9.33798 7.756C9.44465 7.88133 9.49798 8.03867 9.49798 8.228C9.49798 8.39333 9.45665 8.53733 9.37398 8.66C9.29132 8.78267 9.17398 8.87733 9.02198 8.944C8.86998 9.008 8.68865 9.04 8.47798 9.04ZM10.2484 9.032C10.1658 9.032 10.1018 9.01067 10.0564 8.968C10.0138 8.92267 9.99242 8.85867 9.99242 8.776V7.264C9.99242 7.18133 10.0138 7.11867 10.0564 7.076C10.0991 7.03333 10.1591 7.012 10.2364 7.012C10.3138 7.012 10.3738 7.03333 10.4164 7.076C10.4591 7.11867 10.4804 7.18133 10.4804 7.264V7.516H10.4404C10.4778 7.356 10.5511 7.23467 10.6604 7.152C10.7698 7.06933 10.9151 7.02 11.0964 7.004C11.1524 6.99867 11.1964 7.01333 11.2284 7.048C11.2631 7.08 11.2831 7.13067 11.2884 7.2C11.2938 7.26667 11.2778 7.32133 11.2404 7.364C11.2058 7.404 11.1524 7.428 11.0804 7.436L10.9924 7.444C10.8298 7.46 10.7071 7.51067 10.6244 7.596C10.5418 7.67867 10.5004 7.796 10.5004 7.948V8.776C10.5004 8.85867 10.4791 8.92267 10.4364 8.968C10.3938 9.01067 10.3311 9.032 10.2484 9.032ZM12.2796 9.04C12.1089 9.04 11.9582 8.99867 11.8276 8.916C11.6996 8.83333 11.5996 8.716 11.5276 8.564C11.4556 8.40933 11.4196 8.228 11.4196 8.02C11.4196 7.80933 11.4556 7.62933 11.5276 7.48C11.5996 7.328 11.6996 7.21067 11.8276 7.128C11.9582 7.04533 12.1089 7.004 12.2796 7.004C12.4422 7.004 12.5836 7.044 12.7036 7.124C12.8262 7.204 12.9089 7.30933 12.9516 7.44H12.9076V6.4C12.9076 6.31733 12.9289 6.25467 12.9716 6.212C13.0142 6.16933 13.0756 6.148 13.1556 6.148C13.2356 6.148 13.2969 6.16933 13.3396 6.212C13.3849 6.25467 13.4076 6.31733 13.4076 6.4V8.776C13.4076 8.85867 13.3862 8.92267 13.3436 8.968C13.3009 9.01067 13.2396 9.032 13.1596 9.032C13.0796 9.032 13.0182 9.01067 12.9756 8.968C12.9329 8.92267 12.9116 8.85867 12.9116 8.776V8.464L12.9556 8.584C12.9156 8.72267 12.8342 8.83333 12.7116 8.916C12.5889 8.99867 12.4449 9.04 12.2796 9.04ZM12.4196 8.66C12.5182 8.66 12.6049 8.636 12.6796 8.588C12.7542 8.54 12.8116 8.46933 12.8516 8.376C12.8942 8.28 12.9156 8.16133 12.9156 8.02C12.9156 7.80667 12.8702 7.648 12.7796 7.544C12.6889 7.43733 12.5689 7.384 12.4196 7.384C12.3209 7.384 12.2342 7.408 12.1596 7.456C12.0849 7.50133 12.0262 7.572 11.9836 7.668C11.9436 7.76133 11.9236 7.87867 11.9236 8.02C11.9236 8.23067 11.9689 8.39067 12.0596 8.5C12.1502 8.60667 12.2702 8.66 12.4196 8.66Z" fill="white"/>
</svg>
