<svg width="20" height="20" viewBox="0 0 20 20" fill="none" xmlns="http://www.w3.org/2000/svg">
<path d="M4.36 5.16016L4.9 7.46016L4.36 9.75016L6.37 10.9902L7.6 13.0002L9.9 12.4602L12.2 13.0002L13.43 10.9902L15.44 9.75016L14.9 7.46016L15.44 5.16016L13.44 3.92016L12.2 1.91016L9.9 2.46016L7.61 1.92016L6.36 3.92016L4.36 5.16016ZM9.91 11.5002C8.84913 11.5002 7.83172 11.0787 7.08157 10.3286C6.33143 9.57844 5.91 8.56102 5.91 7.50016C5.91 6.43929 6.33143 5.42187 7.08157 4.67173C7.83172 3.92158 8.84913 3.50016 9.91 3.50016C12.11 3.50016 13.9 5.29016 13.9 7.49016C13.9 9.71016 12.11 11.5002 9.91 11.5002ZM9.89 10.5002C8.23 10.5002 6.9 9.16016 6.9 7.50016C6.9 5.85016 8.23 4.50016 9.89 4.50016C11.55 4.50016 12.9 5.85016 12.9 7.50016C12.9 9.16016 11.55 10.5002 9.89 10.5002ZM13.73 11.6002L12.45 13.8402L10.37 13.3702L12.9 19.2002L14.3 17.0002H16.8L13.73 11.6002ZM6.03 11.6702L7.28 13.9202L9.41 13.4102L6.9 19.2002L5.5 17.0002H3L6.03 11.6702Z" fill="#FF4B3E"/>
<path d="M7.69041 9C7.62107 9 7.56641 8.98133 7.52641 8.944C7.48907 8.904 7.47041 8.85067 7.47041 8.784C7.47041 8.71467 7.48907 8.66267 7.52641 8.628C7.56641 8.59333 7.62107 8.576 7.69041 8.576H8.13841V6.612H8.38641L7.79841 6.968C7.74774 6.99733 7.69974 7.00933 7.65441 7.004C7.61174 6.996 7.57441 6.97733 7.54241 6.948C7.51307 6.916 7.49307 6.87867 7.48241 6.836C7.47174 6.79333 7.47441 6.75067 7.49041 6.708C7.50907 6.66267 7.54374 6.62533 7.59441 6.596L8.14641 6.264C8.19974 6.232 8.25307 6.20533 8.30641 6.184C8.35974 6.16 8.40907 6.148 8.45441 6.148C8.51041 6.148 8.55707 6.164 8.59441 6.196C8.63174 6.22533 8.65041 6.27467 8.65041 6.344V8.576H9.05841C9.12774 8.576 9.18107 8.59333 9.21841 8.628C9.25841 8.66267 9.27841 8.71467 9.27841 8.784C9.27841 8.85333 9.25841 8.90667 9.21841 8.944C9.18107 8.98133 9.12774 9 9.05841 9H7.69041ZM10.4408 9.04C10.3262 9.04 10.2048 9.028 10.0768 9.004C9.94884 8.98 9.83418 8.93867 9.73284 8.88C9.69018 8.85333 9.65951 8.82267 9.64084 8.788C9.62484 8.75067 9.61818 8.71467 9.62084 8.68C9.62618 8.64267 9.63951 8.61067 9.66084 8.584C9.68484 8.55733 9.71418 8.54 9.74884 8.532C9.78618 8.524 9.82618 8.53067 9.86884 8.552C9.97551 8.60267 10.0755 8.63867 10.1688 8.66C10.2622 8.67867 10.3542 8.688 10.4448 8.688C10.5728 8.688 10.6675 8.66667 10.7288 8.624C10.7928 8.57867 10.8248 8.52 10.8248 8.448C10.8248 8.38667 10.8035 8.34 10.7608 8.308C10.7208 8.27333 10.6595 8.248 10.5768 8.232L10.1768 8.156C10.0115 8.124 9.88484 8.064 9.79684 7.976C9.71151 7.88533 9.66884 7.76933 9.66884 7.628C9.66884 7.5 9.70351 7.38933 9.77284 7.296C9.84484 7.20267 9.94351 7.13067 10.0688 7.08C10.1942 7.02933 10.3382 7.004 10.5008 7.004C10.6182 7.004 10.7275 7.01733 10.8288 7.044C10.9328 7.068 11.0328 7.10667 11.1288 7.16C11.1688 7.18133 11.1955 7.20933 11.2088 7.244C11.2248 7.27867 11.2288 7.31467 11.2208 7.352C11.2128 7.38667 11.1968 7.41867 11.1728 7.448C11.1488 7.47467 11.1182 7.492 11.0808 7.5C11.0462 7.50533 11.0062 7.49733 10.9608 7.476C10.8782 7.43333 10.7982 7.40267 10.7208 7.384C10.6462 7.36533 10.5742 7.356 10.5048 7.356C10.3742 7.356 10.2768 7.37867 10.2128 7.424C10.1515 7.46933 10.1208 7.52933 10.1208 7.604C10.1208 7.66 10.1395 7.70667 10.1768 7.744C10.2142 7.78133 10.2715 7.80667 10.3488 7.82L10.7488 7.896C10.9222 7.928 11.0528 7.98667 11.1408 8.072C11.2315 8.15733 11.2768 8.272 11.2768 8.416C11.2768 8.61067 11.2008 8.764 11.0488 8.876C10.8968 8.98533 10.6942 9.04 10.4408 9.04ZM12.5544 9.04C12.3811 9.04 12.2358 9.01067 12.1184 8.952C12.0038 8.89333 11.9184 8.808 11.8624 8.696C11.8064 8.58133 11.7784 8.44 11.7784 8.272V7.42H11.5704C11.5064 7.42 11.4571 7.404 11.4224 7.372C11.3878 7.33733 11.3704 7.29067 11.3704 7.232C11.3704 7.17067 11.3878 7.124 11.4224 7.092C11.4571 7.06 11.5064 7.044 11.5704 7.044H11.7784V6.68C11.7784 6.59733 11.7998 6.53467 11.8424 6.492C11.8878 6.44933 11.9504 6.428 12.0304 6.428C12.1104 6.428 12.1718 6.44933 12.2144 6.492C12.2571 6.53467 12.2784 6.59733 12.2784 6.68V7.044H12.7024C12.7664 7.044 12.8158 7.06 12.8504 7.092C12.8851 7.124 12.9024 7.17067 12.9024 7.232C12.9024 7.29067 12.8851 7.33733 12.8504 7.372C12.8158 7.404 12.7664 7.42 12.7024 7.42H12.2784V8.244C12.2784 8.372 12.3064 8.468 12.3624 8.532C12.4184 8.596 12.5091 8.628 12.6344 8.628C12.6798 8.628 12.7198 8.624 12.7544 8.616C12.7891 8.608 12.8198 8.60267 12.8464 8.6C12.8784 8.59733 12.9051 8.608 12.9264 8.632C12.9478 8.65333 12.9584 8.69867 12.9584 8.768C12.9584 8.82133 12.9491 8.86933 12.9304 8.912C12.9144 8.952 12.8838 8.98 12.8384 8.996C12.8038 9.00667 12.7584 9.016 12.7024 9.024C12.6464 9.03467 12.5971 9.04 12.5544 9.04Z" fill="white"/>
</svg>
