<svg width="33" height="7" viewBox="0 0 33 7" fill="none" xmlns="http://www.w3.org/2000/svg">
<path d="M16.4091 5.64892C17.4384 5.64892 18.2727 4.80847 18.2727 3.77172C18.2727 2.73498 17.4384 1.89453 16.4091 1.89453C15.3798 1.89453 14.5454 2.73498 14.5454 3.77172C14.5454 4.80847 15.3798 5.64892 16.4091 5.64892Z" stroke="#929AA7" stroke-width="2" stroke-linecap="round" stroke-linejoin="round"/>
<path d="M29.4545 5.64892C30.4838 5.64892 31.3182 4.80847 31.3182 3.77172C31.3182 2.73498 30.4838 1.89453 29.4545 1.89453C28.4253 1.89453 27.5909 2.73498 27.5909 3.77172C27.5909 4.80847 28.4253 5.64892 29.4545 5.64892Z" stroke="#929AA7" stroke-width="2" stroke-linecap="round" stroke-linejoin="round"/>
<path d="M3.36363 5.64892C4.39289 5.64892 5.22726 4.80847 5.22726 3.77172C5.22726 2.73498 4.39289 1.89453 3.36363 1.89453C2.33438 1.89453 1.5 2.73498 1.5 3.77172C1.5 4.80847 2.33438 5.64892 3.36363 5.64892Z" stroke="#929AA7" stroke-width="2" stroke-linecap="round" stroke-linejoin="round"/>
</svg>
