<svg width="19" height="19" viewBox="0 0 19 19" fill="none" xmlns="http://www.w3.org/2000/svg">
<path d="M16.9494 1.70386C15.9216 0.67612 15.0077 0.97922 15.0077 0.97922L6.95079 9.02957L5.5957 13.0575L9.62181 11.7015L17.674 3.64557C17.674 3.64557 17.9762 2.73161 16.9494 1.70386ZM9.8904 10.8239L9.45114 11.2623L8.0774 11.7286C7.97096 11.4694 7.81294 11.2346 7.61295 11.0384C7.4166 10.8386 7.18184 10.6806 6.92282 10.574L7.38912 9.20024L7.82839 8.76191C7.82839 8.76191 8.5521 8.67891 9.26182 9.38956C9.97247 10.0993 9.8904 10.8239 9.8904 10.8239ZM14.9219 15.8554H2.79785V3.73137H7.46094L9.32617 1.86614H2.79785C1.77197 1.86614 0.932617 2.70549 0.932617 3.73137V15.8554C0.932617 16.8813 1.77197 17.7206 2.79785 17.7206H14.9219C15.9477 17.7206 16.7871 16.8813 16.7871 15.8554V9.32707L14.9219 11.1923V15.8554Z" fill="#274B89"/>
</svg>
