<svg width="17" height="17" viewBox="0 0 17 17" fill="none" xmlns="http://www.w3.org/2000/svg">
<path d="M0.51 5.44H1.7C1.7935 5.44 1.87 5.3635 1.87 5.27V1.53H5.61C5.7035 1.53 5.78 1.4535 5.78 1.36V0.17C5.78 0.0765 5.7035 0 5.61 0H1.785C0.986 0 0.34 0.646 0.34 1.445V5.27C0.34 5.3635 0.4165 5.44 0.51 5.44ZM11.39 1.53H15.13V5.27C15.13 5.3635 15.2065 5.44 15.3 5.44H16.49C16.5835 5.44 16.66 5.3635 16.66 5.27V1.445C16.66 0.646 16.014 0 15.215 0H11.39C11.2965 0 11.22 0.0765 11.22 0.17V1.36C11.22 1.4535 11.2965 1.53 11.39 1.53ZM5.61 14.79H1.87V11.05C1.87 10.9565 1.7935 10.88 1.7 10.88H0.51C0.4165 10.88 0.34 10.9565 0.34 11.05V14.875C0.34 15.674 0.986 16.32 1.785 16.32H5.61C5.7035 16.32 5.78 16.2435 5.78 16.15V14.96C5.78 14.8665 5.7035 14.79 5.61 14.79ZM16.49 10.88H15.3C15.2065 10.88 15.13 10.9565 15.13 11.05V14.79H11.39C11.2965 14.79 11.22 14.8665 11.22 14.96V16.15C11.22 16.2435 11.2965 16.32 11.39 16.32H15.215C16.014 16.32 16.66 15.674 16.66 14.875V11.05C16.66 10.9565 16.5835 10.88 16.49 10.88ZM16.83 7.395H0.17C0.0765 7.395 0 7.4715 0 7.565V8.755C0 8.8485 0.0765 8.925 0.17 8.925H16.83C16.9235 8.925 17 8.8485 17 8.755V7.565C17 7.4715 16.9235 7.395 16.83 7.395Z" fill="#274B89"/>
</svg>
