<svg width="34" height="38" viewBox="0 0 34 38" fill="none" xmlns="http://www.w3.org/2000/svg">
<path d="M18.9513 15.3226C18.6712 15.6182 18.2753 15.7739 17.868 15.7487C17.7271 15.7398 14.3784 15.5096 10.9532 13.6639C7.71653 11.9197 3.81067 8.38054 3.58387 1.42466C3.5714 1.04531 3.71663 0.677853 3.9849 0.409438C4.39412 0 4.8744 0 5.07951 0C5.07959 0 5.07959 0 5.07959 0C5.22467 0 8.63561 0.0245068 12.1502 2.13188C13.9746 3.22591 15.4914 4.68029 16.6586 6.45479C18.0686 8.59849 18.9633 11.2103 19.318 14.2177C19.3657 14.6222 19.2313 15.0269 18.9513 15.3226Z" fill="#B5C4DD"/>
<path d="M16.7016 6.52344C16.126 7.58564 15.6406 8.78198 15.2923 10.1297C14.9791 11.0652 14.5007 12.7087 14.106 14.9827C16.1882 15.6344 17.772 15.7433 17.868 15.7493C18.2753 15.7746 18.6712 15.6189 18.9513 15.3232C19.2313 15.0275 19.3656 14.6229 19.3179 14.2184C18.9669 11.2425 18.0861 8.65444 16.7016 6.52344Z" fill="#6E85AE"/>
<path d="M17.7737 12.9683L14.8164 10.0844L14.0365 6.19823C13.9748 5.89022 13.6751 5.6909 13.3671 5.75253C13.0591 5.81431 12.8597 6.11412 12.9214 6.42198L13.3742 8.67805L11.7432 7.08758L10.9526 3.148C10.8909 2.83999 10.591 2.64089 10.2831 2.70231C9.97512 2.76408 9.77573 3.06382 9.83743 3.37175L10.3009 5.68119L6.49493 1.97007C6.26987 1.75082 5.9101 1.75546 5.69077 1.98022C5.47152 2.20514 5.47608 2.56512 5.70092 2.78431L9.88586 6.8652L6.9665 6.81532C6.65277 6.80676 6.39364 7.06017 6.3882 7.37419C6.38291 7.68821 6.63305 7.94705 6.94707 7.95249L11.0731 8.02304L13.0145 9.91615L10.0504 9.86562C9.73926 9.85866 9.47758 10.1105 9.47214 10.4245C9.46685 10.7385 9.717 10.9974 10.031 11.0028L14.2017 11.074L16.9794 13.7827C17.0901 13.8905 17.2333 13.9441 17.3763 13.9441C17.5242 13.9441 17.672 13.8867 17.7836 13.7724C18.0031 13.5474 17.9986 13.1875 17.7737 12.9683Z" fill="#5E7398"/>
<path d="M32.3582 0.428767C32.0781 0.133162 31.6822 -0.0225793 31.2749 0.00265252C31.134 0.0115707 27.7853 0.241775 24.3602 2.08747C21.7281 3.50575 18.6539 6.11101 17.475 10.775C16.8311 12.6712 15.4125 17.8137 15.7443 25.5565C15.773 26.2264 16.325 26.7502 16.9892 26.7501C17.0072 26.7501 17.0253 26.7497 17.0435 26.7489C17.7315 26.7194 18.2654 26.1379 18.2359 25.4497C18.064 21.4385 18.3943 18.1593 18.8199 15.7396C19.7776 15.6847 22.6312 15.3738 25.5571 13.6195C27.3815 12.5254 28.8983 11.071 30.0655 9.29654C31.4755 7.15284 32.3702 4.54098 32.7249 1.53368C32.7726 1.1291 32.6382 0.724444 32.3582 0.428767Z" fill="#B5C4DD"/>
<path d="M30.5677 1.98025C30.3483 1.75541 29.9883 1.75084 29.7635 1.9701L25.9578 5.68114L26.4213 3.37177C26.483 3.06384 26.2836 2.76418 25.9756 2.70233C25.668 2.64085 25.3679 2.84002 25.3062 3.14802L24.5155 7.0876L22.8846 8.67808L23.3374 6.422C23.3991 6.11407 23.1997 5.81441 22.8917 5.75256C22.5838 5.69093 22.284 5.89025 22.2222 6.19825L21.4423 10.0845L18.4849 12.9684C18.2599 13.1876 18.2555 13.5476 18.4747 13.7725C18.5862 13.8867 18.7339 13.9441 18.882 13.9441C19.0251 13.9441 19.1684 13.8904 19.2789 13.7826L22.0566 11.0739L26.2274 11.0027C26.5414 10.9974 26.7916 10.7385 26.7863 10.4244C26.781 10.1137 26.5274 9.8655 26.2179 9.8655C26.2146 9.8655 26.2112 9.8655 26.208 9.86557L23.2439 9.91611L25.1852 8.02299L29.3113 7.95245C29.6253 7.94708 29.8755 7.68824 29.8702 7.37414C29.8649 7.06339 29.6113 6.8152 29.3018 6.8152C29.2985 6.8152 29.2951 6.8152 29.2919 6.81527L26.3725 6.86516L30.5574 2.78426C30.7824 2.56508 30.7869 2.20509 30.5677 1.98025Z" fill="#5E7398"/>
<path d="M31.0073 29.7367C30.4338 29.7367 29.8982 29.8983 29.4429 30.1781C28.7705 27.9781 26.7246 26.3778 24.3045 26.3778C24.036 26.3778 23.7723 26.3981 23.5144 26.4361C22.4173 23.9264 19.9141 22.1719 17 22.1719C14.086 22.1719 11.5827 23.9264 10.4857 26.4361C10.2277 26.3981 9.96397 26.3778 9.69555 26.3778C7.27547 26.3778 5.22966 27.9781 4.55717 30.1781C4.10191 29.8983 3.56631 29.7367 2.99272 29.7367C1.33996 29.7367 6.10352e-05 31.0766 6.10352e-05 32.7294C6.10352e-05 34.3822 1.33996 35.7221 2.99272 35.7221C3.87845 35.7221 4.67397 35.337 5.22183 34.7255C6.18484 36.1706 7.82868 37.1233 9.69548 37.1233C11.2073 37.1233 12.5725 36.4979 13.5487 35.4929C14.5708 36.0619 15.7471 36.3871 17 36.3871C18.2529 36.3871 19.4293 36.0618 20.4514 35.4929C21.4277 36.4979 22.7928 37.1233 24.3046 37.1233C26.1714 37.1233 27.8153 36.1708 28.7782 34.7255C29.3262 35.337 30.1217 35.7221 31.0073 35.7221C32.6601 35.7221 34 34.3822 34 32.7294C34 31.0766 32.6601 29.7367 31.0073 29.7367Z" fill="#6E85AE"/>
<path d="M20.907 25.0814C21.6138 25.0814 22.2958 25.1861 22.9402 25.3781C21.6695 23.4473 19.4842 22.1719 17 22.1719C14.0858 22.1719 11.5827 23.9264 10.4857 26.4361C10.2277 26.3981 9.96391 26.3778 9.69549 26.3778C7.27541 26.3778 5.2296 27.9781 4.55711 30.1781C4.10185 29.8983 3.56625 29.7367 2.99266 29.7367C1.3399 29.7367 0 31.0766 0 32.7294C0 34.3821 1.3399 35.722 2.99266 35.722C3.87839 35.722 4.67391 35.337 5.22177 34.7255C6.18478 36.1706 7.82862 37.1233 9.69542 37.1233C11.2072 37.1233 12.5724 36.4979 13.5486 35.4929C13.9944 35.741 14.4695 35.9427 14.9674 36.0914C14.2298 34.9711 13.7994 33.6306 13.7994 32.1891C13.7994 28.2637 16.9816 25.0814 20.907 25.0814Z" fill="#5E7398"/>
<path d="M19.8265 31.8153C20.5382 31.8153 21.115 31.2384 21.115 30.5268C21.115 29.8152 20.5382 29.2383 19.8265 29.2383C19.1149 29.2383 18.5381 29.8152 18.5381 30.5268C18.5381 31.2384 19.1149 31.8153 19.8265 31.8153Z" fill="#5E7398"/>
<path d="M25.0217 34.8504C25.7333 34.8504 26.3102 34.2735 26.3102 33.5619C26.3102 32.8503 25.7333 32.2734 25.0217 32.2734C24.3101 32.2734 23.7332 32.8503 23.7332 33.5619C23.7332 34.2735 24.3101 34.8504 25.0217 34.8504Z" fill="#5E7398"/>
<path d="M24.2294 29.6478C24.5032 29.6478 24.7252 29.4259 24.7252 29.152C24.7252 28.8782 24.5032 28.6562 24.2294 28.6562C23.9556 28.6562 23.7336 28.8782 23.7336 29.152C23.7336 29.4259 23.9556 29.6478 24.2294 29.6478Z" fill="#5E7398"/>
<path d="M16.9999 34.5541C17.2738 34.5541 17.4957 34.3321 17.4957 34.0583C17.4957 33.7845 17.2738 33.5625 16.9999 33.5625C16.7261 33.5625 16.5042 33.7845 16.5042 34.0583C16.5042 34.3321 16.7261 34.5541 16.9999 34.5541Z" fill="#5E7398"/>
<path d="M18.5376 27.7963C18.8115 27.7963 19.0334 27.5743 19.0334 27.3005C19.0334 27.0267 18.8115 26.8047 18.5376 26.8047C18.2638 26.8047 18.0418 27.0267 18.0418 27.3005C18.0418 27.5743 18.2638 27.7963 18.5376 27.7963Z" fill="#5E7398"/>
<path d="M29.2062 32.3119C29.48 32.3119 29.702 32.0899 29.702 31.8161C29.702 31.5423 29.48 31.3203 29.2062 31.3203C28.9324 31.3203 28.7104 31.5423 28.7104 31.8161C28.7104 32.0899 28.9324 32.3119 29.2062 32.3119Z" fill="#5E7398"/>
<path d="M26.3106 24.2879C27.0222 24.2879 27.599 23.711 27.599 22.9994C27.599 22.2878 27.0222 21.7109 26.3106 21.7109C25.5989 21.7109 25.0221 22.2878 25.0221 22.9994C25.0221 23.711 25.5989 24.2879 26.3106 24.2879Z" fill="#5E7398"/>
<path d="M29.2061 26.3783C29.4799 26.3783 29.7019 26.1563 29.7019 25.8825C29.7019 25.6087 29.4799 25.3867 29.2061 25.3867C28.9323 25.3867 28.7103 25.6087 28.7103 25.8825C28.7103 26.1563 28.9323 26.3783 29.2061 26.3783Z" fill="#5E7398"/>
<path d="M29.2061 23.9916C29.4799 23.9916 29.7019 23.7696 29.7019 23.4958C29.7019 23.222 29.4799 23 29.2061 23C28.9323 23 28.7103 23.222 28.7103 23.4958C28.7103 23.7696 28.9323 23.9916 29.2061 23.9916Z" fill="#5E7398"/>
<path d="M6.59745 23.8348C7.30907 23.8348 7.88595 23.2579 7.88595 22.5463C7.88595 21.8347 7.30907 21.2578 6.59745 21.2578C5.88584 21.2578 5.30896 21.8347 5.30896 22.5463C5.30896 23.2579 5.88584 23.8348 6.59745 23.8348Z" fill="#5E7398"/>
<path d="M4.45783 25.8822C4.73165 25.8822 4.95362 25.6602 4.95362 25.3864C4.95362 25.1126 4.73165 24.8906 4.45783 24.8906C4.18401 24.8906 3.96204 25.1126 3.96204 25.3864C3.96204 25.6602 4.18401 25.8822 4.45783 25.8822Z" fill="#5E7398"/>
</svg>
