<svg width="20" height="14" viewBox="0 0 20 14" fill="none" xmlns="http://www.w3.org/2000/svg">
<path d="M17.4845 13.4658H2.4871C1.45603 13.4658 0.612427 12.9105 0.612427 12.2317V5.78303C0.612427 5.38192 0.893628 5.01167 1.40916 4.76483L9.9858 0.81543L18.5624 4.76483C19.078 4.98081 19.3592 5.38192 19.3592 5.78303V12.2317C19.3592 12.9105 18.5156 13.4658 17.4845 13.4658Z" fill="#78909C"/>
<path d="M5.29907 1.12402H14.6724V10.689H5.29907V1.12402Z" fill="#AED581"/>
<path d="M17.4845 13.4652H2.4871C1.45603 13.4652 0.612427 12.9098 0.612427 12.231V6.06006L9.9858 10.0712L19.3592 6.06006V12.231C19.3592 12.9098 18.5156 13.4652 17.4845 13.4652Z" fill="#7FBA56"/>
</svg>
