<svg width="22" height="21" viewBox="0 0 22 21" fill="none" xmlns="http://www.w3.org/2000/svg">
<path d="M10.9999 0.0839844C8.9397 0.0839844 6.92575 0.694911 5.21273 1.83951C3.49972 2.98411 2.16459 4.61097 1.37618 6.51437C0.587765 8.41776 0.381481 10.5122 0.78341 12.5328C1.18534 14.5535 2.17743 16.4096 3.63423 17.8664C5.09102 19.3231 6.9471 20.3152 8.96773 20.7172C10.9884 21.1191 13.0828 20.9128 14.9862 20.1244C16.8896 19.336 18.5165 18.0009 19.6611 16.2878C20.8057 14.5748 21.4166 12.5609 21.4166 10.5007C21.4166 9.13272 21.1472 7.77817 20.6237 6.51437C20.1002 5.25056 19.3329 4.10223 18.3656 3.13496C17.3983 2.16768 16.25 1.40039 14.9862 0.876906C13.7224 0.35342 12.3679 0.0839844 10.9999 0.0839844ZM13.8228 11.8444C13.9205 11.9412 13.998 12.0564 14.0509 12.1834C14.1037 12.3103 14.131 12.4465 14.131 12.584C14.131 12.7215 14.1037 12.8577 14.0509 12.9846C13.998 13.1115 13.9205 13.2267 13.8228 13.3236C13.726 13.4212 13.6108 13.4987 13.4839 13.5516C13.3569 13.6045 13.2208 13.6317 13.0833 13.6317C12.9457 13.6317 12.8096 13.6045 12.6827 13.5516C12.5557 13.4987 12.4405 13.4212 12.3437 13.3236L10.9999 11.9694L9.65617 13.3236C9.55934 13.4212 9.44413 13.4987 9.31719 13.5516C9.19026 13.6045 9.0541 13.6317 8.91659 13.6317C8.77908 13.6317 8.64293 13.6045 8.51599 13.5516C8.38905 13.4987 8.27384 13.4212 8.17701 13.3236C8.07937 13.2267 8.00188 13.1115 7.949 12.9846C7.89611 12.8577 7.86888 12.7215 7.86888 12.584C7.86888 12.4465 7.89611 12.3103 7.949 12.1834C8.00188 12.0564 8.07937 11.9412 8.17701 11.8444L9.53117 10.5007L8.17701 9.1569C7.98086 8.96075 7.87066 8.69472 7.87066 8.41732C7.87066 8.13992 7.98086 7.87389 8.17701 7.67774C8.37316 7.48159 8.63919 7.37139 8.91659 7.37139C9.19399 7.37139 9.46002 7.48159 9.65617 7.67774L10.9999 9.0319L12.3437 7.67774C12.5398 7.48159 12.8059 7.37139 13.0833 7.37139C13.3607 7.37139 13.6267 7.48159 13.8228 7.67774C14.019 7.87389 14.1292 8.13992 14.1292 8.41732C14.1292 8.69472 14.019 8.96075 13.8228 9.1569L12.4687 10.5007L13.8228 11.8444Z" fill="#061E48"/>
</svg>
