<svg width="23" height="23" viewBox="0 0 23 23" fill="none" xmlns="http://www.w3.org/2000/svg">
<g clip-path="url(#clip0_4713_53681)">
<path d="M9.79156 15.3502L9.72171 15.4404C9.67508 15.4982 9.60837 15.5845 9.52046 15.6914C9.41527 15.8203 9.30858 15.9478 9.20039 16.0742C9.13435 16.1521 9.06763 16.2295 9.00026 16.3063C8.92624 16.392 8.85149 16.4769 8.77601 16.5613C8.69465 16.6535 8.61251 16.7451 8.52962 16.8359C8.44404 16.9304 8.35563 17.0281 8.26323 17.127C8.07986 17.3264 7.88355 17.5336 7.6796 17.7471L7.36708 18.0704L7.04342 18.3982C6.93511 18.5091 6.82281 18.6178 6.71181 18.7285C6.60051 18.8396 6.48825 18.9497 6.37503 19.0588L6.03591 19.3868L5.69581 19.7086C5.46859 19.9197 5.24394 20.1265 5.02306 20.3231C4.58188 20.7169 4.15966 21.074 3.78991 21.3722C3.62152 21.5081 3.45143 21.6418 3.27969 21.7735C3.14667 21.8751 3.01237 21.9751 2.87683 22.0733C2.6502 22.2366 2.51565 22.3246 2.51565 22.3246C1.84524 22.7636 0.945949 22.5759 0.507017 21.9055C0.181379 21.4081 0.201638 20.7839 0.507017 20.316C0.507017 20.316 0.595109 20.1815 0.75822 19.9549C0.856465 19.8194 0.956439 19.6851 1.05812 19.5521C1.18977 19.3803 1.32354 19.2103 1.45941 19.0418C1.7576 18.672 2.11468 18.2498 2.50851 17.8086C2.70513 17.5878 2.91182 17.3631 3.123 17.1359L3.44477 16.7958L3.77275 16.4567C3.88191 16.3432 3.99242 16.231 4.10306 16.1199C4.21384 16.0089 4.3225 15.8966 4.43332 15.7883L4.76112 15.4646L5.08442 15.1521C5.29798 14.9482 5.50521 14.7518 5.70452 14.5685C5.80344 14.4761 5.90119 14.3877 5.99566 14.3021C6.08651 14.2192 6.17805 14.1371 6.27027 14.0557C6.35461 13.9802 6.43961 13.9054 6.52525 13.8314C6.60208 13.7641 6.67947 13.6974 6.7574 13.6313C6.88374 13.5232 7.01133 13.4165 7.14014 13.3112C7.24705 13.2233 7.33339 13.1566 7.39116 13.11L7.48136 13.0401C8.20038 12.4833 9.23466 12.6148 9.79147 13.3338C10.261 13.9399 10.2401 14.7709 9.79156 15.3502Z" fill="#2B3B47"/>
<path d="M7.34704 18.1882C6.49676 19.0384 3.7953 16.3369 4.64553 15.4867L6.08923 14.043L8.79074 16.7445L7.34704 18.1882Z" fill="#4E5D66"/>
<path d="M13.3455 18.4547C18.392 18.4547 22.483 14.3637 22.483 9.3172C22.483 4.27069 18.392 0.179688 13.3455 0.179688C8.29898 0.179688 4.20798 4.27069 4.20798 9.3172C4.20798 14.3637 8.29898 18.4547 13.3455 18.4547Z" fill="#2B3B47"/>
<path d="M13.3455 16.4353C17.2756 16.4353 20.4616 13.2493 20.4616 9.3192C20.4616 5.3891 17.2756 2.20312 13.3455 2.20312C9.41541 2.20312 6.22943 5.3891 6.22943 9.3192C6.22943 13.2493 9.41541 16.4353 13.3455 16.4353Z" fill="#597B91"/>
<path d="M11.6534 13.5821C9.90727 13.5681 8.47444 12.143 8.45149 10.3971C8.43379 9.0516 9.23933 7.89257 10.3962 7.39097C11.0565 7.10468 11.6099 6.62487 12.02 6.03356C12.7939 4.91775 14.0917 4.19289 15.5576 4.21535C17.8293 4.25012 19.6816 6.10508 19.7133 8.37678C19.7462 10.7363 17.8434 12.6593 15.4915 12.6593C15.448 12.6593 15.4046 12.6586 15.3614 12.6573C14.6354 12.6353 13.9116 12.7959 13.2814 13.157C12.8024 13.4316 12.2463 13.5868 11.6534 13.5821ZM2.34737 21.1849L2.79659 20.7356C2.98953 20.5427 2.98953 20.2298 2.79659 20.0368C2.6036 19.8439 2.29072 19.8439 2.09774 20.0368L1.64852 20.486C1.45558 20.679 1.45558 20.9919 1.64852 21.1849C1.74501 21.2813 1.87147 21.3296 1.99792 21.3296C2.12438 21.3296 2.25088 21.2813 2.34737 21.1849Z" fill="#F9F9F7"/>
<path d="M15.4915 10.5953C16.6839 10.5953 17.6505 9.62871 17.6505 8.43633C17.6505 7.24396 16.6839 6.27734 15.4915 6.27734C14.2991 6.27734 13.3325 7.24396 13.3325 8.43633C13.3325 9.62871 14.2991 10.5953 15.4915 10.5953Z" fill="#FFA41F"/>
</g>
<defs>
<clipPath id="clip0_4713_53681">
<rect width="23" height="23" fill="white"/>
</clipPath>
</defs>
</svg>
