<svg width="26" height="27" viewBox="0 0 26 27" fill="none" xmlns="http://www.w3.org/2000/svg">
<path d="M12.9411 24.4657C6.98545 24.4657 2.15771 19.638 2.15771 13.6823C2.15771 7.72666 6.98545 2.89893 12.9411 2.89893C18.8968 2.89893 23.7245 7.72666 23.7245 13.6823C23.7245 19.638 18.8968 24.4657 12.9411 24.4657ZM12.9411 22.3091C15.2291 22.3091 17.4233 21.4002 19.0411 19.7824C20.659 18.1645 21.5679 15.9703 21.5679 13.6823C21.5679 11.3944 20.659 9.20014 19.0411 7.58232C17.4233 5.96449 15.2291 5.05561 12.9411 5.05561C10.6532 5.05561 8.45893 5.96449 6.84111 7.58232C5.22328 9.20014 4.3144 11.3944 4.3144 13.6823C4.3144 15.9703 5.22328 18.1645 6.84111 19.7824C8.45893 21.4002 10.6532 22.3091 12.9411 22.3091ZM12.9411 8.34455L18.2789 13.6823L12.9411 19.0201L7.60334 13.6823L12.9411 8.34455ZM12.9411 11.3952L10.654 13.6823L12.9411 15.9695L15.2283 13.6823L12.9411 11.3952Z" fill="black"/>
</svg>
