<svg width="24" height="24" viewBox="0 0 24 24" fill="none" xmlns="http://www.w3.org/2000/svg">
<g clip-path="url(#clip0_22057_36898)">
<path d="M5.91124 14.5035L5.10913 17.6222L2.17743 17.6868C1.30129 15.9943 0.804321 14.0578 0.804321 12C0.804321 10.0101 1.26897 8.13362 2.0926 6.48132H2.09323L4.70326 6.9797L5.84661 9.68176C5.60731 10.4084 5.47688 11.1884 5.47688 12C5.47697 12.8809 5.63018 13.7249 5.91124 14.5035Z" fill="#FBBB00"/>
<path d="M23.6465 9.7583C23.7788 10.4842 23.8478 11.2339 23.8478 12.0001C23.8478 12.8592 23.7611 13.6972 23.5958 14.5056C23.035 17.2563 21.5694 19.6583 19.5392 21.3581L19.5386 21.3574L16.2511 21.1827L15.7858 18.1576C17.133 17.3348 18.1858 16.0471 18.7403 14.5056H12.5793V9.7583H18.8302H23.6465Z" fill="#518EF8"/>
<path d="M19.5385 21.3574L19.5392 21.358C17.5647 23.011 15.0564 24 12.3261 24C7.9383 24 4.12348 21.4457 2.17743 17.6868L5.91124 14.5035C6.88424 17.2081 9.38927 19.1334 12.3261 19.1334C13.5884 19.1334 14.771 18.778 15.7857 18.1576L19.5385 21.3574Z" fill="#28B446"/>
<path d="M19.6803 2.76262L15.9478 5.94525C14.8976 5.26153 13.6561 4.86656 12.3261 4.86656C9.3228 4.86656 6.77091 6.88017 5.84665 9.68175L2.09322 6.48131H2.09259C4.01015 2.63077 7.87308 0 12.3261 0C15.1217 0 17.6849 1.03716 19.6803 2.76262Z" fill="#F14336"/>
</g>
<defs>
<clipPath id="clip0_22057_36898">
<rect width="23.0435" height="24" fill="white" transform="translate(0.804321)"/>
</clipPath>
</defs>
</svg>
