<svg width="229" height="369" viewBox="0 0 229 369" fill="none" xmlns="http://www.w3.org/2000/svg">
<mask id="mask0_24599_6892" style="mask-type:alpha" maskUnits="userSpaceOnUse" x="0" y="0" width="229" height="369">
<rect y="0.974609" width="228.126" height="367.049" rx="14.6235" fill="#FFEACC"/>
</mask>
<g mask="url(#mask0_24599_6892)">
<path fill-rule="evenodd" clip-rule="evenodd" d="M66.9024 218.863C147.867 218.863 213.503 153.227 213.503 72.2624C213.503 -8.70272 147.867 -74.3379 66.9024 -74.3379C-14.0627 -74.3379 -79.6979 -8.70272 -79.6979 72.2624C-79.6979 153.227 -14.0627 218.863 66.9024 218.863ZM66.9024 169.019C120.339 169.019 163.659 125.699 163.659 72.2623C163.659 18.8254 120.339 -24.4939 66.9024 -24.4939C13.4654 -24.4939 -29.8538 18.8254 -29.8538 72.2623C-29.8538 125.699 13.4654 169.019 66.9024 169.019Z" fill="url(#paint0_linear_24599_6892)"/>
<circle cx="66.9024" cy="72.2633" r="43.9801" fill="url(#paint1_linear_24599_6892)"/>
</g>
<defs>
<linearGradient id="paint0_linear_24599_6892" x1="66.9024" y1="-74.3379" x2="66.9024" y2="218.863" gradientUnits="userSpaceOnUse">
<stop stop-color="#7AC943"/>
<stop offset="1" stop-color="#007A3E" stop-opacity="0"/>
</linearGradient>
<linearGradient id="paint1_linear_24599_6892" x1="66.9024" y1="28.2832" x2="66.9024" y2="116.243" gradientUnits="userSpaceOnUse">
<stop stop-color="#7AC943"/>
<stop offset="1" stop-color="#007A3E" stop-opacity="0"/>
</linearGradient>
</defs>
</svg>
