<svg width="16" height="16" viewBox="0 0 16 16" fill="none" xmlns="http://www.w3.org/2000/svg">
<path d="M14.0014 0H1.75018C0.787581 0 0 0.791979 0 1.75995V14.0796C0 15.0476 0.787581 15.8396 1.75018 15.8396H14.0014C14.964 15.8396 15.7516 15.0476 15.7516 14.0796V1.75995C15.7516 0.791979 14.964 0 14.0014 0ZM7.88456 13.1996C7.272 13.1996 6.78195 12.7069 6.78195 12.0909C6.78195 11.4661 7.272 10.9909 7.88456 10.9909C8.50587 10.9909 8.97842 11.4661 8.97842 12.0909C8.96967 12.6981 8.50587 13.1996 7.88456 13.1996ZM10.5186 6.68782C9.85351 7.66459 9.22345 7.97259 8.88216 8.59737C8.74215 8.85256 8.68964 9.01976 8.68964 9.83814H7.09698C7.09698 9.40695 7.02697 8.70297 7.36826 8.09578C7.79705 7.3302 8.61089 6.87262 9.08343 6.19503C9.58224 5.48225 9.30221 4.14469 7.88456 4.14469C6.95697 4.14469 6.50192 4.84867 6.3094 5.44705L4.8655 4.83107C5.25929 3.6519 6.31815 2.63993 7.86706 2.63993C9.16219 2.63993 10.046 3.22951 10.5011 3.97749C10.8861 4.61108 11.1136 5.79904 10.5186 6.68782Z" fill="#929AA7"/>
</svg>
