<svg width="34" height="36" viewBox="0 0 34 36" fill="none" xmlns="http://www.w3.org/2000/svg">
<path d="M7.40568 17.0703H3.19009C3.0578 17.0703 2.95059 17.1775 2.95059 17.3098V20.1149C2.95059 20.2472 3.0578 20.3544 3.19009 20.3544H7.40568C7.53796 20.3544 7.64517 20.2472 7.64517 20.1149V17.3098C7.64517 17.1775 7.53796 17.0703 7.40568 17.0703Z" fill="#6E85AE"/>
<path d="M7.40574 17.0703H5.29926V20.3544H7.40574C7.53802 20.3544 7.64523 20.2472 7.64523 20.1149V17.3098C7.64523 17.1775 7.53802 17.0703 7.40574 17.0703Z" fill="#5E7398"/>
<path d="M27.1618 4.03125C26.8717 4.03125 26.6366 4.26639 26.6366 4.55652V9.8476C26.6366 10.1377 26.8717 10.3729 27.1618 10.3729C27.452 10.3729 27.6871 10.1377 27.6871 9.8476V4.55652C27.6871 4.26646 27.452 4.03125 27.1618 4.03125Z" fill="#2D5872"/>
<path d="M28.0458 11.8449H26.2779C25.973 11.8449 25.7257 11.5976 25.7257 11.2927V9.36081C25.7257 9.05583 25.973 8.80859 26.2779 8.80859H28.0458C28.3508 8.80859 28.598 9.05583 28.598 9.36081V11.2927C28.598 11.5976 28.3508 11.8449 28.0458 11.8449Z" fill="#728DBD"/>
<path d="M30.5406 17.4454H23.7832C23.4926 17.4454 23.257 17.2098 23.257 16.9194V11.819C23.257 11.5285 23.4926 11.293 23.7832 11.293H30.5406C30.8311 11.293 31.0666 11.5285 31.0666 11.819V16.9194C31.0666 17.2098 30.8311 17.4454 30.5406 17.4454Z" fill="#728DBD"/>
<path d="M32.7049 35.3699H20.8472V13.8125H32.4137C32.5745 13.8125 32.7049 13.9429 32.7049 14.1037V35.3699Z" fill="#7E9BCE"/>
<path d="M32.4136 13.8125H29.1928C29.3537 13.8125 29.484 13.9429 29.484 14.1037V35.3699H32.7048V14.1037C32.7048 13.9429 32.5744 13.8125 32.4136 13.8125Z" fill="#728DBD"/>
<path d="M30.4873 18.9484H23.6926C23.4521 18.9484 23.2571 18.7533 23.2571 18.5129V17.5058C23.2571 17.2653 23.4521 17.0703 23.6926 17.0703H30.4873C30.7278 17.0703 30.9228 17.2653 30.9228 17.5058V18.5129C30.9228 18.7533 30.7278 18.9484 30.4873 18.9484Z" fill="#E1EFFB"/>
<path d="M30.4874 23.253H23.6926C23.4521 23.253 23.2572 23.058 23.2572 22.8176V21.8105C23.2572 21.5699 23.4522 21.375 23.6926 21.375H30.4874C30.7279 21.375 30.9228 21.57 30.9228 21.8105V22.8176C30.9228 23.058 30.7279 23.253 30.4874 23.253Z" fill="#E1EFFB"/>
<path d="M30.4874 27.5616H23.6926C23.4521 27.5616 23.2572 27.3666 23.2572 27.1262V26.1191C23.2572 25.8785 23.4522 25.6836 23.6926 25.6836H30.4874C30.7279 25.6836 30.9228 25.8786 30.9228 26.1191V27.1262C30.9228 27.3666 30.7279 27.5616 30.4874 27.5616Z" fill="#E1EFFB"/>
<path d="M30.4874 31.8663H23.6926C23.4521 31.8663 23.2572 31.6713 23.2572 31.4308V30.4238C23.2572 30.1832 23.4522 29.9883 23.6926 29.9883H30.4874C30.7279 29.9883 30.9228 30.1833 30.9228 30.4238V31.4308C30.9228 31.6714 30.7279 31.8663 30.4874 31.8663Z" fill="#E1EFFB"/>
<path d="M23.9299 35.3668H10.2371C10.0181 35.3668 9.84067 35.1894 9.84067 34.9704V1.02925C9.84067 0.810275 10.0181 0.632812 10.2371 0.632812H23.9299C24.1488 0.632812 24.3263 0.810275 24.3263 1.02925V34.9704C24.3263 35.1894 24.1488 35.3668 23.9299 35.3668Z" fill="#8F9FBB"/>
<path d="M23.9298 0.632812H20.709C20.928 0.632812 21.1055 0.810275 21.1055 1.02925V34.9704C21.1055 35.1894 20.928 35.3668 20.709 35.3668H23.9298C24.1488 35.3668 24.3263 35.1894 24.3263 34.9704V1.02925C24.3263 0.810275 24.1487 0.632812 23.9298 0.632812Z" fill="#7E8EA9"/>
<path d="M24.9487 0H9.05124C8.94258 0 8.85443 0.0880752 8.85443 0.196805V1.53113C8.85443 1.63979 8.94251 1.72793 9.05124 1.72793H24.9487C25.0574 1.72793 25.1455 1.63986 25.1455 1.53113V0.196805C25.1455 0.0880752 25.0574 0 24.9487 0Z" fill="#7E8EA9"/>
<path d="M13.8131 6.48808H11.8867C11.751 6.48808 11.641 6.37811 11.641 6.24237V3.89024C11.641 3.75457 11.7509 3.64453 11.8867 3.64453H13.8131C13.9487 3.64453 14.0588 3.7545 14.0588 3.89024V6.24244C14.0588 6.37811 13.9487 6.48808 13.8131 6.48808Z" fill="#E1EFFB"/>
<path d="M18.0467 6.48808H16.1203C15.9846 6.48808 15.8746 6.37811 15.8746 6.24237V3.89024C15.8746 3.75457 15.9846 3.64453 16.1203 3.64453H18.0467C18.1824 3.64453 18.2924 3.7545 18.2924 3.89024V6.24244C18.2924 6.37811 18.1824 6.48808 18.0467 6.48808Z" fill="#E1EFFB"/>
<path d="M22.2804 6.48808H20.354C20.2183 6.48808 20.1083 6.37811 20.1083 6.24237V3.89024C20.1083 3.75457 20.2182 3.64453 20.354 3.64453H22.2804C22.4161 3.64453 22.5261 3.7545 22.5261 3.89024V6.24244C22.5261 6.37811 22.4161 6.48808 22.2804 6.48808Z" fill="#E1EFFB"/>
<path d="M13.813 12.8319H11.8866C11.751 12.8319 11.6409 12.7219 11.6409 12.5862V10.234C11.6409 10.0983 11.7509 9.98828 11.8866 9.98828H13.813C13.9487 9.98828 14.0587 10.0983 14.0587 10.234V12.5862C14.0587 12.7219 13.9487 12.8319 13.813 12.8319Z" fill="#E1EFFB"/>
<path d="M18.0467 12.8319H16.1203C15.9846 12.8319 15.8746 12.7219 15.8746 12.5862V10.234C15.8746 10.0983 15.9846 9.98828 16.1203 9.98828H18.0467C18.1824 9.98828 18.2924 10.0983 18.2924 10.234V12.5862C18.2924 12.7219 18.1824 12.8319 18.0467 12.8319Z" fill="#E1EFFB"/>
<path d="M22.2804 12.8319H20.354C20.2183 12.8319 20.1083 12.7219 20.1083 12.5862V10.234C20.1083 10.0983 20.2182 9.98828 20.354 9.98828H22.2804C22.4161 9.98828 22.5261 10.0983 22.5261 10.234V12.5862C22.5261 12.7219 22.4161 12.8319 22.2804 12.8319Z" fill="#E1EFFB"/>
<path d="M13.813 19.1796H11.8866C11.751 19.1796 11.6409 19.0696 11.6409 18.9339V16.5817C11.6409 16.446 11.7509 16.3359 11.8866 16.3359H13.813C13.9487 16.3359 14.0587 16.4459 14.0587 16.5817V18.9339C14.0587 19.0696 13.9487 19.1796 13.813 19.1796Z" fill="#E1EFFB"/>
<path d="M18.0467 19.1796H16.1203C15.9846 19.1796 15.8746 19.0696 15.8746 18.9339V16.5817C15.8746 16.446 15.9846 16.3359 16.1203 16.3359H18.0467C18.1824 16.3359 18.2924 16.4459 18.2924 16.5817V18.9339C18.2924 19.0696 18.1824 19.1796 18.0467 19.1796Z" fill="#E1EFFB"/>
<path d="M22.2804 19.1796H20.354C20.2183 19.1796 20.1083 19.0696 20.1083 18.9339V16.5817C20.1083 16.446 20.2182 16.3359 20.354 16.3359H22.2804C22.4161 16.3359 22.5261 16.4459 22.5261 16.5817V18.9339C22.5261 19.0696 22.4161 19.1796 22.2804 19.1796Z" fill="#E1EFFB"/>
<path d="M18.0467 25.5233H16.1203C15.9846 25.5233 15.8746 25.4133 15.8746 25.2776V22.9254C15.8746 22.7897 15.9846 22.6797 16.1203 22.6797H18.0467C18.1824 22.6797 18.2924 22.7897 18.2924 22.9254V25.2776C18.2924 25.4133 18.1824 25.5233 18.0467 25.5233Z" fill="#E1EFFB"/>
<path d="M22.2804 25.5233H20.354C20.2183 25.5233 20.1083 25.4133 20.1083 25.2776V22.9254C20.1083 22.7897 20.2182 22.6797 20.354 22.6797H22.2804C22.4161 22.6797 22.5261 22.7897 22.5261 22.9254V25.2776C22.5261 25.4133 22.4161 25.5233 22.2804 25.5233Z" fill="#E1EFFB"/>
<path d="M18.0467 31.8671H16.1203C15.9846 31.8671 15.8746 31.7571 15.8746 31.6213V29.2692C15.8746 29.1335 15.9846 29.0234 16.1203 29.0234H18.0467C18.1824 29.0234 18.2924 29.1334 18.2924 29.2692V31.6213C18.2924 31.7571 18.1824 31.8671 18.0467 31.8671Z" fill="#E1EFFB"/>
<path d="M22.2804 31.8671H20.354C20.2183 31.8671 20.1083 31.7571 20.1083 31.6213V29.2692C20.1083 29.1335 20.2182 29.0234 20.354 29.0234H22.2804C22.4161 29.0234 22.5261 29.1334 22.5261 29.2692V31.6213C22.5261 31.7571 22.4161 31.8671 22.2804 31.8671Z" fill="#E1EFFB"/>
<path d="M16.166 35.3681H1.59785C1.43061 35.3681 1.29507 35.2326 1.29507 35.0654V19.6309C1.29507 19.4637 1.43061 19.3281 1.59785 19.3281H16.166C16.3333 19.3281 16.4688 19.4637 16.4688 19.6309V35.0654C16.4688 35.2326 16.3333 35.3681 16.166 35.3681Z" fill="#6E85AE"/>
<path d="M16.1661 19.3281H12.8873C13.0546 19.3281 13.1901 19.4637 13.1901 19.6309V35.0654C13.1901 35.2327 13.0546 35.3682 12.8873 35.3682H16.1661C16.3333 35.3682 16.4689 35.2327 16.4689 35.0654V19.6309C16.4689 19.4637 16.3333 19.3281 16.1661 19.3281Z" fill="#5E7398"/>
<path d="M5.29917 23.705H3.39254C3.22468 23.705 3.08859 23.569 3.08859 23.4011V22.1868C3.08859 22.0189 3.22468 21.8828 3.39254 21.8828H5.29917C5.46704 21.8828 5.60312 22.0189 5.60312 22.1868V23.4011C5.60312 23.569 5.46704 23.705 5.29917 23.705Z" fill="#E1EFFB"/>
<path d="M9.73761 23.705H7.83097C7.66311 23.705 7.52702 23.569 7.52702 23.4011V22.1868C7.52702 22.0189 7.66311 21.8828 7.83097 21.8828H9.73761C9.90547 21.8828 10.0416 22.0189 10.0416 22.1868V23.4011C10.0416 23.569 9.90547 23.705 9.73761 23.705Z" fill="#E1EFFB"/>
<path d="M14.1761 23.705H12.2694C12.1016 23.705 11.9655 23.569 11.9655 23.4011V22.1868C11.9655 22.0189 12.1016 21.8828 12.2694 21.8828H14.1761C14.3439 21.8828 14.48 22.0189 14.48 22.1868V23.4011C14.48 23.569 14.3439 23.705 14.1761 23.705Z" fill="#E1EFFB"/>
<path d="M5.29914 27.9668H3.39251C3.22465 27.9668 3.08856 27.8307 3.08856 27.6628V26.4485C3.08856 26.2806 3.22465 26.1445 3.39251 26.1445H5.29914C5.467 26.1445 5.60309 26.2806 5.60309 26.4485V27.6628C5.60309 27.8307 5.467 27.9668 5.29914 27.9668Z" fill="#E1EFFB"/>
<path d="M9.73761 27.9668H7.83097C7.66311 27.9668 7.52702 27.8307 7.52702 27.6628V26.4485C7.52702 26.2806 7.66311 26.1445 7.83097 26.1445H9.73761C9.90547 26.1445 10.0416 26.2806 10.0416 26.4485V27.6628C10.0416 27.8307 9.90547 27.9668 9.73761 27.9668Z" fill="#E1EFFB"/>
<path d="M14.1761 27.9668H12.2694C12.1016 27.9668 11.9655 27.8307 11.9655 27.6628V26.4485C11.9655 26.2806 12.1016 26.1445 12.2694 26.1445H14.1761C14.3439 26.1445 14.48 26.2806 14.48 26.4485V27.6628C14.48 27.8307 14.3439 27.9668 14.1761 27.9668Z" fill="#E1EFFB"/>
<path d="M5.29914 32.2285H3.39251C3.22465 32.2285 3.08856 32.0924 3.08856 31.9245V30.7102C3.08856 30.5423 3.22465 30.4062 3.39251 30.4062H5.29914C5.467 30.4062 5.60309 30.5423 5.60309 30.7102V31.9245C5.60309 32.0924 5.467 32.2285 5.29914 32.2285Z" fill="#E1EFFB"/>
<path d="M9.73761 32.2285H7.83097C7.66311 32.2285 7.52702 32.0924 7.52702 31.9245V30.7102C7.52702 30.5423 7.66311 30.4062 7.83097 30.4062H9.73761C9.90547 30.4062 10.0416 30.5423 10.0416 30.7102V31.9245C10.0416 32.0924 9.90547 32.2285 9.73761 32.2285Z" fill="#E1EFFB"/>
<path d="M14.1761 32.2285H12.2694C12.1016 32.2285 11.9655 32.0924 11.9655 31.9245V30.7102C11.9655 30.5423 12.1016 30.4062 12.2694 30.4062H14.1761C14.3439 30.4062 14.48 30.5423 14.48 30.7102V31.9245C14.48 32.0924 14.3439 32.2285 14.1761 32.2285Z" fill="#E1EFFB"/>
<path d="M33.1886 33.7461H0.811328C0.363215 33.7461 0 34.1093 0 34.5574C0 35.0055 0.363215 35.3688 0.811328 35.3688H33.1887C33.6368 35.3688 34 35.0055 34 34.5574C33.9999 34.1094 33.6367 33.7461 33.1886 33.7461Z" fill="#2D5872"/>
<path d="M33.9948 34.4684C33.9942 34.4631 33.9931 34.4578 33.9924 34.4524C33.9892 34.4278 33.9851 34.4035 33.9798 34.3796C33.979 34.3762 33.978 34.3729 33.9771 34.3695C33.9709 34.3433 33.9635 34.3177 33.9548 34.2925C33.9544 34.2915 33.9541 34.2906 33.9537 34.2896C33.9442 34.2625 33.9333 34.236 33.921 34.2102V34.2102C33.7908 33.9361 33.5122 33.7461 33.1886 33.7461H30.7791V33.9527C30.7791 34.3512 30.4561 34.6742 30.0576 34.6742H0.811328C0.487695 34.6742 0.209101 34.4843 0.0788877 34.2102C0.0288057 34.3156 0 34.433 0 34.5574C0 35.0055 0.363215 35.3688 0.811328 35.3688H30.7791H33.1886C33.6367 35.3688 33.9999 35.0055 33.9999 34.5574C33.9999 34.5274 33.998 34.4977 33.9948 34.4684Z" fill="#1D4859"/>
</svg>
