<svg width="18" height="18" viewBox="0 0 18 18" fill="none" xmlns="http://www.w3.org/2000/svg">
<path d="M8.9925 1.5C4.8525 1.5 1.5 4.86 1.5 9C1.5 13.14 4.8525 16.5 8.9925 16.5C13.14 16.5 16.5 13.14 16.5 9C16.5 4.86 13.14 1.5 8.9925 1.5ZM11.415 13.0425L9 11.5875L6.585 13.0425C6.52182 13.0808 6.44875 13.0997 6.3749 13.0968C6.30106 13.0939 6.2297 13.0693 6.16972 13.0262C6.10975 12.983 6.06381 12.9231 6.03763 12.854C6.01145 12.7849 6.00619 12.7096 6.0225 12.6375L6.66 9.8925L4.5375 8.055C4.48237 8.00589 4.44279 7.94173 4.42364 7.87043C4.40449 7.79912 4.40659 7.72377 4.4297 7.65364C4.45281 7.58351 4.49592 7.52167 4.55371 7.47572C4.61151 7.42977 4.68147 7.40171 4.755 7.395L7.56 7.155L8.655 4.5675C8.7825 4.26 9.2175 4.26 9.345 4.5675L10.44 7.1475L13.245 7.3875C13.3188 7.39385 13.3891 7.42192 13.447 7.46818C13.5049 7.51444 13.5478 7.57681 13.5702 7.64742C13.5927 7.71804 13.5938 7.79372 13.5732 7.86493C13.5527 7.93613 13.5116 7.99966 13.455 8.0475L11.3325 9.885L11.97 12.6375C12.045 12.96 11.7 13.215 11.415 13.0425Z" fill="#274B89"/>
</svg>
