<svg width="17" height="18" viewBox="0 0 17 18" fill="none" xmlns="http://www.w3.org/2000/svg">
<path d="M7.08333 14.328C6.91783 14.3283 6.75743 14.2707 6.63 14.1651C6.55827 14.1056 6.49898 14.0326 6.45552 13.9502C6.41207 13.8678 6.38529 13.7776 6.37674 13.6848C6.36819 13.592 6.37802 13.4985 6.40568 13.4095C6.43333 13.3205 6.47827 13.2379 6.53791 13.1663L9.71124 9.36967L6.65125 5.56592C6.59241 5.49346 6.54847 5.4101 6.52195 5.32061C6.49544 5.23112 6.48687 5.13727 6.49675 5.04446C6.50662 4.95164 6.53474 4.8617 6.57949 4.77979C6.62424 4.69788 6.68473 4.62562 6.7575 4.56717C6.83078 4.50268 6.91661 4.45404 7.00959 4.4243C7.10256 4.39456 7.20069 4.38436 7.29779 4.39433C7.3949 4.40431 7.4889 4.43425 7.57389 4.48228C7.65887 4.5303 7.73302 4.59538 7.79166 4.67342L11.2129 8.92342C11.3171 9.05016 11.374 9.20914 11.374 9.37321C11.374 9.53728 11.3171 9.69626 11.2129 9.823L7.67125 14.073C7.60019 14.1587 7.50992 14.2265 7.40777 14.2708C7.30562 14.3151 7.19447 14.3347 7.08333 14.328Z" fill="#3670D5"/>
</svg>
