<svg width="20" height="32" viewBox="0 0 20 32" fill="none" xmlns="http://www.w3.org/2000/svg">
<path d="M1.69513 28.4006H3.6714V29H0.958073V23.3547H1.69513V28.4006ZM6.38991 29.0729C5.97414 29.0729 5.59616 28.9784 5.25598 28.7894C4.92121 28.6004 4.65662 28.3331 4.46224 27.9876C4.27325 27.6366 4.17875 27.2316 4.17875 26.7726C4.17875 26.3191 4.27595 25.9195 4.47034 25.5739C4.67012 25.2229 4.94011 24.9557 5.28028 24.7721C5.62046 24.5831 6.00114 24.4886 6.42231 24.4886C6.84348 24.4886 7.22416 24.5831 7.56434 24.7721C7.90451 24.9557 8.1718 25.2202 8.36618 25.5658C8.56597 25.9114 8.66586 26.3137 8.66586 26.7726C8.66586 27.2316 8.56327 27.6366 8.35808 27.9876C8.1583 28.3331 7.88561 28.6004 7.54004 28.7894C7.19446 28.9784 6.81108 29.0729 6.38991 29.0729ZM6.38991 28.4249C6.65449 28.4249 6.90288 28.3628 7.13506 28.2386C7.36725 28.1145 7.55354 27.9282 7.69393 27.6798C7.83972 27.4314 7.91261 27.129 7.91261 26.7726C7.91261 26.4163 7.84242 26.1139 7.70203 25.8655C7.56164 25.6171 7.37805 25.4335 7.15126 25.3147C6.92448 25.1905 6.67879 25.1284 6.41421 25.1284C6.14423 25.1284 5.89584 25.1905 5.66906 25.3147C5.44767 25.4335 5.26948 25.6171 5.13449 25.8655C4.9995 26.1139 4.93201 26.4163 4.93201 26.7726C4.93201 27.1344 4.9968 27.4395 5.12639 27.6879C5.26138 27.9363 5.43957 28.1226 5.66096 28.2467C5.88234 28.3655 6.12533 28.4249 6.38991 28.4249ZM9.35957 26.7645C9.35957 26.311 9.45137 25.9141 9.63495 25.5739C9.81854 25.2283 10.0696 24.9611 10.3882 24.7721C10.7122 24.5831 11.0713 24.4886 11.4654 24.4886C11.8542 24.4886 12.1917 24.5723 12.4779 24.7397C12.7641 24.9071 12.9773 25.1177 13.1177 25.3714V24.5615H13.8629V29H13.1177V28.1739C12.9719 28.433 12.7533 28.649 12.4617 28.8218C12.1755 28.9892 11.8407 29.0729 11.4573 29.0729C11.0632 29.0729 10.7068 28.9757 10.3882 28.7813C10.0696 28.5869 9.81854 28.3142 9.63495 27.9633C9.45137 27.6123 9.35957 27.2127 9.35957 26.7645ZM13.1177 26.7726C13.1177 26.4379 13.0502 26.1463 12.9152 25.8979C12.7803 25.6495 12.5967 25.4605 12.3645 25.3309C12.1377 25.1959 11.8866 25.1284 11.6112 25.1284C11.3358 25.1284 11.0848 25.1932 10.858 25.3228C10.6312 25.4524 10.4503 25.6414 10.3153 25.8898C10.1803 26.1382 10.1128 26.4298 10.1128 26.7645C10.1128 27.1047 10.1803 27.4017 10.3153 27.6555C10.4503 27.9039 10.6312 28.0956 10.858 28.2305C11.0848 28.3601 11.3358 28.4249 11.6112 28.4249C11.8866 28.4249 12.1377 28.3601 12.3645 28.2305C12.5967 28.0956 12.7803 27.9039 12.9152 27.6555C13.0502 27.4017 13.1177 27.1074 13.1177 26.7726ZM17.271 24.4805C17.811 24.4805 18.2483 24.6452 18.5831 24.9746C18.9179 25.2985 19.0853 25.7683 19.0853 26.3839V29H18.3563V26.4892C18.3563 26.0464 18.2456 25.7089 18.0242 25.4767C17.8029 25.2391 17.5005 25.1204 17.1171 25.1204C16.7283 25.1204 16.4178 25.2418 16.1857 25.4848C15.9589 25.7278 15.8455 26.0815 15.8455 26.5459V29H15.1084V24.5615H15.8455V25.1932C15.9913 24.9665 16.1884 24.791 16.4367 24.6668C16.6905 24.5426 16.9686 24.4805 17.271 24.4805Z" fill="#929AA7"/>
<path d="M12.4667 17.9819C11.9354 17.994 10.6132 18 8.5 18C6.38681 18 5.06458 17.994 4.53333 17.9819C3.03403 17.9456 1.90365 17.8429 1.14219 17.6737C0.380729 17.5045 0 17.2205 0 16.8218C0 16.5801 0.118056 16.0937 0.354167 15.3625C0.590278 14.6314 0.85 13.864 1.13333 13.0604C1.41667 12.2568 1.67639 11.3323 1.9125 10.287C2.14861 9.24169 2.26667 8.32628 2.26667 7.54079C2.26667 5.22054 4.34444 4.06042 8.5 4.06042C12.6556 4.06042 14.7333 5.22054 14.7333 7.54079C14.7333 8.32628 14.8514 9.24169 15.0875 10.287C15.3236 11.3323 15.5833 12.2568 15.8667 13.0604C16.15 13.864 16.4097 14.6314 16.6458 15.3625C16.8819 16.0937 17 16.5801 17 16.8218C17 17.2205 16.6193 17.5045 15.8578 17.6737C15.0964 17.8429 13.966 17.9456 12.4667 17.9819ZM8.5 8.12085C9.30278 8.12085 9.97274 8.21752 10.5099 8.41088C11.047 8.60423 11.3215 8.88822 11.3333 9.26284V9.28097C11.3333 9.43807 11.3894 9.57402 11.5016 9.68882C11.6137 9.80363 11.7465 9.86103 11.9 9.86103C12.0535 9.86103 12.1863 9.80363 12.2984 9.68882C12.4106 9.57402 12.4667 9.43807 12.4667 9.28097C12.4667 7.86707 11.3333 7.0997 9.06667 6.97885V6.38066C9.06667 6.22357 9.01059 6.08761 8.89844 5.97281C8.78628 5.85801 8.65347 5.8006 8.5 5.8006C8.34653 5.8006 8.21372 5.85801 8.10156 5.97281C7.98941 6.08761 7.93333 6.22357 7.93333 6.38066V6.97885C5.66667 7.0997 4.53333 7.86707 4.53333 9.28097C4.53333 9.54683 4.5717 9.77643 4.64844 9.96979C4.72517 10.1631 4.84913 10.3233 5.02031 10.4502C5.19149 10.577 5.37743 10.6798 5.57812 10.7583C5.77882 10.8369 6.04444 10.8943 6.375 10.9305C6.70556 10.9668 7.02431 10.9909 7.33125 11.003C7.63819 11.0151 8.02778 11.0211 8.5 11.0211C9.31458 11.0211 9.99045 11.1208 10.5276 11.3202C11.0648 11.5196 11.3333 11.8066 11.3333 12.1813C11.3333 12.5559 11.0648 12.8429 10.5276 13.0423C9.99045 13.2417 9.31458 13.3414 8.5 13.3414C7.69722 13.3414 7.02726 13.2447 6.4901 13.0514C5.95295 12.858 5.67847 12.574 5.66667 12.1994V12.1813C5.66667 12.0242 5.61059 11.8882 5.49844 11.7734C5.38628 11.6586 5.25347 11.6012 5.1 11.6012C4.94653 11.6012 4.81372 11.6586 4.70156 11.7734C4.58941 11.8882 4.53333 12.0242 4.53333 12.1813C4.53333 13.5952 5.66667 14.3625 7.93333 14.4834V15.0816C7.93333 15.2387 7.98941 15.3746 8.10156 15.4894C8.21372 15.6042 8.34653 15.6616 8.5 15.6616C8.65347 15.6616 8.78628 15.6042 8.89844 15.4894C9.01059 15.3746 9.06667 15.2387 9.06667 15.0816V14.4834C11.3333 14.3625 12.4667 13.5952 12.4667 12.1813C12.4667 10.6344 11.1444 9.86103 8.5 9.86103C8.33472 9.86103 8.12813 9.86405 7.88021 9.87009C7.63229 9.87613 7.4316 9.88218 7.27812 9.88822C7.12465 9.89426 6.95347 9.89426 6.76458 9.88822C6.57569 9.88218 6.42222 9.86707 6.30417 9.8429C6.18611 9.81873 6.07396 9.7855 5.96771 9.7432C5.86146 9.70091 5.78472 9.64048 5.7375 9.56193C5.69028 9.48338 5.66667 9.38973 5.66667 9.28097C5.66667 8.90634 5.93819 8.61934 6.48125 8.41994C7.02431 8.22054 7.69722 8.12085 8.5 8.12085ZM8.5 2.9003C7.79167 2.9003 7.14236 2.93656 6.55208 3.00906C6.30417 2.50151 6.09462 2.00906 5.92344 1.53172C5.75226 1.05438 5.66667 0.73716 5.66667 0.58006C5.66667 0.386707 5.82014 0.193353 6.12708 0C6.41042 0.169184 6.77049 0.308157 7.20729 0.416918C7.6441 0.52568 8.075 0.58006 8.5 0.58006C8.925 0.58006 9.3559 0.52568 9.79271 0.416918C10.2295 0.308157 10.5896 0.169184 10.8729 0C11.1799 0.193353 11.3333 0.386707 11.3333 0.58006C11.3333 0.73716 11.2477 1.05438 11.0766 1.53172C10.9054 2.00906 10.6958 2.50151 10.4479 3.00906C9.85764 2.93656 9.20833 2.9003 8.5 2.9003Z" fill="#929AA7"/>
</svg>
