<svg width="24" height="20" viewBox="0 0 24 20" fill="none" xmlns="http://www.w3.org/2000/svg">
<path d="M2 4H0V9H0.01L0 18C0.00158273 18.5299 0.212805 19.0377 0.587535 19.4125C0.962265 19.7872 1.47005 19.9984 2 20H20V18H2V4ZM22 2H14L12 0H6C5.4713 0.00264352 4.96516 0.214524 4.59225 0.58931C4.21933 0.964097 4.00999 1.4713 4.01 2L4 14C4.00158 14.5299 4.2128 15.0377 4.58753 15.4125C4.96227 15.7872 5.47005 15.9984 6 16H22C22.5299 15.9984 23.0377 15.7872 23.4125 15.4125C23.7872 15.0377 23.9984 14.5299 24 14V4C23.9984 3.47005 23.7872 2.96227 23.4125 2.58753C23.0377 2.2128 22.5299 2.00158 22 2ZM7 13L11.5 7L15 11.51L17.5 8.5L21 13H7Z" fill="#C4C4C4"/>
</svg>
