<svg width="35" height="33" viewBox="0 0 35 33" fill="none" xmlns="http://www.w3.org/2000/svg">
<path d="M24.6299 30.9431L19.793 31.6291L14.9562 30.9431L15.6424 26.8266L19.793 26.1406L23.9436 26.8266L24.6299 30.9431Z" fill="#AFAFAF"/>
<path d="M24.6299 30.9407H22.5716L21.8856 26.8242H23.9436L24.6299 30.9407Z" fill="#919191"/>
<path d="M34.0975 23.7375H5.48849V5.28241C5.48849 4.52462 6.10295 3.91016 6.86075 3.91016H32.7253C33.4831 3.91016 34.0975 4.52462 34.0975 5.28241V23.7375Z" fill="#6E85AE"/>
<path d="M34.0976 5.28241V23.0515H32.0393V5.28241C32.0393 4.52436 31.4254 3.91016 30.6673 3.91016H32.7253C33.4836 3.91042 34.0976 4.52436 34.0976 5.28241Z" fill="#5E7398"/>
<path d="M31.6964 20.9936H7.88987C7.70022 20.9936 7.54674 20.8401 7.54674 20.6507V6.31188C7.54674 6.12249 7.70022 5.96875 7.88987 5.96875H31.6964C31.8858 5.96875 32.0393 6.12249 32.0393 6.31188V20.6507C32.0393 20.8401 31.8858 20.9936 31.6964 20.9936Z" fill="white"/>
<path d="M11.3201 20.994V12.5898H7.54674V20.6512C7.54674 20.8406 7.70022 20.994 7.88987 20.994H11.3201Z" fill="#E8E8E8"/>
<path d="M32.0393 8.02701H14.7504V5.96875H31.6964C31.8858 5.96875 32.0393 6.12249 32.0393 6.31188V8.02701Z" fill="#D8D8D8"/>
<path d="M26.0019 32.9997H13.5842C13.0158 32.9997 12.5551 32.5389 12.5551 31.9705C12.5551 31.4021 13.0158 30.9414 13.5842 30.9414H26.0019C26.5703 30.9414 27.031 31.4021 27.031 31.9705C27.031 32.5387 26.5703 32.9997 26.0019 32.9997Z" fill="#D8D8D8"/>
<path d="M27.031 31.9705C27.031 32.2544 26.9158 32.5116 26.7293 32.6976C26.5433 32.8842 26.286 32.9997 26.0019 32.9997H23.9436C24.2277 32.9997 24.485 32.8842 24.671 32.6976C24.8575 32.5116 24.9728 32.2544 24.9728 31.9705C24.9728 31.5142 24.6757 31.1271 24.2649 30.9929C24.164 30.9591 24.0555 30.9414 23.9436 30.9414H26.0019C26.57 30.9414 27.031 31.4024 27.031 31.9705Z" fill="#AFAFAF"/>
<path d="M32.7253 26.8242H6.86075C6.10295 26.8242 5.48849 26.2097 5.48849 25.4519V23.0508H34.0975V25.4519C34.0975 26.21 33.4831 26.8242 32.7253 26.8242Z" fill="#D8D8D8"/>
<path d="M34.0976 23.0508V25.4519C34.0976 26.21 33.4836 26.8242 32.7253 26.8242H30.6673C31.4254 26.8242 32.0393 26.2102 32.0393 25.4519V23.0508H34.0976Z" fill="#AFAFAF"/>
<path d="M12.0062 14.7504H2.74426C1.22866 14.7504 0 13.5218 0 12.0062V2.74426C0 1.22866 1.22866 0 2.74426 0H12.0062C13.5218 0 14.7504 1.22866 14.7504 2.74426V12.0062C14.7504 13.5218 13.5218 14.7504 12.0062 14.7504Z" fill="#B5C4DD"/>
<path d="M14.7504 2.74426V12.0062C14.7504 13.5218 13.5217 14.7504 12.0061 14.7504H9.94815C11.4635 14.7504 12.6924 13.5218 12.6924 12.0062V2.74426C12.6924 1.22866 11.4635 0 9.94815 0H12.0061C13.5217 0 14.7504 1.22866 14.7504 2.74426Z" fill="#5E7398"/>
<path d="M12.3493 7.67103V7.08129C12.3493 6.86407 12.1732 6.68821 11.956 6.68821H11.8514C11.4404 6.68821 11.0741 6.43197 10.9299 6.04696C10.8995 5.96553 10.8662 5.88541 10.8306 5.80658C10.6597 5.43094 10.7351 4.98947 11.0267 4.69785L11.1009 4.62371C11.2543 4.47023 11.2543 4.22127 11.1009 4.06752L10.6839 3.65051C10.5304 3.49703 10.2814 3.49703 10.1277 3.65051L10.0538 3.72465C9.7619 4.01654 9.32044 4.09198 8.94479 3.92106C8.86623 3.88516 8.78584 3.85186 8.70442 3.82143C8.31941 3.67731 8.06343 3.31103 8.06343 2.9V2.79542C8.06343 2.5782 7.88731 2.40234 7.67009 2.40234H7.08034C6.86312 2.40234 6.68727 2.5782 6.68727 2.79542V2.9C6.68727 3.31103 6.43102 3.67731 6.04601 3.82143C5.96459 3.85186 5.88446 3.88516 5.80564 3.92106C5.42999 4.09198 4.98853 4.01654 4.69691 3.72465L4.62276 3.65051C4.46928 3.49703 4.22032 3.49703 4.06658 3.65051L3.64957 4.06752C3.49608 4.22127 3.49608 4.47023 3.64957 4.62371L3.72371 4.69785C4.01559 4.98947 4.09103 5.43094 3.92012 5.80658C3.88422 5.88541 3.85092 5.96553 3.82048 6.04696C3.67636 6.43197 3.31008 6.68821 2.89905 6.68821H2.79447C2.57725 6.68821 2.4014 6.86407 2.4014 7.08129V7.67103C2.4014 7.88825 2.57725 8.06437 2.79447 8.06437H2.89905C3.31008 8.06437 3.67636 8.32061 3.82048 8.70537C3.85092 8.78679 3.88422 8.86718 3.92012 8.94574C4.09103 9.32139 4.01559 9.76285 3.72371 10.0547L3.64957 10.1286C3.49608 10.2824 3.49608 10.5313 3.64957 10.6848L4.06658 11.1018C4.22032 11.2553 4.46928 11.2553 4.62276 11.1018L4.69691 11.0277C4.98853 10.736 5.42999 10.6606 5.80564 10.8315C5.88446 10.8672 5.96459 10.9005 6.04601 10.9309C6.43102 11.075 6.68727 11.4413 6.68727 11.8523V11.9569C6.68727 12.1741 6.86312 12.3502 7.08034 12.3502H7.67009C7.88731 12.3502 8.06343 12.1741 8.06343 11.9569V11.8523C8.06343 11.4413 8.31967 11.075 8.70442 10.9309C8.78584 10.9005 8.86623 10.8672 8.94479 10.8315C9.32044 10.6606 9.7619 10.736 10.0538 11.0277L10.1277 11.1018C10.2814 11.2553 10.5304 11.2553 10.6839 11.1018L11.1009 10.6848C11.2543 10.5313 11.2543 10.2824 11.1009 10.1286L11.0267 10.0547C10.7351 9.76285 10.6597 9.32139 10.8306 8.94574C10.8662 8.86718 10.8995 8.78679 10.9299 8.70537C11.0741 8.32035 11.4404 8.06437 11.8514 8.06437H11.956C12.1732 8.06437 12.3493 7.88825 12.3493 7.67103Z" fill="#FAFEFF"/>
<path d="M7.37506 9.05689C6.44687 9.05689 5.69427 8.30429 5.69427 7.3761C5.69427 6.44765 6.44687 5.69531 7.37506 5.69531C8.30352 5.69531 9.05611 6.44765 9.05611 7.3761C9.05611 8.30429 8.30352 9.05689 7.37506 9.05689Z" fill="#5E7398"/>
<path d="M23.7038 11.9703H18.7639C18.4798 11.9703 18.2494 11.74 18.2494 11.4557C18.2494 11.1716 18.4798 10.9414 18.7639 10.9414H23.7038C23.9879 10.9414 24.2181 11.1716 24.2181 11.4557C24.2181 11.74 23.9879 11.9703 23.7038 11.9703Z" fill="#747A89"/>
<path d="M28.3003 11.9703H25.7618C25.4777 11.9703 25.2472 11.74 25.2472 11.4557C25.2472 11.1716 25.4777 10.9414 25.7618 10.9414H28.3003C28.5846 10.9414 28.8148 11.1716 28.8148 11.4557C28.8148 11.74 28.5846 11.9703 28.3003 11.9703Z" fill="#747A89"/>
<path d="M23.7038 14.0291H21.6455C21.3612 14.0291 21.131 13.7989 21.131 13.5146C21.131 13.2305 21.3614 13 21.6455 13H23.7038C23.9878 13 24.2181 13.2305 24.2181 13.5146C24.2181 13.7989 23.9878 14.0291 23.7038 14.0291Z" fill="#F2D67C"/>
<path d="M28.3002 14.0291H25.7618C25.4777 14.0291 25.2472 13.7989 25.2472 13.5146C25.2472 13.2305 25.4777 13 25.7618 13H28.3002C28.5846 13 28.8148 13.2305 28.8148 13.5146C28.8148 13.7989 28.5846 14.0291 28.3002 14.0291Z" fill="#F2D67C"/>
<path d="M23.7037 16.0877H21.6455C21.3611 16.0877 21.1309 15.8572 21.1309 15.5732C21.1309 15.2891 21.3614 15.0586 21.6455 15.0586H23.7037C23.9878 15.0586 24.218 15.2891 24.218 15.5732C24.218 15.8572 23.9878 16.0877 23.7037 16.0877Z" fill="#F2D67C"/>
<path d="M28.3002 16.0877H25.7618C25.4777 16.0877 25.2472 15.8572 25.2472 15.5732C25.2472 15.2891 25.4777 15.0586 25.7618 15.0586H28.3002C28.5846 15.0586 28.8148 15.2891 28.8148 15.5732C28.8148 15.8572 28.5846 16.0877 28.3002 16.0877Z" fill="#F2D67C"/>
<path d="M23.7038 18.1463H18.7639C18.4798 18.1463 18.2494 17.9158 18.2494 17.6318C18.2494 17.3474 18.4798 17.1172 18.7639 17.1172H23.7038C23.9879 17.1172 24.2181 17.3474 24.2181 17.6318C24.2181 17.9158 23.9879 18.1463 23.7038 18.1463Z" fill="#747A89"/>
<path d="M28.3003 18.1463H25.7618C25.4777 18.1463 25.2472 17.9158 25.2472 17.6318C25.2472 17.3474 25.4777 17.1172 25.7618 17.1172H28.3003C28.5846 17.1172 28.8148 17.3474 28.8148 17.6318C28.8148 17.9158 28.5846 18.1463 28.3003 18.1463Z" fill="#747A89"/>
</svg>
