<svg width="11" height="9" viewBox="0 0 11 9" fill="none" xmlns="http://www.w3.org/2000/svg">
<g clip-path="url(#clip0_24575_3791)">
<path d="M1.58828 0.75C1.27861 0.75 0.981631 0.873014 0.762665 1.09198C0.543699 1.31095 0.420685 1.60793 0.420685 1.91759L0.420685 7.17176C0.420685 7.48143 0.543699 7.77841 0.762665 7.99737C0.981631 8.21634 1.27861 8.33935 1.58828 8.33935H3.92346V0.75H1.58828Z" fill="#009A49"/>
<path d="M3.92346 0.75H7.42624V8.33935H3.92346V0.75Z" fill="#EEEEEE"/>
<path d="M9.76139 0.75H7.42621V8.33935H9.76139C10.0711 8.33935 10.368 8.21634 10.587 7.99737C10.806 7.77841 10.929 7.48143 10.929 7.17176V1.91759C10.929 1.60793 10.806 1.31095 10.587 1.09198C10.368 0.873014 10.0711 0.75 9.76139 0.75V0.75Z" fill="#009A49"/>
</g>
<defs>
<clipPath id="clip0_24575_3791">
<rect width="10.5305" height="8.00318" fill="white" transform="translate(0.420685 0.554688)"/>
</clipPath>
</defs>
</svg>
