<svg width="29" height="26" viewBox="0 0 29 26" fill="none" xmlns="http://www.w3.org/2000/svg">
<g clip-path="url(#clip0_22826_9912)">
<path d="M17.6031 8.47708C16.7335 7.57431 15.8273 6.78889 14.8844 6.12083C13.9415 5.45278 13.0582 4.95174 12.2343 4.61771C11.4104 4.28368 10.6552 4.12344 9.96868 4.13698C9.28213 4.15052 8.74662 4.36042 8.36215 4.76667C8.27061 4.85694 8.1928 4.95851 8.12872 5.07135C8.06464 5.1842 8.01887 5.27222 7.99141 5.33542C7.96395 5.39861 7.92733 5.51146 7.88156 5.67396C7.83579 5.83646 7.80375 5.94028 7.78544 5.98542L2.67749 22.5604L2.9933 22.8854C2.63629 23.1292 2.31819 23.4135 2.03899 23.7385C1.75979 24.0635 1.51492 24.3299 1.30438 24.5375C1.09384 24.7451 0.842102 24.8896 0.549173 24.9708C0.485095 24.9889 0.404997 25.0498 0.308879 25.1536C0.212762 25.2575 0.164703 25.35 0.164703 25.4312C0.164703 25.5938 0.24709 25.7292 0.411862 25.8375C0.576635 25.9458 0.759716 26 0.961105 26C1.21742 26 1.46458 25.8984 1.70258 25.6953C1.94059 25.4922 2.18088 25.2326 2.42346 24.9167C2.66604 24.6007 2.84226 24.3931 2.95211 24.2938C3.19011 24.0861 3.45558 23.8875 3.74851 23.6979L4.10552 24.0365L20.3356 18.6063C20.6926 18.4979 20.9673 18.3354 21.1595 18.1187C21.544 17.7125 21.7431 17.1505 21.7568 16.4328C21.7705 15.7151 21.6172 14.9252 21.2968 14.063C20.9764 13.2009 20.4981 12.28 19.8619 11.3005C19.2257 10.321 18.4728 9.37986 17.6031 8.47708ZM16.1202 9.95312C17.5208 11.3615 18.5849 12.7089 19.3127 13.9953C20.0404 15.2818 20.2166 16.1281 19.8413 16.5344C19.466 16.9406 18.6467 16.7917 17.3835 16.0875C16.1202 15.3833 14.7929 14.3316 13.4014 12.9323C11.9917 11.524 10.923 10.1788 10.1952 8.89688C9.4675 7.61493 9.29128 6.76632 9.6666 6.35104C10.0419 5.94479 10.8635 6.09375 12.1313 6.79792C13.3992 7.50208 14.7288 8.55382 16.1202 9.95312ZM13.1131 15.5594C13.7813 16.1462 14.445 16.6608 15.1041 17.1031C15.1133 17.1212 15.3421 17.5455 15.7906 18.376L14.6372 18.7687C14.088 17.7486 13.5799 16.6788 13.1131 15.5594ZM8.4308 9.35729C8.63219 9.79965 8.91139 10.3368 9.2684 10.9688C9.56133 12.2688 10.0213 13.6771 10.6484 15.1938C11.2754 16.7104 11.9597 18.1323 12.7012 19.4594L11.5615 19.8385C10.701 18.2677 9.95037 16.6224 9.30959 14.9026C8.66881 13.1828 8.27518 11.6639 8.12872 10.3458L8.4308 9.35729ZM6.838 14.3135C7.47878 16.3358 8.38045 18.4122 9.54302 20.5427L8.41707 20.9354C7.51082 19.2201 6.79681 17.6087 6.27502 16.101L6.838 14.3135ZM5.25893 19.2563C5.61593 20.0868 5.99583 20.8767 6.3986 21.626L5.27266 22.0188C5.1445 21.775 4.96142 21.4003 4.72342 20.8948L5.25893 19.2563ZM15.3513 0L16.0378 2.04479L14.2665 3.31771H16.4497L17.1226 5.3625L17.7954 3.31771H19.9649L18.2073 2.04479L18.8939 0.0135417L17.1226 1.27292L15.3513 0ZM11.5066 0L11.1358 1.85521L13.017 2.22083L13.3877 0.365625L11.5066 0ZM23.8782 5.57917L25.3887 4.02187L27.3522 4.96979L26.3361 3.07396L27.8603 1.54375L25.7045 1.90938L24.6884 0L24.3863 2.13958L22.2305 2.50521L24.1941 3.43958L23.8782 5.57917ZM23.3702 8.91042L25.1964 10.1021L24.6197 12.1875L26.3224 10.8333L28.1349 12.025L27.3797 9.99375L29.0823 8.66667L26.8991 8.76146L26.1301 6.74375L25.5672 8.81563L23.3702 8.91042ZM22.5875 3.88646L18.4957 7.19063L19.0037 7.8L23.0956 4.49583L22.5875 3.88646ZM24.0156 10.2781L20.8162 9.99375L20.7338 10.7792L23.9469 11.0635L24.0156 10.2781ZM24.3314 14.0698L23.7409 15.8844L25.5672 16.4667L26.1713 14.6656L24.3314 14.0698Z" fill="#929AA7"/>
</g>
<defs>
<clipPath id="clip0_22826_9912">
<rect width="29" height="26" fill="white"/>
</clipPath>
</defs>
</svg>
