<svg width="21" height="21" viewBox="0 0 21 21" fill="none" xmlns="http://www.w3.org/2000/svg">
<g clip-path="url(#clip0_4713_53705)">
<path d="M10.5 0C16.2987 0 21 4.70106 21 10.5C21 16.2989 16.2987 21 10.5 21C4.70106 21 0 16.2989 0 10.5C0 4.70106 4.70106 0 10.5 0Z" fill="#ECF7FF"/>
<path d="M4.6179 14.0486C4.38121 13.9999 4.16858 13.871 4.01592 13.6837C3.86326 13.4964 3.77993 13.2621 3.78 13.0205C3.78 12.8699 3.78084 12.7321 3.7821 12.6005H3.78V8.61047C3.78 8.44338 3.71363 8.28314 3.59548 8.16499C3.47733 8.04684 3.31709 7.98047 3.15 7.98047H2.31C2.14291 7.98047 1.98267 8.04684 1.86452 8.16499C1.74637 8.28314 1.68 8.44338 1.68 8.61047V12.6005H1.6779C1.67916 12.7321 1.68 12.8699 1.68 13.0205C1.68007 13.2621 1.59674 13.4964 1.44408 13.6837C1.29142 13.871 1.07879 13.9999 0.8421 14.0486C0.34818 14.144 0 14.6037 0 15.1205V15.5405C0 15.8189 0.110625 16.086 0.307538 16.2829C0.504451 16.4798 0.771523 16.5905 1.05 16.5905H4.41C4.68848 16.5905 4.95555 16.4798 5.15246 16.2829C5.34938 16.086 5.46 15.8189 5.46 15.5405V15.1205C5.46 14.6037 5.11182 14.144 4.6179 14.0486ZM2.73 9.45047C2.67483 9.45046 2.62021 9.43958 2.56924 9.41845C2.51828 9.39733 2.47197 9.36637 2.43297 9.32735C2.39397 9.28833 2.36304 9.24201 2.34194 9.19103C2.32084 9.14006 2.30999 9.08543 2.31 9.03026C2.31001 8.97509 2.32089 8.92046 2.34202 8.8695C2.36314 8.81854 2.3941 8.77223 2.43312 8.73323C2.47214 8.69423 2.51846 8.6633 2.56943 8.6422C2.62041 8.6211 2.67504 8.61025 2.73021 8.61026C2.84163 8.61029 2.94847 8.65457 3.02724 8.73338C3.106 8.81218 3.15024 8.91905 3.15021 9.03047C3.15018 9.14189 3.10589 9.24873 3.02709 9.3275C2.94829 9.40626 2.84142 9.4505 2.73 9.45047Z" fill="#DF9274"/>
<path d="M0.840047 14.0508C0.357677 14.1447 0.0170571 14.5869 0.0027771 15.0897C0.0170571 15.8226 0.370487 16.429 0.840047 16.5704V14.0508Z" fill="#C88368"/>
<path d="M0 17.4297H5.46V20.9997H0V17.4297Z" fill="#2C3E50"/>
<path d="M0.419983 20.9997H0.839983V17.4297H0.419983V20.9997ZM1.25998 20.9997H1.67998V17.4297H1.25998V20.9997ZM2.09998 20.9997H2.51998V17.4297H2.09998V20.9997ZM2.93998 20.9997H3.35998V17.4297H2.93998V20.9997ZM3.77998 20.9997H4.19998V17.4297H3.77998V20.9997ZM4.61998 17.4297V20.9997H5.03998V17.4297H4.61998Z" fill="#283848"/>
<path d="M0 14.9102H5.46V17.2202H0V14.9102Z" fill="#95A5A6"/>
<path d="M0 17.0102H5.46V17.4302H0V17.0102ZM0 14.9102H5.46V15.3302H0V14.9102Z" fill="#BDC3C7"/>
<path d="M1.67999 8.61047V10.0805H3.77999V8.61047C3.77999 8.44338 3.71362 8.28314 3.59547 8.16499C3.47732 8.04684 3.31708 7.98047 3.14999 7.98047H2.30999C2.14291 7.98047 1.98266 8.04684 1.86452 8.16499C1.74637 8.28314 1.67999 8.44338 1.67999 8.61047ZM2.72999 8.61047C2.78516 8.61048 2.83979 8.62136 2.89075 8.64249C2.94172 8.66361 2.98802 8.69457 3.02702 8.73359C3.06602 8.77261 3.09695 8.81893 3.11805 8.8699C3.13915 8.92088 3.15001 8.97551 3.14999 9.03068C3.14998 9.08585 3.1391 9.14047 3.11797 9.19144C3.09685 9.2424 3.06589 9.28871 3.02687 9.32771C2.98785 9.36671 2.94153 9.39764 2.89056 9.41874C2.83958 9.43984 2.78495 9.45069 2.72978 9.45068C2.61836 9.45065 2.51152 9.40636 2.43275 9.32756C2.35399 9.24875 2.30975 9.14189 2.30978 9.03047C2.30981 8.91905 2.3541 8.81221 2.4329 8.73344C2.51171 8.65468 2.61857 8.61044 2.72999 8.61047Z" fill="#C0392C"/>
<path d="M0 14.9102H0.84V17.2202H0V14.9102Z" fill="#869495"/>
<path d="M0 14.9102H0.84V15.3302H0V14.9102ZM0 17.0102H0.84V17.4302H0V17.0102Z" fill="#AAAFB3"/>
<path d="M25.2 9.24078H24.4762C24.4762 5.1294 21.1739 1.67931 17.115 1.67931C13.0561 1.67931 9.64911 5.1294 9.64911 9.24078H9.03003C9.03003 4.72473 12.6569 1.05078 17.115 1.05078C21.5731 1.05078 25.2 4.72473 25.2 9.24078Z" fill="#7F8C8D"/>
<path d="M8.19 9.24219H24.78V26.4622H8.19V9.24219Z" fill="#2C3E50"/>
<path d="M8.19 14.2812H24.78V18.4812H8.19V14.2812Z" fill="#F1C40E"/>
<path d="M16.17 9.24219H11.97V12.2872C11.97 12.5935 12.0917 12.8873 12.3083 13.1039C12.5249 13.3205 12.8187 13.4422 13.125 13.4422C13.4313 13.4422 13.7251 13.3205 13.9417 13.1039C14.1583 12.8873 14.28 12.5935 14.28 12.2872V11.4472C14.28 10.9255 14.7034 10.5022 15.225 10.5022C15.7466 10.5022 16.17 10.9255 16.17 11.4472V11.3422C16.17 11.565 16.2585 11.7786 16.416 11.9362C16.5736 12.0937 16.7872 12.1822 17.01 12.1822C17.2328 12.1822 17.4464 12.0937 17.604 11.9362C17.7615 11.7786 17.85 11.565 17.85 11.3422V9.24219H16.17Z" fill="#253544"/>
<path d="M16.59 9.24219H12.39V11.8672C12.39 12.1735 12.5117 12.4673 12.7283 12.6839C12.9449 12.9005 13.2387 13.0222 13.545 13.0222C13.8513 13.0222 14.1451 12.9005 14.3617 12.6839C14.5783 12.4673 14.7 12.1735 14.7 11.8672V11.0272C14.7052 10.78 14.8071 10.5447 14.9837 10.3717C15.1604 10.1988 15.3978 10.1019 15.645 10.1019C15.8922 10.1019 16.1296 10.1988 16.3063 10.3717C16.4829 10.5447 16.5848 10.78 16.59 11.0272V10.9222C16.59 11.145 16.6785 11.3586 16.836 11.5162C16.9936 11.6737 17.2072 11.7622 17.43 11.7622C17.6528 11.7622 17.8665 11.6737 18.024 11.5162C18.1815 11.3586 18.27 11.145 18.27 10.9222V9.24219H16.59Z" fill="#F1C40E"/>
<path d="M8.19 9.24219H10.29V23.5222H8.19V9.24219Z" fill="#283848"/>
<path d="M8.19 14.2812H10.29V18.4812H8.19V14.2812Z" fill="#D8B00C"/>
</g>
<defs>
<clipPath id="clip0_4713_53705">
<rect width="21" height="21" fill="white"/>
</clipPath>
</defs>
</svg>
