<svg width="15" height="17" viewBox="0 0 15 17" fill="none" xmlns="http://www.w3.org/2000/svg">
<path d="M8.82538 0.651367V4.80141C8.82538 5.1683 8.97113 5.52016 9.23055 5.77959C9.48998 6.03901 9.84184 6.18476 10.2087 6.18476H14.3588V14.0237C14.3588 14.3906 14.213 14.7425 13.9536 15.0019C13.6942 15.2613 13.3423 15.4071 12.9754 15.4071H8.58837C9.27716 14.573 9.68125 13.5405 9.74163 12.4605C9.80201 11.3804 9.51551 10.3093 8.92399 9.40366C8.33246 8.49798 7.46688 7.80514 6.45365 7.4263C5.44042 7.04745 4.33261 7.00246 3.29199 7.29789V2.03472C3.29199 1.66783 3.43774 1.31597 3.69717 1.05654C3.95659 0.797112 4.30845 0.651367 4.67534 0.651367H8.82538Z" fill="#FB4D39" fill-opacity="0.75"/>
<path d="M9.74414 0.881836V4.80132C9.74414 4.92362 9.79272 5.0409 9.8792 5.12738C9.96567 5.21386 10.083 5.26244 10.2053 5.26244H14.1247L9.74414 0.881836Z" fill="#FB4D39" fill-opacity="0.75"/>
<path d="M8.82547 12.1793C8.82547 13.28 8.38824 14.3356 7.60996 15.1139C6.83167 15.8921 5.77609 16.3294 4.67543 16.3294C3.57477 16.3294 2.51919 15.8921 1.74091 15.1139C0.962626 14.3356 0.525391 13.28 0.525391 12.1793C0.525391 11.0787 0.962626 10.0231 1.74091 9.24482C2.51919 8.46653 3.57477 8.0293 4.67543 8.0293C5.77609 8.0293 6.83167 8.46653 7.60996 9.24482C8.38824 10.0231 8.82547 11.0787 8.82547 12.1793ZM4.67543 9.87376C4.55314 9.87376 4.43585 9.92234 4.34937 10.0088C4.2629 10.0953 4.21432 10.2126 4.21432 10.3349V12.1793C4.21432 12.3016 4.2629 12.4189 4.34937 12.5054C4.43585 12.5919 4.55314 12.6405 4.67543 12.6405C4.79773 12.6405 4.91501 12.5919 5.00149 12.5054C5.08797 12.4189 5.13655 12.3016 5.13655 12.1793V10.3349C5.13655 10.2126 5.08797 10.0953 5.00149 10.0088C4.91501 9.92234 4.79773 9.87376 4.67543 9.87376ZM4.67543 14.6002C4.8283 14.6002 4.97491 14.5395 5.08301 14.4314C5.1911 14.3233 5.25183 14.1767 5.25183 14.0238C5.25183 13.8709 5.1911 13.7243 5.08301 13.6162C4.97491 13.5081 4.8283 13.4474 4.67543 13.4474C4.52256 13.4474 4.37596 13.5081 4.26786 13.6162C4.15977 13.7243 4.09904 13.8709 4.09904 14.0238C4.09904 14.1767 4.15977 14.3233 4.26786 14.4314C4.37596 14.5395 4.52256 14.6002 4.67543 14.6002Z" fill="#FB4D39" fill-opacity="0.75"/>
</svg>
