<svg width="15" height="15" viewBox="0 0 15 15" fill="none" xmlns="http://www.w3.org/2000/svg">
<path fill-rule="evenodd" clip-rule="evenodd" d="M9.62308 8.68938H9.13019L8.95886 8.51929C9.5641 7.81348 9.93222 6.89848 9.93222 5.89595C9.93222 3.66741 8.1258 1.86099 5.89726 1.86099C3.66872 1.86099 1.8623 3.66741 1.8623 5.89595C1.8623 8.12449 3.66872 9.93091 5.89726 9.93091C6.89979 9.93091 7.81418 9.56341 8.51998 8.95879L8.69131 9.12888V9.62052L11.7939 12.7188L12.7194 11.7932L9.62308 8.68938ZM5.89689 8.68931C4.35367 8.68931 3.10345 7.43909 3.10345 5.89588C3.10345 4.35328 4.35367 3.10245 5.89689 3.10245C7.43948 3.10245 8.69032 4.35328 8.69032 5.89588C8.69032 7.43909 7.43948 8.68931 5.89689 8.68931Z" fill="#274B89"/>
<circle cx="9.31111" cy="3.10414" r="2.06921" fill="#39B54A" stroke="white" stroke-width="0.827683"/>
</svg>
