<svg width="16" height="16" viewBox="0 0 16 16" fill="none" xmlns="http://www.w3.org/2000/svg">
<path d="M13.5188 8.69527C13.5516 8.44777 13.568 8.19203 13.568 7.91979C13.568 7.6558 13.5516 7.3918 13.5106 7.14431L15.176 5.84084C15.2477 5.78136 15.2968 5.6987 15.3147 5.60694C15.3327 5.51517 15.3184 5.41999 15.2744 5.33761L13.6993 2.59868C13.6529 2.51582 13.5788 2.45215 13.4903 2.41893C13.4017 2.38571 13.3042 2.38509 13.2152 2.41719L11.2545 3.20917C10.8443 2.89567 10.4095 2.63168 9.92544 2.43369L9.6301 0.338243C9.61557 0.243808 9.56784 0.157744 9.49559 0.0956801C9.42333 0.0336162 9.33133 -0.000331232 9.23631 2.43649e-06H6.08598C5.88909 2.43649e-06 5.73321 0.140249 5.7004 0.338243L5.40505 2.43369C4.92102 2.63168 4.47801 2.90392 4.07601 3.20917L2.11526 2.41719C1.93478 2.35119 1.72968 2.41719 1.63123 2.59868L0.0642724 5.33761C-0.0341752 5.51085 -0.00135945 5.72535 0.16272 5.84084L1.82813 7.14431C1.78711 7.3918 1.75429 7.66405 1.75429 7.91979C1.75429 8.17553 1.7707 8.44777 1.81172 8.69527L0.146312 9.99873C0.0745469 10.0582 0.0255116 10.1409 0.00756036 10.2326C-0.0103909 10.3244 0.00385281 10.4196 0.0478645 10.502L1.62303 13.2409C1.72147 13.4224 1.92657 13.4801 2.10706 13.4224L4.06781 12.6304C4.47801 12.9439 4.91282 13.2079 5.39685 13.4059L5.69219 15.5013C5.73321 15.6993 5.88909 15.8396 6.08598 15.8396H9.23631C9.4332 15.8396 9.59728 15.6993 9.62189 15.5013L9.91724 13.4059C10.4013 13.2079 10.8443 12.9439 11.2463 12.6304L13.207 13.4224C13.3875 13.4884 13.5926 13.4224 13.6911 13.2409L15.2662 10.502C15.3647 10.3205 15.3236 10.1142 15.1678 9.99873L13.5188 8.69527ZM7.66115 10.8897C6.03676 10.8897 4.70772 9.55324 4.70772 7.91979C4.70772 6.28633 6.03676 4.94987 7.66115 4.94987C9.28553 4.94987 10.6146 6.28633 10.6146 7.91979C10.6146 9.55324 9.28553 10.8897 7.66115 10.8897Z" fill="#929AA7"/>
</svg>
