<svg width="11" height="9" viewBox="0 0 11 9" fill="none" xmlns="http://www.w3.org/2000/svg">
<path d="M4.05263 4.05263C5.17 4.05263 6.07895 3.14368 6.07895 2.02631C6.07895 0.908947 5.17 0 4.05263 0C2.93526 0 2.02632 0.908947 2.02632 2.02631C2.02632 3.14368 2.93526 4.05263 4.05263 4.05263ZM4.05263 1.15789C4.53316 1.15789 4.92105 1.54579 4.92105 2.02631C4.92105 2.50684 4.53316 2.89474 4.05263 2.89474C3.57211 2.89474 3.18421 2.50684 3.18421 2.02631C3.18421 1.54579 3.57211 1.15789 4.05263 1.15789ZM4.05263 5.06579C2.69789 5.06579 0 5.74316 0 7.0921V8.10526H8.10526V7.0921C8.10526 5.74316 5.40737 5.06579 4.05263 5.06579ZM1.35474 6.94736C1.84105 6.61158 3.01632 6.22368 4.05263 6.22368C5.08895 6.22368 6.26421 6.61158 6.75053 6.94736H1.35474ZM6.94737 4.05263C8.06474 4.05263 8.97368 3.14368 8.97368 2.02631C8.97368 0.908947 8.06474 0 6.94737 0C6.80842 0 6.66947 0.011579 6.53632 0.0405264C6.99167 0.601655 7.23923 1.30284 7.23712 2.02548C7.23501 2.74812 6.98336 3.44785 6.52474 4.00631C6.66368 4.03526 6.80263 4.05263 6.94737 4.05263ZM8.29053 5.2221C8.86947 5.69105 9.26316 6.30473 9.26316 7.0921V8.10526H11V7.0921C11 6.11368 9.58737 5.49421 8.29053 5.2221Z" fill="#C4C4C4"/>
</svg>
