<svg width="88" height="27" viewBox="0 0 88 27" fill="none" xmlns="http://www.w3.org/2000/svg">
<path fill-rule="evenodd" clip-rule="evenodd" d="M12.9644 26.0734C20.1244 26.0734 25.9287 20.2367 25.9287 13.0367C25.9287 5.83674 20.1244 0 12.9644 0C5.80435 0 0 5.83674 0 13.0367C0 20.2367 5.80435 26.0734 12.9644 26.0734ZM12.9641 21.641C17.6897 21.641 21.5206 17.7887 21.5206 13.0367C21.5206 8.28475 17.6897 4.4325 12.9641 4.4325C8.23847 4.4325 4.4076 8.28475 4.4076 13.0367C4.4076 17.7887 8.23847 21.641 12.9641 21.641Z" fill="#274B89"/>
<ellipse cx="12.9639" cy="13.036" rx="3.88931" ry="3.91102" fill="#274B89"/>
<path d="M38.6411 19.1697C37.6731 19.1697 36.7554 19.044 35.8879 18.7926C35.0331 18.5286 34.3354 18.1766 33.7948 17.7366C33.5056 17.5228 33.3611 17.2211 33.3611 16.8314C33.3611 16.5674 33.4365 16.3411 33.5874 16.1526C33.7508 15.9514 33.9394 15.8508 34.1531 15.8508C34.3794 15.8508 34.6371 15.9388 34.9262 16.1148C35.4668 16.5046 36.0325 16.7874 36.6234 16.9634C37.2142 17.1394 37.868 17.2274 38.5845 17.2274C39.5023 17.2274 40.2063 17.0703 40.6965 16.756C41.1868 16.4291 41.432 15.9577 41.432 15.3417C41.432 14.864 41.1994 14.4994 40.7343 14.248C40.2817 13.984 39.5211 13.7325 38.4525 13.4937C37.3462 13.2548 36.4474 12.9782 35.7559 12.664C35.0645 12.3497 34.5428 11.9474 34.1908 11.4571C33.8388 10.9668 33.6628 10.3445 33.6628 9.59022C33.6628 8.81079 33.8828 8.11307 34.3228 7.49707C34.7628 6.88106 35.3725 6.40335 36.1519 6.06391C36.944 5.71191 37.8302 5.53591 38.8108 5.53591C40.6085 5.53591 42.0731 6.01363 43.2046 6.96906C43.368 7.10735 43.4811 7.24564 43.544 7.38392C43.6194 7.50964 43.6571 7.67307 43.6571 7.87421C43.6571 8.13821 43.5754 8.37079 43.412 8.57193C43.2611 8.7605 43.0788 8.85479 42.8651 8.85479C42.7394 8.85479 42.62 8.83593 42.5068 8.79822C42.4063 8.7605 42.268 8.69136 42.092 8.59079C41.5766 8.21364 41.0737 7.93707 40.5834 7.76107C40.1057 7.5725 39.5148 7.47821 38.8108 7.47821C37.956 7.47821 37.2771 7.65421 36.7742 8.00621C36.2839 8.34564 36.0388 8.82336 36.0388 9.43937C36.0388 9.9548 36.2588 10.3508 36.6988 10.6274C37.1388 10.9039 37.8868 11.1617 38.9428 11.4005C40.0617 11.652 40.9668 11.9348 41.6583 12.2491C42.3623 12.5508 42.8966 12.9405 43.2611 13.4182C43.6383 13.896 43.8269 14.4931 43.8269 15.2097C43.8269 15.9891 43.6069 16.6806 43.1668 17.284C42.7394 17.8748 42.1297 18.34 41.3377 18.6794C40.5583 19.0063 39.6594 19.1697 38.6411 19.1697ZM51.1566 9.55251C51.9486 9.55251 52.6526 9.75365 53.2686 10.1559C53.8972 10.5582 54.3812 11.1302 54.7206 11.872C55.0726 12.6011 55.2486 13.4434 55.2486 14.3988C55.2486 15.3543 55.0726 16.1903 54.7206 16.9068C54.3812 17.6234 53.9035 18.1766 53.2875 18.5663C52.6715 18.956 51.9612 19.1509 51.1566 19.1509C50.5029 19.1509 49.9183 19.0126 49.4029 18.736C48.8874 18.4594 48.4914 18.076 48.2149 17.5857V21.4326C48.2149 21.7594 48.108 22.0172 47.8943 22.2057C47.6806 22.3943 47.3977 22.4886 47.0457 22.4886C46.6937 22.4886 46.4046 22.388 46.1783 22.1869C45.9646 21.9857 45.8577 21.7217 45.8577 21.3949V10.7028C45.8577 10.3634 45.9583 10.0931 46.1594 9.89194C46.3731 9.6908 46.656 9.59022 47.008 9.59022C47.36 9.59022 47.6428 9.6908 47.8566 9.89194C48.0703 10.0931 48.1771 10.3634 48.1771 10.7028V11.1742C48.4537 10.6588 48.8497 10.2628 49.3651 9.98623C49.8931 9.69708 50.4903 9.55251 51.1566 9.55251ZM50.5343 17.3217C51.276 17.3217 51.8543 17.0703 52.2692 16.5674C52.684 16.052 52.8915 15.3291 52.8915 14.3988C52.8915 13.4434 52.684 12.7017 52.2692 12.1737C51.8543 11.6457 51.276 11.3817 50.5343 11.3817C49.78 11.3817 49.1954 11.6394 48.7806 12.1548C48.3783 12.6702 48.1771 13.4057 48.1771 14.3611C48.1771 15.304 48.3783 16.0331 48.7806 16.5486C49.1954 17.064 49.78 17.3217 50.5343 17.3217ZM61.3883 19.1509C60.4454 19.1509 59.6157 18.956 58.8991 18.5663C58.1951 18.1766 57.6482 17.6171 57.2585 16.888C56.8688 16.1588 56.674 15.3103 56.674 14.3423C56.674 13.3742 56.8688 12.532 57.2585 11.8154C57.6482 11.0862 58.1951 10.5268 58.8991 10.1371C59.6157 9.74737 60.4454 9.55251 61.3883 9.55251C62.3311 9.55251 63.1546 9.74737 63.8586 10.1371C64.5751 10.5268 65.122 11.0862 65.4992 11.8154C65.8889 12.532 66.0837 13.3742 66.0837 14.3423C66.0837 15.3103 65.8889 16.1588 65.4992 16.888C65.122 17.6171 64.5751 18.1766 63.8586 18.5663C63.1546 18.956 62.3311 19.1509 61.3883 19.1509ZM61.3694 17.3217C62.1363 17.3217 62.7209 17.0703 63.1231 16.5674C63.5254 16.0646 63.7266 15.3228 63.7266 14.3423C63.7266 13.3742 63.5254 12.6388 63.1231 12.136C62.7209 11.6205 62.1426 11.3628 61.3883 11.3628C60.634 11.3628 60.0494 11.6205 59.6345 12.136C59.2323 12.6388 59.0311 13.3742 59.0311 14.3423C59.0311 15.3228 59.2323 16.0646 59.6345 16.5674C60.0368 17.0703 60.6151 17.3217 61.3694 17.3217ZM72.7642 17.3594C73.3928 17.3971 73.7071 17.68 73.7071 18.208C73.7071 18.5097 73.5814 18.7423 73.3299 18.9057C73.0911 19.0566 72.7454 19.1194 72.2928 19.0943L71.7836 19.0566C69.6716 18.9057 68.6156 17.7743 68.6156 15.6623V11.5514H67.6728C67.3333 11.5514 67.0693 11.476 66.8807 11.3251C66.7047 11.1742 66.6167 10.9542 66.6167 10.6651C66.6167 10.3759 66.7047 10.1559 66.8807 10.0051C67.0693 9.85423 67.3333 9.7788 67.6728 9.7788H68.6156V8.04393C68.6156 7.7045 68.7225 7.43421 68.9362 7.23307C69.1499 7.03192 69.439 6.93135 69.8036 6.93135C70.1556 6.93135 70.4385 7.03192 70.6522 7.23307C70.8659 7.43421 70.9728 7.7045 70.9728 8.04393V9.7788H72.5756C72.9151 9.7788 73.1728 9.85423 73.3488 10.0051C73.5374 10.1559 73.6316 10.3759 73.6316 10.6651C73.6316 10.9542 73.5374 11.1742 73.3488 11.3251C73.1728 11.476 72.9151 11.5514 72.5756 11.5514H70.9728V15.832C70.9728 16.7623 71.4002 17.2588 72.2551 17.3217L72.7642 17.3594ZM79.5963 17.3594C80.2249 17.3971 80.5391 17.68 80.5391 18.208C80.5391 18.5097 80.4134 18.7423 80.162 18.9057C79.9231 19.0566 79.5774 19.1194 79.1249 19.0943L78.6157 19.0566C76.5037 18.9057 75.4477 17.7743 75.4477 15.6623V11.5514H74.5048C74.1654 11.5514 73.9014 11.476 73.7128 11.3251C73.5368 11.1742 73.4488 10.9542 73.4488 10.6651C73.4488 10.3759 73.5368 10.1559 73.7128 10.0051C73.9014 9.85423 74.1654 9.7788 74.5048 9.7788H75.4477V8.04393C75.4477 7.7045 75.5545 7.43421 75.7683 7.23307C75.982 7.03192 76.2711 6.93135 76.6357 6.93135C76.9877 6.93135 77.2706 7.03192 77.4843 7.23307C77.698 7.43421 77.8048 7.7045 77.8048 8.04393V9.7788H79.4077C79.7471 9.7788 80.0049 9.85423 80.1809 10.0051C80.3694 10.1559 80.4637 10.3759 80.4637 10.6651C80.4637 10.9542 80.3694 11.1742 80.1809 11.3251C80.0049 11.476 79.7471 11.5514 79.4077 11.5514H77.8048V15.832C77.8048 16.7623 78.2323 17.2588 79.0871 17.3217L79.5963 17.3594ZM86.9156 9.59022C87.2424 9.56508 87.5001 9.63422 87.6887 9.79765C87.8773 9.96108 87.9716 10.2062 87.9716 10.5331C87.9716 10.8725 87.8898 11.1239 87.7264 11.2874C87.563 11.4508 87.2676 11.5577 86.8401 11.608L86.2744 11.6645C85.5327 11.74 84.9858 11.9914 84.6338 12.4188C84.2944 12.8462 84.1247 13.3805 84.1247 14.0217V17.9817C84.1247 18.3463 84.0115 18.6291 83.7853 18.8303C83.559 19.0189 83.2761 19.1131 82.9367 19.1131C82.5972 19.1131 82.3144 19.0189 82.0881 18.8303C81.8744 18.6291 81.7675 18.3463 81.7675 17.9817V10.6839C81.7675 10.3319 81.8744 10.0617 82.0881 9.87308C82.3144 9.68451 82.591 9.59022 82.9178 9.59022C83.2447 9.59022 83.5087 9.68451 83.7098 9.87308C83.911 10.0491 84.0115 10.3068 84.0115 10.6462V11.4005C84.2504 10.8474 84.6024 10.4199 85.0675 10.1182C85.5453 9.81651 86.0733 9.6468 86.6516 9.60908L86.9156 9.59022Z" fill="#274B89"/>
</svg>
