<svg width="22" height="22" viewBox="0 0 22 22" fill="none" xmlns="http://www.w3.org/2000/svg">
<path d="M13.8531 4.22765C15.95 6.84015 16.5 8.21515 16.3281 10.5183C18.9406 10.5183 19.5594 12.6495 21.2781 12.6495V16.0183H11.1375C11.1375 16.0183 11.5156 15.4339 11.1031 14.6089L11.4812 11.7214C11.4812 11.7214 12.1344 12.6152 13.2 12.0308C13.2 12.0308 11.9969 11.1027 12.7187 9.6589C12.3062 8.76515 12.2719 8.38703 12.4094 7.0464C10.1406 6.11828 8.04373 6.29015 5.77498 6.42765C5.0531 7.56203 2.95623 8.07765 2.06248 7.90578C1.54685 7.80265 3.43748 7.35578 3.09373 7.1839C3.09373 7.1839 2.13123 7.49328 0.756226 7.28703C0.584351 7.25265 1.09998 5.98078 1.51248 5.6714C1.8906 5.3964 2.88748 4.8464 3.8156 4.88078C4.39998 4.91515 4.98435 5.22453 5.4656 5.22453C6.04998 5.2589 6.80623 4.94953 7.56248 4.77765C9.52185 4.26203 11.275 3.95265 13.8531 4.22765Z" fill="#B47D56"/>
<path d="M12.7188 9.65625C12.7188 9.65625 13.7156 11.1344 15.7781 10.7563C13.9563 10.4469 12.7188 9.65625 12.7188 9.65625Z" fill="#935E3E"/>
<path d="M13.7156 8.04235C13.7156 8.04235 12.9937 6.25485 10.9312 6.5986C12.5468 6.94235 13.7156 8.04235 13.7156 8.04235Z" fill="#935E3E"/>
<path d="M17.9781 14.6094C17.9781 14.6094 18.6312 11.4469 16.1906 10.8281C18.1499 11.6875 17.9781 14.6094 17.9781 14.6094Z" fill="#935E3E"/>
<path d="M11.3094 11.8594L11 14.575C12.3406 14.7813 13.5094 14.5406 13.5094 14.5406C12.65 12.3406 11.3094 11.8594 11.3094 11.8594Z" fill="#935E3E"/>
<path d="M17.2471 13.424C17.2722 13.1975 17.1549 12.9987 16.9851 12.9798C16.8153 12.961 16.6572 13.1292 16.6321 13.3556C16.6069 13.5821 16.7242 13.7809 16.894 13.7998C17.0638 13.8186 17.2219 13.6504 17.2471 13.424Z" fill="#935E3E"/>
<path d="M2.88751 12.6167C2.61251 14.8511 4.50314 16.9136 7.08126 17.223C8.21564 17.3605 9.48751 16.8448 10.3813 16.3292C11.4813 15.7105 12.2031 14.1292 12.2375 13.7167C12.2719 13.3042 11.9625 11.6198 11.0344 10.7605C10.2781 10.073 9.17814 9.28235 8.04376 9.14485C5.46564 8.83547 3.16251 10.3823 2.88751 12.6167Z" fill="#B47D56"/>
<path d="M7.11562 13.1316C7.49374 9.90031 9.21249 9.48781 9.21249 9.48781C9.21249 9.48781 8.83437 9.21281 8.00937 9.10969C5.43124 8.80031 3.12812 10.3472 2.85312 12.5816C2.57812 14.8159 4.46874 16.8784 7.04687 17.1878C7.87187 17.2909 8.28437 17.1191 8.28437 17.1191C8.28437 17.1534 6.73749 16.3628 7.11562 13.1316Z" fill="#F15744"/>
<path d="M8.62811 13.7498C8.14686 13.5779 7.56248 14.0591 7.32186 14.781C7.08123 15.5029 7.28749 16.2248 7.76873 16.3966C8.24998 16.5685 8.83436 16.0873 9.07498 15.3654C9.31561 14.6091 9.14373 13.8873 8.62811 13.7498Z" fill="#231F20"/>
<path d="M8.55937 14.1291C8.21562 14.026 7.80312 14.3354 7.63125 14.851C7.45937 15.3666 7.59687 15.8479 7.94062 15.9854C8.28437 16.0885 8.69687 15.7791 8.86874 15.2635C9.04062 14.7479 8.90312 14.2323 8.55937 14.1291Z" fill="#44618B"/>
<path d="M8.49063 13.0288C7.97501 12.9944 7.63126 12.3413 7.66563 11.585C7.73438 10.8288 8.18126 10.2444 8.69688 10.2788C9.21251 10.3132 9.55626 10.9663 9.52188 11.7225C9.45313 12.4788 9.00626 13.0632 8.49063 13.0288Z" fill="#231F20"/>
<path d="M8.52498 12.6137C8.14685 12.5793 7.90623 12.1325 7.9406 11.5825C7.97498 11.0325 8.31873 10.62 8.66248 10.6543C9.04061 10.6887 9.28123 11.1356 9.24686 11.6856C9.21248 12.2356 8.86873 12.6481 8.52498 12.6137Z" fill="#44618B"/>
<path d="M8.31875 12.7852L8.25 13.8852H8.6625L8.76562 12.8195L8.31875 12.7852Z" fill="#428BC1"/>
<path d="M8.93752 10.4836L9.41877 9.62422L9.04064 9.41797L8.45627 10.3117L8.93752 10.4836Z" fill="#428BC1"/>
<path d="M9.38434 13.7828C9.59059 13.8172 9.79684 13.6453 9.83121 13.4391C9.86559 13.2328 9.69371 13.0266 9.48746 12.9922L9.38434 13.7828Z" fill="#935E3E"/>
<path d="M11.2062 12.6858C11.55 12.7201 11.4125 13.1326 11.3437 13.6139C11.275 14.0951 11.3437 14.542 11 14.5076C10.6562 14.4733 10.4156 14.0264 10.4844 13.5108C10.5187 13.0295 10.8625 12.6514 11.2062 12.6858Z" fill="#574137"/>
<path d="M8.27509 13.9829L8.29434 13.7773L8.63637 13.809L8.61746 14.0145L8.27509 13.9829Z" fill="#44618B"/>
<path d="M8.36896 12.9012L8.38271 12.6953L8.72577 12.7183L8.71202 12.9243L8.36896 12.9012Z" fill="#44618B"/>
<path d="M8.48541 10.3706L8.57272 10.1836L8.94638 10.3582L8.85907 10.5452L8.48541 10.3706Z" fill="#44618B"/>
<path d="M0.6875 14.4375H21.3125V21.3125H0.6875V14.4375Z" fill="#75D6FF"/>
<path d="M8.18123 19.1815C7.66561 19.2502 7.04686 19.2159 6.56561 19.044C5.91248 18.8377 5.32811 18.4596 4.64061 18.3565C3.71248 18.1846 2.71561 18.3565 1.85623 18.7002C2.99061 18.6315 4.05623 18.5284 5.15623 18.9409C6.08436 19.2846 7.14998 19.6627 8.18123 19.1815Z" fill="#42ADE2"/>
<path d="M12.1688 16.5349C11.6875 16.6036 11 16.6036 10.5531 16.3974C9.9 16.1911 9.31563 15.813 8.62813 15.7099C7.7 15.538 6.70312 15.6755 5.84375 16.0536C6.97812 15.9849 8.04375 15.8818 9.14375 16.2943C10.0719 16.638 11.1719 17.0161 12.1688 16.5349Z" fill="#42ADE2"/>
<path d="M16.1563 19.1815C15.675 19.2502 14.9875 19.2502 14.5406 19.044C13.8875 18.8377 13.3031 18.4596 12.6156 18.3565C11.6875 18.1846 10.6906 18.3565 9.83127 18.7002C10.9656 18.6315 12.0313 18.5284 13.1313 18.9409C14.0594 19.2846 15.1594 19.6627 16.1563 19.1815Z" fill="#42ADE2"/>
<path d="M20.1781 16.5349C19.6968 16.6036 19.0093 16.6036 18.5625 16.3974C17.9093 16.1911 17.325 15.813 16.6375 15.7099C15.7093 15.538 14.7125 15.6755 13.8531 16.0536C14.9875 15.9849 16.0531 15.8818 17.1531 16.2943C18.0812 16.638 19.1812 17.0161 20.1781 16.5349Z" fill="#42ADE2"/>
</svg>
