<svg width="35" height="35" viewBox="0 0 35 35" fill="none" xmlns="http://www.w3.org/2000/svg">
<path d="M0 8.94141H3.57643V19.6707H0V8.94141Z" fill="#4B699C"/>
<path d="M3.57645 10.1328H5.96073V18.4778H3.57645V10.1328Z" fill="#7D96C4"/>
<path d="M20.2664 20.2656H27.4193V22.6499H20.2664V20.2656Z" fill="#4B699C"/>
<path d="M20.2664 11.9194H18.4782L17.2861 9.53516H10.1332L8.94108 11.9194H5.96072V16.688H19.0743C20.391 16.688 21.4586 17.7556 21.4586 19.0723V20.2644H26.2271V17.8802C26.2271 14.5881 23.5582 11.9194 20.2664 11.9194Z" fill="#6E85AE"/>
<path d="M8.82382 12.5051L9.05754 11.3359L12.0379 11.932L11.8042 13.1012L8.82382 12.5051Z" fill="#86A0CC"/>
<path d="M15.3843 11.9431L18.3661 11.3477L18.5998 12.5171L15.618 13.1129L15.3843 11.9431Z" fill="#86A0CC"/>
<path d="M11.3254 7.15234H16.0939V9.53663H11.3254V7.15234Z" fill="#4B699C"/>
<path d="M12.5175 4.76953H14.9018V7.15382H12.5175V4.76953Z" fill="#6E85AE"/>
<path d="M7.15289 2.38281H20.2665V4.7671H7.15289V2.38281Z" fill="#6E85AE"/>
<path d="M13.7096 0C14.368 0 14.9018 0.533786 14.9018 1.19214V2.38428H12.5175V1.19214C12.5175 0.533786 13.0513 0 13.7096 0Z" fill="#AFC7F2"/>
<path d="M9.53717 2.38281H10.7293V4.7671H9.53717V2.38281Z" fill="#5E7398"/>
<path d="M13.1136 2.38281H14.3057V4.7671H13.1136V2.38281Z" fill="#5E7398"/>
<path d="M16.69 2.38281H17.8821V4.7671H16.69V2.38281Z" fill="#5E7398"/>
<path d="M28.0153 34.5738H19.6703L21.4586 22.6523H26.2271L28.0153 34.5738Z" fill="#B2C9F2"/>
<path d="M21.4661 34.4732L22.6594 27.3203L23.8355 27.5165L22.6419 34.6693L21.4661 34.4732Z" fill="#86A0CC"/>
<path d="M24.4424 29.2722L25.6273 29.1406L26.2233 34.505L25.0385 34.6368L24.4424 29.2722Z" fill="#86A0CC"/>
<path d="M30.3996 32.1896C30.3996 32.1896 30.0734 29.2855 31.5918 27.421C33.1099 25.5565 35.943 28.1745 33.38 29.8053C30.8167 31.436 30.3996 32.1896 30.3996 32.1896Z" fill="#B2C9F2"/>
<path d="M17.2861 33.3813C17.2861 33.3813 17.4208 29.4585 15.4979 28.0166C13.1136 26.2284 11.0195 29.5807 13.7096 30.997C16.3995 32.4132 17.2861 33.3813 17.2861 33.3813Z" fill="#B2C9F2"/>
<path d="M17.8821 26.8242H19.0743V28.0164H17.8821V26.8242Z" fill="#2D75BB"/>
<path d="M28.6115 25.0352H29.8036V26.2273H28.6115V25.0352Z" fill="#2D75BB"/>
<path d="M15.4979 23.2461H16.69V24.4382H15.4979V23.2461Z" fill="#2D75BB"/>
<path d="M30.9957 20.2656H32.1879V21.4578H30.9957V20.2656Z" fill="#2D75BB"/>
</svg>
