<svg width="21" height="21" viewBox="0 0 21 21" fill="none" xmlns="http://www.w3.org/2000/svg">
<g clip-path="url(#clip0_4713_53691)">
<path d="M12.4082 9.98899L13.3074 9.08985C13.6296 9.21709 13.974 9.27908 14.3204 9.27222C14.6668 9.26536 15.0084 9.18979 15.3254 9.04989C15.362 9.03378 15.3942 9.00911 15.4192 8.97794C15.4443 8.94678 15.4614 8.91005 15.4693 8.87085C15.4771 8.83165 15.4754 8.79115 15.4643 8.75275C15.4531 8.71436 15.4329 8.67921 15.4054 8.65027L13.8069 7.05179C13.7595 7.0067 13.7218 6.95246 13.696 6.89235C13.6702 6.83224 13.657 6.76752 13.657 6.70212C13.657 6.63672 13.6702 6.57201 13.696 6.5119C13.7218 6.45179 13.7595 6.39755 13.8069 6.35246L15.4054 4.75398C15.4333 4.72523 15.4539 4.69009 15.4653 4.65162C15.4766 4.61314 15.4784 4.57247 15.4706 4.53313C15.4627 4.49379 15.4454 4.45696 15.4201 4.42581C15.3948 4.39466 15.3623 4.37014 15.3254 4.35436C14.8601 4.1421 14.3423 4.07256 13.8375 4.15453C13.3327 4.2365 12.8635 4.4663 12.4893 4.81488C12.115 5.16346 11.8525 5.61517 11.735 6.11291C11.6174 6.61065 11.65 7.13207 11.8288 7.61126L10.9096 8.53038L12.4082 9.98899Z" fill="url(#paint0_radial_4713_53691)"/>
<path d="M10.6898 8.73101L9.45097 7.49219L7.97238 8.97078L9.2112 10.2096L10.6898 11.6882L15.2455 16.2439C15.2768 16.2755 15.3142 16.3006 15.3553 16.3178C15.3965 16.3349 15.4406 16.3438 15.4852 16.3438C15.5298 16.3438 15.5739 16.3349 15.6151 16.3178C15.6563 16.3006 15.6936 16.2755 15.725 16.2439L16.744 15.2248C16.7771 15.1943 16.8035 15.1572 16.8215 15.1159C16.8396 15.0746 16.8489 15.0301 16.8489 14.9851C16.8489 14.94 16.8396 14.8955 16.8215 14.8542C16.8035 14.8129 16.7771 14.7759 16.744 14.7453L12.1684 10.2296L10.6898 8.73101Z" fill="url(#paint1_radial_4713_53691)"/>
<path d="M16.0847 5.55442L14.746 6.89315C14.6978 6.94464 14.6711 7.01249 14.6711 7.08297C14.6711 7.15345 14.6978 7.2213 14.746 7.27279L15.765 8.29182C15.7914 8.31889 15.8233 8.34003 15.8585 8.35384C15.8938 8.36765 15.9315 8.37381 15.9693 8.37192C16.0071 8.37003 16.0441 8.36013 16.0777 8.34288C16.1114 8.32562 16.141 8.30141 16.1646 8.27184C16.4553 7.90446 16.6405 7.46487 16.7004 7.00022C16.7602 6.53557 16.6924 6.0634 16.5043 5.63435C16.4862 5.59703 16.4596 5.56446 16.4266 5.53924C16.3937 5.51402 16.3553 5.49684 16.3146 5.48908C16.2738 5.48132 16.2318 5.48318 16.1919 5.49453C16.152 5.50587 16.1153 5.52638 16.0847 5.55442Z" fill="url(#paint2_radial_4713_53691)"/>
<path d="M5.87438 11.8679L7.47286 13.4663C7.52023 13.5114 7.55794 13.5657 7.58372 13.6258C7.60949 13.6859 7.62278 13.7506 7.62278 13.816C7.62278 13.8814 7.60949 13.9461 7.58372 14.0062C7.55794 14.0663 7.52023 14.1206 7.47286 14.1657L5.87438 15.7642C5.8464 15.7929 5.82584 15.828 5.81447 15.8665C5.80311 15.905 5.80128 15.9457 5.80915 15.985C5.81702 16.0243 5.83435 16.0612 5.85964 16.0923C5.88493 16.1235 5.91742 16.148 5.9543 16.1638C6.41765 16.3759 6.93343 16.4462 7.43663 16.3656C7.93983 16.2851 8.40792 16.0574 8.78188 15.7112C9.15585 15.365 9.41895 14.9158 9.53803 14.4203C9.6571 13.9248 9.62681 13.4052 9.45097 12.9269L10.45 11.9278L8.97143 10.4492L7.99236 11.4283C7.33451 11.1712 6.60157 11.1856 5.9543 11.4682C5.91772 11.4844 5.88555 11.509 5.86052 11.5402C5.83548 11.5714 5.81832 11.6081 5.81048 11.6473C5.80264 11.6865 5.80435 11.727 5.81548 11.7654C5.8266 11.8038 5.8468 11.8389 5.87438 11.8679Z" fill="url(#paint3_radial_4713_53691)"/>
<path d="M5.11511 12.2494C4.82439 12.6167 4.63918 13.0563 4.57933 13.521C4.51949 13.9856 4.58728 14.4578 4.77543 14.8869C4.79239 14.928 4.81941 14.9642 4.854 14.9921C4.88859 15.0201 4.92964 15.0389 4.9734 15.0468C5.01715 15.0548 5.06221 15.0516 5.10442 15.0376C5.14664 15.0236 5.18466 14.9993 5.21501 14.9668L6.55373 13.628C6.60187 13.5766 6.62865 13.5087 6.62865 13.4382C6.62865 13.3677 6.60187 13.2999 6.55373 13.2484L5.53471 12.2294C5.5064 12.2021 5.4728 12.1808 5.43598 12.1669C5.39916 12.1531 5.35989 12.1469 5.32059 12.1488C5.28129 12.1506 5.24279 12.1605 5.20745 12.1778C5.17211 12.1951 5.14069 12.2195 5.11511 12.2494Z" fill="url(#paint4_radial_4713_53691)"/>
<path d="M5.45477 7.79131H5.55468L5.45477 7.69141V7.79131Z" fill="url(#paint5_radial_4713_53691)"/>
<path d="M6.37391 9.19102L6.67362 8.8913L5.57467 7.79235H5.47476C5.47165 7.75782 5.47859 7.72313 5.49474 7.69245L5.27495 7.47266L4.97524 7.77237L4.79541 7.61252C4.71853 7.53575 4.61433 7.49263 4.50568 7.49263C4.39704 7.49263 4.29284 7.53575 4.21596 7.61252L4.13604 7.69245C4.05926 7.76932 4.01614 7.87353 4.01614 7.98217C4.01614 8.09082 4.05926 8.19502 4.13604 8.2719L5.87438 10.0102C5.95126 10.087 6.05546 10.1301 6.16411 10.1301C6.27275 10.1301 6.37696 10.087 6.45383 10.0102L6.53376 9.93032C6.61053 9.85344 6.65365 9.74924 6.65365 9.64059C6.65365 9.53195 6.61053 9.42774 6.53376 9.35087L6.37391 9.19102Z" fill="url(#paint6_radial_4713_53691)"/>
<path d="M8.0723 4.73476L9.47096 6.13343C11.0894 5.05446 11.9886 5.9536 10.7497 4.71478C9.89056 3.8556 8.81159 4.25522 8.0723 4.73476Z" fill="url(#paint7_radial_4713_53691)"/>
<path d="M9.37104 6.51496L9.21119 6.35511L7.79255 4.91648L7.6327 4.75663C7.59663 4.71874 7.55323 4.68857 7.50514 4.66796C7.45706 4.64735 7.40528 4.63672 7.35297 4.63672C7.30065 4.63672 7.24888 4.64735 7.20079 4.66796C7.1527 4.68857 7.10931 4.71874 7.07323 4.75663L5.33489 6.49498C5.25812 6.57186 5.215 6.67606 5.215 6.7847C5.215 6.89335 5.25812 6.99755 5.33489 7.07443L5.45477 7.19431L5.47476 7.21429L5.61462 7.35416C5.93432 6.87462 6.55373 6.39507 6.07418 5.93551C6.55373 6.41506 5.93432 6.8946 5.61462 7.35416L6.03422 7.77376L6.91338 8.65292L7.07323 8.81277C7.1096 8.85029 7.15305 8.8802 7.20107 8.90078C7.24909 8.92136 7.30072 8.9322 7.35297 8.93266H7.43289C7.4915 8.91836 7.54613 8.89104 7.59274 8.85273C7.61272 8.83275 7.6327 8.83275 7.6327 8.81277L7.71262 8.73285L9.19121 7.25426L9.3111 7.13437L9.37104 7.07443C9.39572 7.05166 9.41604 7.02457 9.43099 6.9945C9.48037 6.92074 9.5015 6.83163 9.49049 6.74355C9.47948 6.65546 9.43707 6.5743 9.37104 6.51496Z" fill="url(#paint8_radial_4713_53691)"/>
<path d="M10.49 0.0595609C10.4382 0.0576218 10.3868 0.0695649 10.3411 0.094155C10.2954 0.118745 10.2572 0.155089 10.2303 0.199428L9.69076 1.07859L9.43101 1.09857L8.73168 0.339294C8.6963 0.303125 8.65244 0.276361 8.6041 0.261433C8.55575 0.246504 8.50444 0.243882 8.45483 0.253805C8.40521 0.263729 8.35886 0.285882 8.31997 0.318257C8.28109 0.350632 8.2509 0.392203 8.23215 0.439199L7.8725 1.39829L7.63272 1.47821L6.79352 0.878781C6.74998 0.853777 6.70126 0.839123 6.65115 0.835952C6.60103 0.83278 6.55086 0.841175 6.5045 0.860489C6.45815 0.879803 6.41686 0.909517 6.38382 0.947336C6.35079 0.985154 6.32689 1.03006 6.31398 1.07859L6.15413 2.09762L5.91436 2.19753L4.97526 1.77792C4.92918 1.75932 4.87925 1.75224 4.82982 1.75731C4.78039 1.76237 4.73294 1.77943 4.69159 1.80699C4.65024 1.83456 4.61625 1.8718 4.59256 1.91548C4.56887 1.95916 4.5562 2.00797 4.55566 2.05766L4.59562 3.09667L4.39581 3.25652L3.39676 3.01674C3.3476 3.00804 3.29707 3.01132 3.24945 3.02632C3.20183 3.04131 3.15854 3.06758 3.12323 3.10288C3.08793 3.13818 3.06167 3.18148 3.04668 3.22909C3.03168 3.27671 3.0284 3.32724 3.0371 3.3764L3.27687 4.37545L3.11703 4.57526L2.07801 4.5353C2.02857 4.5365 1.98014 4.54958 1.93681 4.57344C1.89349 4.59731 1.85655 4.63125 1.82911 4.67241C1.80168 4.71356 1.78455 4.76072 1.77918 4.80989C1.77382 4.85906 1.78037 4.90879 1.79828 4.9549L2.21788 5.894L2.098 6.1138L1.07897 6.27364C1.02994 6.28579 0.984449 6.30926 0.94613 6.34216C0.90781 6.37506 0.877732 6.41648 0.858307 6.4631C0.838881 6.50972 0.830649 6.56024 0.83427 6.61062C0.837891 6.661 0.853264 6.70982 0.879157 6.75319L1.47859 7.59239L1.39866 7.87212L0.439575 8.23178C0.392902 8.25089 0.351681 8.28124 0.319586 8.32015C0.287491 8.35905 0.265519 8.40529 0.255629 8.45474C0.245738 8.5042 0.248236 8.55533 0.262899 8.60358C0.277563 8.65184 0.303937 8.69571 0.339671 8.7313L1.09895 9.43064L1.07897 9.69039L0.199804 10.2299C0.158124 10.2592 0.124107 10.2981 0.100623 10.3433C0.0771397 10.3885 0.0648804 10.4387 0.0648804 10.4896C0.0648804 10.5406 0.0771397 10.5908 0.100623 10.636C0.124107 10.6812 0.158124 10.7201 0.199804 10.7494L1.07897 11.2889L1.09895 11.5486L0.339671 12.248C0.303501 12.2833 0.276738 12.3272 0.261809 12.3755C0.24688 12.4239 0.244258 12.4752 0.254182 12.5248C0.264105 12.5744 0.286259 12.6208 0.318633 12.6597C0.351008 12.6985 0.392579 12.7287 0.439575 12.7475L1.39866 13.1271L1.47859 13.3669L0.879157 14.2061C0.853264 14.2495 0.837891 14.2983 0.83427 14.3487C0.830649 14.399 0.838881 14.4496 0.858307 14.4962C0.877732 14.5428 0.90781 14.5842 0.94613 14.6171C0.984449 14.65 1.02994 14.6735 1.07897 14.6856L2.098 14.8455L2.21788 15.0653L1.79828 16.0044C1.77968 16.0505 1.7726 16.1004 1.77767 16.1498C1.78273 16.1992 1.79979 16.2467 1.82735 16.288C1.85492 16.3294 1.89216 16.3634 1.93584 16.3871C1.97952 16.4108 2.02833 16.4234 2.07801 16.424L3.11703 16.384L3.27687 16.5838L3.0371 17.5829C3.0284 17.632 3.03168 17.6826 3.04668 17.7302C3.06167 17.7778 3.08793 17.8211 3.12323 17.8564C3.15854 17.8917 3.20183 17.918 3.24945 17.933C3.29707 17.948 3.3476 17.9512 3.39676 17.9425L4.39581 17.7028L4.59562 17.8626L4.55566 18.9016C4.55685 18.9511 4.56994 18.9995 4.5938 19.0428C4.61767 19.0861 4.65161 19.1231 4.69276 19.1505C4.73392 19.178 4.78107 19.1951 4.83024 19.2004C4.87941 19.2058 4.92915 19.1993 4.97526 19.1814L5.91436 18.7618L6.13415 18.8816L6.294 19.9007C6.30615 19.9497 6.32961 19.9952 6.36251 20.0335C6.39542 20.0718 6.43684 20.1019 6.48346 20.1213C6.53008 20.1408 6.5806 20.149 6.63098 20.1454C6.68135 20.1417 6.73018 20.1264 6.77354 20.1005L7.61274 19.501L7.85251 19.581L8.21217 20.5401C8.23128 20.5867 8.26164 20.628 8.30054 20.66C8.33944 20.6921 8.38568 20.7141 8.43514 20.724C8.48459 20.7339 8.53572 20.7314 8.58398 20.7167C8.63223 20.7021 8.67611 20.6757 8.7117 20.64L9.41103 19.8807L9.67078 19.9007L10.2103 20.7798C10.2396 20.8215 10.2785 20.8555 10.3237 20.879C10.3689 20.9025 10.4191 20.9148 10.47 20.9148C10.521 20.9148 10.5712 20.9025 10.6164 20.879C10.6616 20.8555 10.7005 20.8215 10.7298 20.7798L11.2693 19.9007L11.529 19.8807L12.2283 20.64C12.2637 20.6761 12.3076 20.7029 12.3559 20.7178C12.4043 20.7328 12.4556 20.7354 12.5052 20.7255C12.5548 20.7155 12.6012 20.6934 12.6401 20.661C12.6789 20.6286 12.7091 20.5871 12.7279 20.5401L13.0875 19.581L13.3273 19.501L14.1665 20.1005C14.2101 20.1255 14.2588 20.1401 14.3089 20.1433C14.359 20.1465 14.4092 20.1381 14.4555 20.1188C14.5019 20.0995 14.5432 20.0697 14.5762 20.0319C14.6092 19.9941 14.6331 19.9492 14.646 19.9007L14.8059 18.8816L15.0257 18.7618L15.9648 19.1814C16.0109 19.2 16.0608 19.207 16.1102 19.202C16.1597 19.1969 16.2071 19.1798 16.2485 19.1523C16.2898 19.1247 16.3238 19.0875 16.3475 19.0438C16.3712 19.0001 16.3838 18.9513 16.3844 18.9016L16.3444 17.8626L16.5442 17.7028L17.5433 17.9425C17.5924 17.9512 17.643 17.948 17.6906 17.933C17.7382 17.918 17.7815 17.8917 17.8168 17.8564C17.8521 17.8211 17.8784 17.7778 17.8934 17.7302C17.9084 17.6826 17.9116 17.632 17.9029 17.5829L17.6632 16.5838L17.823 16.384L18.862 16.424C18.9115 16.4228 18.9599 16.4097 19.0032 16.3858C19.0466 16.362 19.0835 16.328 19.1109 16.2869C19.1384 16.2457 19.1555 16.1986 19.1609 16.1494C19.1662 16.1002 19.1597 16.0505 19.1418 16.0044L18.7821 15.0653L18.902 14.8455L19.921 14.6856C19.97 14.6735 20.0155 14.65 20.0539 14.6171C20.0922 14.5842 20.1223 14.5428 20.1417 14.4962C20.1611 14.4496 20.1693 14.399 20.1657 14.3487C20.1621 14.2983 20.1467 14.2495 20.1208 14.2061L19.5214 13.3669L19.6013 13.1271L20.5604 12.7675C20.6071 12.7484 20.6483 12.718 20.6804 12.6791C20.7125 12.6402 20.7345 12.5939 20.7444 12.5445C20.7542 12.495 20.7518 12.4439 20.7371 12.3957C20.7224 12.3474 20.6961 12.3035 20.6603 12.2679L19.901 11.5686L19.921 11.3088L20.8002 10.7694C20.8419 10.7401 20.8759 10.7012 20.8994 10.656C20.9228 10.6108 20.9351 10.5606 20.9351 10.5096C20.9351 10.4587 20.9228 10.4085 20.8994 10.3633C20.8759 10.318 20.8419 10.2792 20.8002 10.2499L19.921 9.71037L19.901 9.45062L20.6603 8.75128C20.6965 8.7159 20.7233 8.67205 20.7382 8.6237C20.7531 8.57536 20.7557 8.52405 20.7458 8.47443C20.7359 8.42482 20.7137 8.37846 20.6814 8.33958C20.649 8.3007 20.6074 8.27051 20.5604 8.25176L19.6013 7.8921L19.5214 7.65233L20.1208 6.81313C20.1458 6.76958 20.1605 6.72087 20.1637 6.67075C20.1668 6.62064 20.1584 6.57046 20.1391 6.52411C20.1198 6.47776 20.0901 6.43647 20.0523 6.40343C20.0145 6.37039 19.9695 6.3465 19.921 6.33359L18.902 6.17374L18.7821 5.91399L19.2017 4.97488C19.2203 4.9288 19.2274 4.87888 19.2223 4.82945C19.2173 4.78001 19.2002 4.73256 19.1726 4.69122C19.1451 4.64987 19.1078 4.61587 19.0641 4.59219C19.0205 4.5685 18.9717 4.55583 18.922 4.55528L17.9029 4.59524L17.7431 4.39543L17.9829 3.39638C17.9916 3.34722 17.9883 3.29669 17.9733 3.24907C17.9583 3.20146 17.932 3.15816 17.8967 3.12286C17.8614 3.08756 17.8181 3.06129 17.7705 3.0463C17.7229 3.03131 17.6724 3.02802 17.6232 3.03673L16.6242 3.2765L16.4244 3.11665L16.4643 2.07764C16.4631 2.02819 16.45 1.97976 16.4262 1.93644C16.4023 1.89311 16.3684 1.85617 16.3272 1.82874C16.286 1.8013 16.2389 1.78417 16.1897 1.77881C16.1406 1.77344 16.0908 1.77999 16.0447 1.79791L15.0856 2.19753L14.8658 2.07764L14.706 1.05861C14.6938 1.00959 14.6704 0.964092 14.6375 0.925772C14.6046 0.887453 14.5632 0.857375 14.5165 0.83795C14.4699 0.818524 14.4194 0.810292 14.369 0.813913C14.3186 0.817534 14.2698 0.832907 14.2264 0.8588L13.3872 1.45823L13.1275 1.39829L12.7678 0.439199C12.7487 0.392526 12.7184 0.351305 12.6795 0.31921C12.6406 0.287115 12.5943 0.265143 12.5449 0.255252C12.4954 0.245362 12.4443 0.247859 12.396 0.262523C12.3478 0.277187 12.3039 0.303561 12.2683 0.339294L11.569 1.09857L11.3092 1.07859L10.7697 0.199428C10.7403 0.152826 10.6987 0.115162 10.6494 0.0905098C10.6001 0.0658575 10.545 0.0551553 10.49 0.0595609ZM10.49 1.89781C10.5702 1.89861 10.6494 1.91532 10.7231 1.94698C10.7968 1.97864 10.8634 2.02462 10.9192 2.08224C10.9749 2.13986 11.0187 2.20798 11.0479 2.28265C11.0772 2.35732 11.0913 2.43706 11.0894 2.51722C11.0894 3.33644 9.85061 3.33644 9.85061 2.51722C9.84821 2.43352 9.86327 2.35023 9.89482 2.27266C9.92637 2.19509 9.97372 2.12494 10.0339 2.06667C10.094 2.00841 10.1656 1.9633 10.2442 1.93423C10.3227 1.90516 10.4064 1.89276 10.49 1.89781ZM11.9087 2.91684C12.9992 3.12484 14.0319 3.56651 14.9355 4.2115C15.8392 4.85649 16.5925 5.6895 17.1437 6.65328L16.4044 8.3117C16.345 8.44703 16.341 8.60024 16.3933 8.73846C16.4456 8.87668 16.55 8.98889 16.6841 9.051L18.1028 9.67041C18.1427 10.11 18.1028 10.9892 18.1028 10.9892C17.99 12.4264 17.4778 13.8036 16.6242 14.9654C16.4119 15.2499 16.1852 15.5234 15.9448 15.7846L14.6261 15.5049C14.4779 15.475 14.3239 15.5043 14.197 15.5864C14.07 15.6685 13.9802 15.797 13.9467 15.9444L13.627 17.403C12.6244 17.8559 11.5358 18.0868 10.4357 18.0799C9.33556 18.073 8.24993 17.8285 7.25309 17.3631L6.93339 15.9045C6.90081 15.7565 6.8112 15.6274 6.68402 15.5451C6.55684 15.4628 6.40234 15.434 6.25404 15.4649L4.97526 15.7446C4.73548 15.5049 4.31588 14.9654 4.31588 14.9654C3.77123 14.2325 3.36495 13.4064 3.11703 12.5277C3.11703 12.5277 3.0371 12.228 2.99714 12.0881C2.97716 12.0282 2.97716 11.9682 2.95718 11.9083C2.9208 11.7367 2.89411 11.5633 2.87725 11.3888C2.85727 11.3088 2.85727 11.2289 2.83729 11.129C2.81731 10.9892 2.79733 10.5096 2.79733 10.4297V10.1699C2.79733 10.07 2.81731 9.97012 2.81731 9.87022C2.81731 9.79029 2.83729 9.69039 2.83729 9.61047L4.17602 9.01104C4.24497 8.98041 4.30708 8.93627 4.35867 8.88122C4.41026 8.82616 4.45028 8.76132 4.47636 8.69052C4.50245 8.61973 4.51406 8.54442 4.51052 8.46905C4.50698 8.39369 4.48836 8.3198 4.45575 8.25176L3.7764 6.71322C4.04963 6.21816 4.37809 5.75565 4.75547 5.33454C4.75547 5.33454 4.93529 5.13473 4.99524 5.07478C5.11512 4.9549 5.23501 4.83501 5.37488 4.71513L5.41484 4.67517C6.43521 3.77847 7.67707 3.17134 9.01141 2.91684L9.9705 3.91589C10.0741 4.02406 10.2163 4.08687 10.366 4.09061C10.5157 4.09435 10.6609 4.03873 10.7697 3.93587L11.9087 2.91684ZM3.07706 7.51246C3.19092 7.51495 3.30175 7.54959 3.39676 7.61237C3.50969 7.6866 3.5953 7.79568 3.64058 7.92301C3.68586 8.05034 3.68835 8.18897 3.64765 8.31784C3.60695 8.44671 3.5253 8.55878 3.41511 8.63701C3.30491 8.71524 3.17218 8.75537 3.0371 8.75128C2.87631 8.74609 2.72385 8.67855 2.61197 8.56295C2.5001 8.44734 2.43759 8.29275 2.43767 8.13187C2.43866 8.04912 2.45602 7.96739 2.48874 7.89138C2.52147 7.81537 2.56893 7.74659 2.62837 7.689C2.6878 7.63142 2.75805 7.58618 2.83507 7.55588C2.91208 7.52558 2.99432 7.51082 3.07706 7.51246ZM17.883 7.53244C17.9631 7.53324 18.0424 7.54996 18.116 7.58162C18.1897 7.61328 18.2564 7.65925 18.3121 7.71687C18.3679 7.7745 18.4117 7.84262 18.4409 7.91729C18.4701 7.99196 18.4842 8.07169 18.4824 8.15185C18.4824 8.97107 17.2436 8.97107 17.2436 8.15185C17.2488 7.98576 17.3184 7.82822 17.4378 7.7126C17.5571 7.59698 17.7168 7.53236 17.883 7.53244ZM5.8744 16.2641C5.95458 16.2649 6.03381 16.2816 6.10748 16.3133C6.18115 16.345 6.2478 16.3909 6.30357 16.4486C6.35933 16.5062 6.40309 16.5743 6.43232 16.649C6.46155 16.7236 6.47566 16.8034 6.47383 16.8835C6.47383 17.7028 5.23501 17.7028 5.23501 16.8835C5.2402 16.7174 5.30985 16.5599 5.4292 16.4443C5.54855 16.3287 5.70823 16.264 5.8744 16.2641ZM15.0856 16.2841C15.1658 16.2849 15.245 16.3016 15.3187 16.3333C15.3924 16.3649 15.459 16.4109 15.5148 16.4685C15.5706 16.5262 15.6143 16.5943 15.6435 16.669C15.6728 16.7436 15.6869 16.8234 15.6851 16.9035C15.6851 17.7227 14.4462 17.7227 14.4462 16.9035C14.4472 16.8208 14.4646 16.739 14.4973 16.663C14.53 16.587 14.5775 16.5182 14.6369 16.4607C14.6964 16.4031 14.7666 16.3578 14.8436 16.3275C14.9206 16.2972 15.0029 16.2825 15.0856 16.2841Z" fill="url(#paint9_radial_4713_53691)"/>
</g>
<defs>
<radialGradient id="paint0_radial_4713_53691" cx="0" cy="0" r="1" gradientUnits="userSpaceOnUse" gradientTransform="translate(13.1923 7.05419) scale(2.62909 2.6291)">
<stop stop-color="#7D7D7D"/>
<stop offset="0.267" stop-color="#7E7C7A"/>
<stop offset="0.45" stop-color="#817871"/>
<stop offset="0.608" stop-color="#867162"/>
<stop offset="0.753" stop-color="#8D684C"/>
<stop offset="0.886" stop-color="#965C30"/>
<stop offset="1" stop-color="#A04F12"/>
</radialGradient>
<radialGradient id="paint1_radial_4713_53691" cx="0" cy="0" r="1" gradientUnits="userSpaceOnUse" gradientTransform="translate(559.312 535.488) scale(196.891 196.337)">
<stop stop-color="#7D7D7D"/>
<stop offset="0.267" stop-color="#7E7C7A"/>
<stop offset="0.45" stop-color="#817871"/>
<stop offset="0.608" stop-color="#867162"/>
<stop offset="0.753" stop-color="#8D684C"/>
<stop offset="0.886" stop-color="#965C30"/>
<stop offset="1" stop-color="#A04F12"/>
</radialGradient>
<radialGradient id="paint2_radial_4713_53691" cx="0" cy="0" r="1" gradientUnits="userSpaceOnUse" gradientTransform="translate(175.75 105.627) scale(12.8503 18.0984)">
<stop stop-color="#7D7D7D"/>
<stop offset="0.267" stop-color="#7E7C7A"/>
<stop offset="0.45" stop-color="#817871"/>
<stop offset="0.608" stop-color="#867162"/>
<stop offset="0.753" stop-color="#8D684C"/>
<stop offset="0.886" stop-color="#965C30"/>
<stop offset="1" stop-color="#A04F12"/>
</radialGradient>
<radialGradient id="paint3_radial_4713_53691" cx="0" cy="0" r="1" gradientUnits="userSpaceOnUse" gradientTransform="translate(194.772 410.14) scale(62.0476 79.4528)">
<stop stop-color="#7D7D7D"/>
<stop offset="0.267" stop-color="#7E7C7A"/>
<stop offset="0.45" stop-color="#817871"/>
<stop offset="0.608" stop-color="#867162"/>
<stop offset="0.753" stop-color="#8D684C"/>
<stop offset="0.886" stop-color="#965C30"/>
<stop offset="1" stop-color="#A04F12"/>
</radialGradient>
<radialGradient id="paint4_radial_4713_53691" cx="0" cy="0" r="1" gradientUnits="userSpaceOnUse" gradientTransform="translate(62.5164 209.702) scale(13.0604 18.3101)">
<stop stop-color="#7D7D7D"/>
<stop offset="0.267" stop-color="#7E7C7A"/>
<stop offset="0.45" stop-color="#817871"/>
<stop offset="0.608" stop-color="#867162"/>
<stop offset="0.753" stop-color="#8D684C"/>
<stop offset="0.886" stop-color="#965C30"/>
<stop offset="1" stop-color="#A04F12"/>
</radialGradient>
<radialGradient id="paint5_radial_4713_53691" cx="0" cy="0" r="1" gradientUnits="userSpaceOnUse" gradientTransform="translate(8.20713 11.5627) scale(0.024976)">
<stop stop-color="#7D7D7D"/>
<stop offset="0.267" stop-color="#7E7C7A"/>
<stop offset="0.45" stop-color="#817871"/>
<stop offset="0.608" stop-color="#867162"/>
<stop offset="0.753" stop-color="#8D684C"/>
<stop offset="0.886" stop-color="#965C30"/>
<stop offset="1" stop-color="#A04F12"/>
</radialGradient>
<radialGradient id="paint6_radial_4713_53691" cx="0" cy="0" r="1" gradientUnits="userSpaceOnUse" gradientTransform="translate(75.1037 124.534) scale(17.6722 17.6722)">
<stop stop-color="#7D7D7D"/>
<stop offset="0.267" stop-color="#7E7C7A"/>
<stop offset="0.45" stop-color="#817871"/>
<stop offset="0.608" stop-color="#867162"/>
<stop offset="0.753" stop-color="#8D684C"/>
<stop offset="0.886" stop-color="#965C30"/>
<stop offset="1" stop-color="#A04F12"/>
</radialGradient>
<radialGradient id="paint7_radial_4713_53691" cx="0" cy="0" r="1" gradientUnits="userSpaceOnUse" gradientTransform="translate(166.174 53.9824) scale(21.7895 12.8634)">
<stop stop-color="#7D7D7D"/>
<stop offset="0.267" stop-color="#7E7C7A"/>
<stop offset="0.45" stop-color="#817871"/>
<stop offset="0.608" stop-color="#867162"/>
<stop offset="0.753" stop-color="#8D684C"/>
<stop offset="0.886" stop-color="#965C30"/>
<stop offset="1" stop-color="#A04F12"/>
</radialGradient>
<radialGradient id="paint8_radial_4713_53691" cx="0" cy="0" r="1" gradientUnits="userSpaceOnUse" gradientTransform="translate(162.684 150.484) scale(45.8981 46.0868)">
<stop stop-color="#7D7D7D"/>
<stop offset="0.267" stop-color="#7E7C7A"/>
<stop offset="0.45" stop-color="#817871"/>
<stop offset="0.608" stop-color="#867162"/>
<stop offset="0.753" stop-color="#8D684C"/>
<stop offset="0.886" stop-color="#965C30"/>
<stop offset="1" stop-color="#A04F12"/>
</radialGradient>
<radialGradient id="paint9_radial_4713_53691" cx="0" cy="0" r="1" gradientUnits="userSpaceOnUse" gradientTransform="translate(1096.8 1094.76) scale(1089.55 1088.82)">
<stop stop-color="#7D7D7D"/>
<stop offset="0.267" stop-color="#7E7C7A"/>
<stop offset="0.45" stop-color="#817871"/>
<stop offset="0.608" stop-color="#867162"/>
<stop offset="0.753" stop-color="#8D684C"/>
<stop offset="0.886" stop-color="#965C30"/>
<stop offset="1" stop-color="#A04F12"/>
</radialGradient>
<clipPath id="clip0_4713_53691">
<rect width="21" height="21" fill="white"/>
</clipPath>
</defs>
</svg>
