<svg width="24" height="24" viewBox="0 0 24 24" fill="none" xmlns="http://www.w3.org/2000/svg">
<path d="M2.6 13.0841L6.052 14.5951L16 9.16813L10 16.1681L18.6 20.0841C18.7471 20.1485 18.9075 20.1766 19.0677 20.1659C19.2279 20.1552 19.3832 20.1061 19.5204 20.0227C19.6576 19.9394 19.7728 19.8242 19.8561 19.6869C19.9394 19.5496 19.9884 19.3943 19.999 19.2341L20.999 4.23413C21.0101 4.06051 20.9759 3.88698 20.8996 3.73063C20.8233 3.57427 20.7076 3.44047 20.5639 3.34238C20.4203 3.2443 20.2535 3.18533 20.0801 3.17125C19.9067 3.15718 19.7326 3.1885 19.575 3.26213L2.575 11.2621C2.40159 11.3444 2.25545 11.4747 2.15398 11.6377C2.05251 11.8006 1.99996 11.9892 2.0026 12.1812C2.00523 12.3731 2.06293 12.5602 2.16884 12.7203C2.27474 12.8803 2.42439 13.0066 2.6 13.0841ZM8 22.1681L12.776 19.8521L8 17.6241V22.1681Z" fill="#929AA7"/>
</svg>
