<svg width="13" height="14" viewBox="0 0 13 14" fill="none" xmlns="http://www.w3.org/2000/svg">
<g clip-path="url(#clip0_24573_12738)">
<path d="M6.48486 13.0886C9.70424 13.0886 12.3141 10.4788 12.3141 7.25939C12.3141 4.04001 9.70424 1.43018 6.48486 1.43018C3.26547 1.43018 0.65564 4.04001 0.65564 7.25939C0.65564 10.4788 3.26547 13.0886 6.48486 13.0886Z" fill="#F40C0C"/>
<path d="M6.48486 12.4026C9.70424 12.4026 12.3141 9.79274 12.3141 6.57336C12.3141 3.35397 9.70424 0.744141 6.48486 0.744141C3.26547 0.744141 0.65564 3.35397 0.65564 6.57336C0.65564 9.79274 3.26547 12.4026 6.48486 12.4026Z" fill="#FF6D4D"/>
<path d="M6.48486 11.7168C9.13612 11.7168 11.2854 9.56751 11.2854 6.91625C11.2854 4.26499 9.13612 2.11572 6.48486 2.11572C3.8336 2.11572 1.68433 4.26499 1.68433 6.91625C1.68433 9.56751 3.8336 11.7168 6.48486 11.7168Z" fill="#FFB6B6"/>
<path d="M6.48486 11.374C9.13612 11.374 11.2854 9.22474 11.2854 6.57348C11.2854 3.92222 9.13612 1.77295 6.48486 1.77295C3.8336 1.77295 1.68433 3.92222 1.68433 6.57348C1.68433 9.22474 3.8336 11.374 6.48486 11.374Z" fill="#FF3333"/>
<path d="M6.19112 8.27893C7.4897 8.27893 8.54241 7.51333 8.54241 6.56891C8.54241 5.62449 7.4897 4.85889 6.19112 4.85889C4.89255 4.85889 3.83984 5.62449 3.83984 6.56891C3.83984 7.51333 4.89255 8.27893 6.19112 8.27893Z" fill="#FF725F"/>
</g>
<defs>
<clipPath id="clip0_24573_12738">
<rect width="12.3442" height="12.3442" fill="white" transform="translate(0.312866 0.744141)"/>
</clipPath>
</defs>
</svg>
