<svg width="18" height="14" viewBox="0 0 18 14" fill="none" xmlns="http://www.w3.org/2000/svg">
<g clip-path="url(#clip0_4738_53333)">
<path d="M15.8625 13.5638H2.21245C1.13995 13.5638 0.262451 12.7107 0.262451 11.668V2.1888C0.262451 1.14609 1.13995 0.292969 2.21245 0.292969H15.8625C16.9349 0.292969 17.8125 1.14609 17.8125 2.1888V11.668C17.8125 12.7107 16.9349 13.5638 15.8625 13.5638Z" fill="#274B89"/>
<path d="M13.4249 5.50391C14.2326 5.50391 14.8874 4.86731 14.8874 4.08203C14.8874 3.29675 14.2326 2.66016 13.4249 2.66016C12.6172 2.66016 11.9624 3.29675 11.9624 4.08203C11.9624 4.86731 12.6172 5.50391 13.4249 5.50391Z" fill="#C2E0FF"/>
<path d="M7.08745 4.98438L2.69995 11.1932H11.475L7.08745 4.98438Z" fill="#6E85AE"/>
<path d="M12.4499 7.63672L9.5249 11.1914H15.3749L12.4499 7.63672Z" fill="#6E85AE"/>
</g>
<defs>
<clipPath id="clip0_4738_53333">
<rect width="18" height="14" fill="white"/>
</clipPath>
</defs>
</svg>
