<svg width="18" height="16" viewBox="0 0 18 16" fill="none" xmlns="http://www.w3.org/2000/svg">
<g clip-path="url(#clip0_22826_9918)">
<path d="M12 12.041V11.216C13.102 10.595 14 9.048 14 7.5C14 5.015 14 3 11 3C8 3 8 5.015 8 7.5C8 9.048 8.898 10.595 10 11.216V12.041C6.608 12.318 4 13.985 4 16H18C18 13.985 15.392 12.318 12 12.041Z" fill="#929AA7"/>
<path d="M5.112 12.426C5.976 11.861 7.051 11.432 8.234 11.17C7.99312 10.8843 7.78108 10.5755 7.601 10.248C7.13189 9.40757 6.8822 8.46246 6.875 7.5C6.875 6.156 6.875 4.886 7.353 3.847C7.817 2.839 8.652 2.214 9.841 1.98C9.577 0.785 8.873 0 7 0C4 0 4 2.015 4 4.5C4 6.048 4.898 7.595 6 8.216V9.041C2.608 9.318 0 10.985 0 13H4.359C4.586 12.798 4.837 12.607 5.112 12.427V12.426Z" fill="#929AA7"/>
</g>
<defs>
<clipPath id="clip0_22826_9918">
<rect width="18" height="16" fill="white"/>
</clipPath>
</defs>
</svg>
