<svg width="16" height="17" viewBox="0 0 16 17" fill="none" xmlns="http://www.w3.org/2000/svg">
<path d="M13.9617 0.453125H2.51257C2.07878 0.453125 1.66276 0.625446 1.35603 0.932179C1.0493 1.23891 0.876976 1.65493 0.876976 2.08872V12.7201C0.876976 13.1539 1.0493 13.5699 1.35603 13.8766C1.66276 14.1833 2.07878 14.3557 2.51257 14.3557H5.78376L8.23715 16.8091L10.6905 14.3557H13.9617C14.3955 14.3557 14.8115 14.1833 15.1183 13.8766C15.425 13.5699 15.5973 13.1539 15.5973 12.7201V2.08872C15.5973 1.65493 15.425 1.23891 15.1183 0.932179C14.8115 0.625446 14.3955 0.453125 13.9617 0.453125ZM8.23715 2.90651C9.64948 2.90651 10.6905 3.94675 10.6905 5.3599C10.6905 6.77306 9.64948 7.81329 8.23715 7.81329C6.82563 7.81329 5.78376 6.77306 5.78376 5.3599C5.78376 3.94675 6.82563 2.90651 8.23715 2.90651ZM4.29291 11.9023C4.74924 10.4932 6.33413 9.44889 8.23715 9.44889C10.1402 9.44889 11.7259 10.4932 12.1814 11.9023H4.29291Z" fill="#274B89"/>
</svg>
