<svg width="26" height="26" viewBox="0 0 26 26" fill="none" xmlns="http://www.w3.org/2000/svg">
<path d="M4.12269 9.61173C3.5233 9.76694 2.9704 10.0799 2.52513 10.5251C1.86875 11.1815 1.5 12.0717 1.5 13C1.5 13.9283 1.86875 14.8185 2.52513 15.4749C2.97037 15.9201 3.52323 16.233 4.12257 16.3882C4.18599 16.5543 4.25408 16.7185 4.32676 16.8807C4.24451 17.0204 4.17188 17.1659 4.10952 17.3163C3.93346 17.7409 3.84276 18.1961 3.8426 18.6558C3.84243 19.1154 3.93281 19.5707 4.10857 19.9954C4.28434 20.4202 4.54204 20.8061 4.86697 21.1313C5.19189 21.4564 5.57768 21.7144 6.00231 21.8905C6.42693 22.0665 6.88208 22.1572 7.34176 22.1574C7.80144 22.1576 8.25666 22.0672 8.68141 21.8914C8.83261 21.8289 8.97888 21.7559 9.11926 21.6732C9.28148 21.7459 9.4457 21.814 9.61176 21.8774C9.76698 22.4768 10.0799 23.0296 10.5251 23.4749C11.1815 24.1313 12.0717 24.5 13 24.5C13.9283 24.5 14.8185 24.1313 15.4749 23.4749C15.9201 23.0296 16.233 22.4768 16.3882 21.8774C16.5543 21.814 16.7185 21.7459 16.8807 21.6732C17.0204 21.7555 17.1659 21.8281 17.3163 21.8905C17.7409 22.0665 18.1961 22.1572 18.6558 22.1574C19.1154 22.1576 19.5707 22.0672 19.9954 21.8914C20.4201 21.7157 20.8061 21.458 21.1313 21.133C21.4564 20.8081 21.7144 20.4223 21.8905 19.9977C22.0665 19.5731 22.1572 19.1179 22.1574 18.6582C22.1576 18.1986 22.0672 17.7433 21.8914 17.3186C21.8289 17.1674 21.7559 17.0211 21.6732 16.8807C21.7459 16.7185 21.814 16.5543 21.8774 16.3882C22.4768 16.233 23.0296 15.9201 23.4749 15.4749C24.1313 14.8185 24.5 13.9283 24.5 13C24.5 12.0717 24.1313 11.1815 23.4749 10.5251C23.0297 10.0799 22.4769 9.76706 21.8776 9.61181C21.8141 9.44529 21.7459 9.28099 21.6734 9.11908C21.7556 8.97947 21.8281 8.83401 21.8905 8.68369C22.0665 8.25907 22.1572 7.80392 22.1574 7.34424C22.1576 6.88456 22.0672 6.42934 21.8914 6.00459C21.7157 5.57985 21.458 5.19388 21.133 4.86871C20.8081 4.54356 20.4223 4.28558 19.9977 4.10952C19.5731 3.93346 19.1179 3.84276 18.6582 3.8426C18.0277 3.84237 17.4147 4.01227 16.8805 4.32689C16.7188 4.25441 16.5547 4.18629 16.3883 4.12269C16.2331 3.5233 15.9201 2.9704 15.4749 2.52513C14.8185 1.86875 13.9283 1.5 13 1.5C12.0717 1.5 11.1815 1.86875 10.5251 2.52513C10.0799 2.97037 9.76698 3.52323 9.61176 4.12257C9.44571 4.18599 9.28149 4.25408 9.11928 4.32675C8.58587 4.01265 7.97383 3.84282 7.34424 3.8426C6.41587 3.84227 5.5254 4.21074 4.86871 4.86697C4.21203 5.52319 3.84292 6.4134 3.8426 7.34176C3.84237 7.97228 4.01227 8.58531 4.32689 9.1195C4.25442 9.28119 4.18629 9.44531 4.12269 9.61173Z" fill="#3670D5" stroke="white" stroke-width="3"/>
</svg>
