<svg width="17" height="16" viewBox="0 0 17 16" fill="none" xmlns="http://www.w3.org/2000/svg">
<path d="M12.4968 12.2623C11.7131 12.2623 11.0754 11.6246 11.0754 10.8409V8.48038C11.0754 7.69664 11.7131 7.05903 12.4968 7.05903H16.2005C16.2229 7.05903 16.2452 7.05971 16.2674 7.06071V4.70925C16.2674 4.10396 15.7767 3.61328 15.1714 3.61328H1.58307C0.977741 3.61325 0.487061 4.10393 0.487061 4.70922V14.612C0.487061 15.2173 0.977741 15.708 1.58307 15.708H15.1714C15.7767 15.708 16.2674 15.2174 16.2674 14.612V12.2606C16.2452 12.2616 16.2229 12.2623 16.2005 12.2623H12.4968Z" fill="#274B89"/>
<path d="M16.2005 7.83594H12.4969C12.142 7.83594 11.8544 8.12362 11.8544 8.47847V10.839C11.8544 11.1938 12.142 11.4815 12.4969 11.4815H16.2005C16.5554 11.4815 16.8431 11.1939 16.8431 10.839V8.47847C16.8431 8.12358 16.5554 7.83594 16.2005 7.83594ZM13.7731 10.5861C13.2609 10.5861 12.8457 10.1709 12.8457 9.65869C12.8457 9.1465 13.2609 8.7313 13.7731 8.7313C14.2853 8.7313 14.7005 9.1465 14.7005 9.65869C14.7005 10.1709 14.2853 10.5861 13.7731 10.5861Z" fill="#274B89"/>
<path d="M13.263 1.60446C13.0178 0.862301 12.2174 0.45944 11.4752 0.704638L5.90736 2.54412H13.5734L13.263 1.60446Z" fill="#274B89"/>
</svg>
