<svg width="34" height="25" viewBox="0 0 34 25" fill="none" xmlns="http://www.w3.org/2000/svg">
<g clip-path="url(#clip0_4713_54817)">
<path d="M33 0V25H-1V0H33ZM2 22H30V3H2V22ZM27 8C27 8.55 26.8042 9.02083 26.4125 9.4125C26.0208 9.80416 25.55 10 25 10C24.45 10 23.9792 9.80416 23.5875 9.4125C23.1958 9.02083 23 8.55 23 8C23 7.45 23.1958 6.97917 23.5875 6.5875C23.9792 6.19583 24.45 6 25 6C25.55 6 26.0208 6.19583 26.4125 6.5875C26.8042 6.97917 27 7.45 27 8ZM28.075 19.825C28.1083 19.8417 28.1167 19.875 28.1 19.925C28.0833 19.975 28.05 20 28 20H4.1C4.03333 20 4 19.9667 4 19.9V19.85C4.3 19.25 5.425 16.9167 7.375 12.85C9.325 8.78333 10.525 6.29167 10.975 5.375C10.9917 5.34167 11.0208 5.32083 11.0625 5.3125C11.1042 5.30417 11.1333 5.31667 11.15 5.35L18.925 15L22.725 11.95H22.9L22.925 12C23.575 12.8333 24.4208 14.125 25.4625 15.875C26.5042 17.625 27.375 18.9417 28.075 19.825Z" fill="#3670D5"/>
</g>
<defs>
<clipPath id="clip0_4713_54817">
<rect width="34" height="25" fill="white"/>
</clipPath>
</defs>
</svg>
