<svg width="27" height="27" viewBox="0 0 27 27" fill="none" xmlns="http://www.w3.org/2000/svg">
<path d="M13.5515 2.56885C7.6055 2.56993 2.76807 7.40736 2.76807 13.3533C2.76807 19.2982 7.6055 24.1357 13.5515 24.1367C19.4974 24.1367 24.3349 19.2993 24.3349 13.3533C24.3349 7.40736 19.4985 2.56993 13.5515 2.56885ZM13.5515 21.9801C8.79491 21.979 4.92475 18.1088 4.92475 13.3533C4.92475 8.59677 8.79491 4.72661 13.5515 4.72553C18.308 4.72661 22.1782 8.59677 22.1782 13.3533C22.1782 18.1099 18.308 21.9801 13.5515 21.9801Z" fill="black"/>
<path d="M14.6304 9.04639H12.4737V13.3598H9.229L13.5478 17.6785L17.8654 13.3598H14.6304V9.04639Z" fill="black"/>
</svg>
